<?xml version="1.0" encoding="UTF-8"?>
<svg version="1.1" xmlns="http://www.w3.org/2000/svg" width="165" height="157">
<path d="M0 0 C11.56813379 9.20251542 21.04678999 24.81154264 22.98828125 39.5703125 C24.51869383 58.39867086 22.11405613 75.12953705 9.88671875 90.15234375 C7.65865283 92.70581449 5.3617537 95.15190339 2.98828125 97.5703125 C2.37339844 98.2096875 1.75851563 98.8490625 1.125 99.5078125 C-11.0699952 111.20665158 -27.23990631 115.07768482 -43.65332031 114.91992188 C-62.03790251 114.40595924 -76.5463137 106.66734761 -89.01171875 93.5703125 C-101.70505082 79.69068772 -105.80070468 63.71083708 -105.2890625 45.34375 C-104.51516808 28.92177465 -96.56361332 13.72212772 -84.7734375 2.42578125 C-59.78509201 -18.96358813 -26.26660438 -18.6671402 0 0 Z " fill="#91C02E" transform="translate(125.01171875,27.4296875)"/>
<path d="M0 0 C7.08886687 4.72591125 10.35284949 12.05854848 13 20 C13.72885016 33.339653 11.93489943 43.55408985 3.625 54.25 C0.77121363 57.23968096 -2.18496955 60.28451651 -6 62 C-8.85017019 61.85526479 -9.78738593 61.22688348 -11.74609375 59.13671875 C-18.80894315 48.90945183 -23.18888044 39.02983293 -23.125 26.5625 C-23.12886719 25.81162109 -23.13273437 25.06074219 -23.13671875 24.28710938 C-23.12986606 20.39135683 -22.95301756 16.8045066 -22 13 C-21.19175781 12.81824219 -20.38351563 12.63648437 -19.55078125 12.44921875 C-17.94783203 12.07216797 -17.94783203 12.07216797 -16.3125 11.6875 C-14.72888672 11.32205078 -14.72888672 11.32205078 -13.11328125 10.94921875 C-8.25189403 9.46701412 -5.00187564 7.57426883 -2.1875 3.3125 C-1.1046875 1.6728125 -1.1046875 1.6728125 0 0 Z " fill="#FCFDF7" transform="translate(109,54)"/>
<path d="M0 0 C5 5 5 5 7.0625 7.625 C10.91736862 10.74170229 14.52831788 11.22176477 19.35546875 12.03125 C22 13 22 13 23.33984375 15.08984375 C26.32548109 28.25138114 23.67973587 40.90902185 17 52.4375 C14.86562965 55.80157103 12.61351326 58.98440778 10 62 C1.66646844 59.96743133 -3.31904651 54.42091152 -7.7109375 47.328125 C-12.83599316 38.07196387 -13.64574907 27.36668632 -11.34375 17.0625 C-8.99545873 10.58445513 -4.86412372 4.86412372 0 0 Z " fill="#FCFEF9" transform="translate(58,54)"/>
<path d="M0 0 C3.06661186 0.32912529 4.58726385 0.56129394 6.73828125 2.84765625 C7.25777344 3.57855469 7.77726562 4.30945312 8.3125 5.0625 C10.67216573 7.88184087 12.19411961 9.65146215 15.9375 10.0625 C18.95079911 9.79387256 19.92085916 9.07767527 22.109375 6.9296875 C23.47731575 5.28918712 24.79149431 3.6020805 26.04296875 1.87109375 C26.68878906 1.25363281 27.33460937 0.63617188 28 0 C30.73828125 0.22265625 30.73828125 0.22265625 33 1 C32.46288277 4.86724404 31.40657902 6.96561775 29 10 C29 10.66 29 11.32 29 12 C30.98 12.66 32.96 13.32 35 14 C34.75311061 17.33300679 33.79384198 18.19656928 31.3125 20.5625 C24.4002626 25.83206451 18.64096746 27.01057307 10 26 C4.05906975 24.27332569 0.48417215 21.00849746 -3 16 C-3 15.34 -3 14.68 -3 14 C-0.69 13.34 1.62 12.68 4 12 C3.62746094 11.55269531 3.25492187 11.10539062 2.87109375 10.64453125 C-1.04116638 5.64493997 -1.04116638 5.64493997 -0.8125 2.0625 C-0.544375 1.381875 -0.27625 0.70125 0 0 Z " fill="#F9FDEE" transform="translate(68,35)"/>
<path d="M0 0 C0.99 0 1.98 0 3 0 C3.8971875 1.36125 3.8971875 1.36125 4.8125 2.75 C7.75844819 7.12683731 11.02058035 9.34019345 16 11 C23.94726518 11.72790267 30.03120418 10.94194511 37 7 C36 10 36 10 33.0625 11.5625 C32.051875 12.036875 31.04125 12.51125 30 13 C29.34 13.66 28.68 14.32 28 15 C29.4800841 14.88637738 30.95910074 14.75877092 32.4375 14.625 C33.26121094 14.55539063 34.08492187 14.48578125 34.93359375 14.4140625 C35.61550781 14.27742188 36.29742187 14.14078125 37 14 C37.33 13.34 37.66 12.68 38 12 C38.66 12.66 39.32 13.32 40 14 C34.56376977 17.20598193 31.92709339 17.23032296 25 18 C25 26.58 25 35.16 25 44 C24.34 43.67 23.68 43.34 23 43 C23 41.35 23 39.7 23 38 C22.34 38 21.68 38 21 38 C20.67 39.98 20.34 41.96 20 44 C18.6157528 39.11153646 18.95363072 34.23115079 19.0390625 29.19921875 C19.07673782 25.61378454 18.97624969 22.44762193 18 19 C17.19175781 18.82984375 16.38351563 18.6596875 15.55078125 18.484375 C7.34193559 16.62277912 2.79921664 14.97332413 -1.8125 7.75 C-2.5506859 6.50530501 -3.2830086 5.25702322 -4 4 C-3.01 3.67 -2.02 3.34 -1 3 C-0.67 2.01 -0.34 1.02 0 0 Z " fill="#97C03B" transform="translate(62,49)"/>
<path d="M0 0 C0 0.99 0 1.98 0 3 C-0.94875 3.45375 -1.8975 3.9075 -2.875 4.375 C-6.00313679 5.80238254 -6.00313679 5.80238254 -8 8 C-6.5199159 7.88637738 -5.04089926 7.75877092 -3.5625 7.625 C-2.73878906 7.55539063 -1.91507813 7.48578125 -1.06640625 7.4140625 C-0.38449219 7.27742188 0.29742187 7.14078125 1 7 C1.33 6.34 1.66 5.68 2 5 C2.66 5.66 3.32 6.32 4 7 C-1.43623023 10.20598193 -4.07290661 10.23032296 -11 11 C-11 19.58 -11 28.16 -11 37 C-11.66 36.67 -12.32 36.34 -13 36 C-13 34.35 -13 32.7 -13 31 C-13.66 31 -14.32 31 -15 31 C-15.33 32.98 -15.66 34.96 -16 37 C-17.37521185 32.13735378 -17.04685968 27.29207624 -16.9609375 22.28710938 C-16.91964375 18.37452656 -17.02697432 14.82368684 -18 11 C-17.01 11.33 -16.02 11.66 -15 12 C-15 13.65 -15 15.3 -15 17 C-14.34 17 -13.68 17 -13 17 C-12.67 14.69 -12.34 12.38 -12 10 C-11.34 10 -10.68 10 -10 10 C-10 9.01 -10 8.02 -10 7 C-11.216875 7.04125 -12.43375 7.0825 -13.6875 7.125 C-17.21894127 7.13754508 -19.80003566 6.59998217 -23 5 C-19.76523878 3.92174626 -17.69406074 4.02729802 -14.3125 4.1875 C-8.38940179 4.26666656 -5.00642866 3.08087918 0 0 Z " fill="#9DC04F" transform="translate(98,56)"/>
<path d="M0 0 C0.33 0 0.66 0 1 0 C0.53410445 8.88414621 -0.81905522 15.56647053 -6 23 C-6.66 23 -7.32 23 -8 23 C-8 23.66 -8 24.32 -8 25 C-9.375 26.625 -9.375 26.625 -11 28 C-11.66 28 -12.32 28 -13 28 C-12.67 28.99 -12.34 29.98 -12 31 C-12.7425 30.95875 -13.485 30.9175 -14.25 30.875 C-16.98837324 30.79807938 -16.98837324 30.79807938 -19.0625 32.125 C-21 33 -21 33 -23 32.5625 C-25.9785484 30.23550906 -27.19364673 27.31164765 -29 24 C-29.66 23.67 -30.32 23.34 -31 23 C-31 22.01 -31 21.02 -31 20 C-31.66 20 -32.32 20 -33 20 C-33 18.35 -33 16.7 -33 15 C-33.66 15 -34.32 15 -35 15 C-35 12.69 -35 10.38 -35 8 C-32.51591773 11.7261234 -30.66171273 15.69606838 -28.7421875 19.73046875 C-26.8734912 23.55801776 -24.78184816 26.77697768 -22 30 C-16.11190696 28.83546604 -11.6890611 25.35209166 -8.21875 20.51953125 C-6.72864271 18.04697578 -5.32797168 15.56290075 -4 13 C-3.6390625 12.33742188 -3.278125 11.67484375 -2.90625 10.9921875 C-1.89135143 8.76116047 -1.36878022 6.64836109 -0.875 4.25 C-0.70742187 3.45078125 -0.53984375 2.6515625 -0.3671875 1.828125 C-0.18542969 0.92320313 -0.18542969 0.92320313 0 0 Z " fill="#9DBF4F" transform="translate(122,85)"/>
<path d="M0 0 C0.99 0 1.98 0 3 0 C3.8971875 1.36125 3.8971875 1.36125 4.8125 2.75 C7.2946752 6.43780315 9.23988123 7.77811163 13 10 C12.01 10.66 11.02 11.32 10 12 C8.2892257 10.2892257 6.59765146 8.5732667 4.9375 6.8125 C3.19876339 4.77228096 3.19876339 4.77228096 1 5 C1 5.99 1 6.98 1 8 C1.99 8 2.98 8 4 8 C4 8.99 4 9.98 4 11 C4.66 11 5.32 11 6 11 C5.34 12.32 4.68 13.64 4 15 C1.36 11.7 -1.28 8.4 -4 5 C-3.01 4.34 -2.02 3.68 -1 3 C-0.67 2.01 -0.34 1.02 0 0 Z " fill="#98BF44" transform="translate(62,49)"/>
<path d="M0 0 C-0.44033187 5.19591612 -0.88303339 8.66335081 -4 13 C-3.67 12.67 -3.34 12.34 -3 12 C-2.34 11.67 -1.68 11.34 -1 11 C-1 12.65 -1 14.3 -1 16 C-2.98 15.34 -4.96 14.68 -7 14 C-5.92598892 11.08482708 -5.22189824 9.22189824 -3 7 C-3 5.68 -3 4.36 -3 3 C-6.68754757 3.49831724 -8.60490662 4.10067643 -11 7 C-11 4.6875 -11 4.6875 -10 2 C-6.83937014 0.1591936 -3.42498976 -1.71249488 0 0 Z " fill="#98BD4A" transform="translate(103,33)"/>
<path d="M0 0 C2.97 0.495 2.97 0.495 6 1 C6 1.66 6 2.32 6 3 C4.68 3.33 3.36 3.66 2 4 C2.53711723 7.86724404 3.59342098 9.96561775 6 13 C6 13.66 6 14.32 6 15 C2.34683329 13.75023244 1.21934164 13.32901247 -1 10 C-1.04165365 8.33385392 -1.04165365 6.66614608 -1 5 C-1.33 4.01 -1.66 3.02 -2 2 C-1.34 2 -0.68 2 0 2 C0 1.34 0 0.68 0 0 Z " fill="#96BC41" transform="translate(66,32)"/>
<path d="M0 0 C-0.33 1.98 -0.66 3.96 -1 6 C-2.4117783 6.53394179 -3.82970244 7.05165104 -5.25 7.5625 C-6.03890625 7.85253906 -6.8278125 8.14257812 -7.640625 8.44140625 C-10.19103452 9.04522837 -11.55322229 8.8473932 -14 8 C-11.80106503 4.70159754 -10.49141855 4.00238717 -7 2.3125 C-6.113125 1.87550781 -5.22625 1.43851563 -4.3125 0.98828125 C-2 0 -2 0 0 0 Z " fill="#90BF2B" transform="translate(103,56)"/>
<path d="M0 0 C0 0.99 0 1.98 0 3 C-1.423125 3.6496875 -1.423125 3.6496875 -2.875 4.3125 C-6.20041937 5.79302201 -6.20041937 5.79302201 -8 9 C-8.66 9 -9.32 9 -10 9 C-10 8.34 -10 7.68 -10 7 C-11.216875 7.04125 -12.43375 7.0825 -13.6875 7.125 C-17.21894127 7.13754508 -19.80003566 6.59998217 -23 5 C-19.76523878 3.92174626 -17.69406074 4.02729802 -14.3125 4.1875 C-8.38940179 4.26666656 -5.00642866 3.08087918 0 0 Z " fill="#98BC47" transform="translate(98,56)"/>
<path d="M0 0 C-0.33 6.93 -0.66 13.86 -1 21 C-1.33 21 -1.66 21 -2 21 C-2.03738281 20.31035156 -2.07476562 19.62070313 -2.11328125 18.91015625 C-2.56078148 12.51353535 -3.65649801 6.96929752 -6 1 C-1.125 0 -1.125 0 0 0 Z " fill="#95BC3E" transform="translate(124,64)"/>
<path d="M0 0 C1.9375 0.3125 1.9375 0.3125 4 1 C4.33 1.99 4.66 2.98 5 4 C7.50447516 5.21869929 7.50447516 5.21869929 10 6 C9.67 7.32 9.34 8.64 9 10 C7.68 9.67 6.36 9.34 5 9 C5.33 8.34 5.66 7.68 6 7 C5.34 7 4.68 7 4 7 C4 6.01 4 5.02 4 4 C3.01 4 2.02 4 1 4 C0.67 2.68 0.34 1.36 0 0 Z " fill="#8EBF2A" transform="translate(62,53)"/>
<path d="M0 0 C0 0.99 0 1.98 0 3 C-0.66 3 -1.32 3 -2 3 C-2.33 5.31 -2.66 7.62 -3 10 C-3.66 10 -4.32 10 -5 10 C-5.33 7.36 -5.66 4.72 -6 2 C-3 0 -3 0 0 0 Z " fill="#8EC02A" transform="translate(88,63)"/>
<path d="M0 0 C0.33 2.64 0.66 5.28 1 8 C-4.875 3.375 -4.875 3.375 -6 0 C-3.50907189 -1.24546405 -2.58919267 -0.7767578 0 0 Z " fill="#9BC141" transform="translate(38,115)"/>
<path d="M0 0 C0.95412881 2.57614778 1.01981848 3.91676239 0.375 6.625 C-1.33984343 9.58700229 -2.77611813 10.06677104 -6 11 C-6 11.66 -6 12.32 -6 13 C-6.66 12.67 -7.32 12.34 -8 12 C-7.50628906 11.30132812 -7.01257813 10.60265625 -6.50390625 9.8828125 C-5.86324219 8.97273438 -5.22257812 8.06265625 -4.5625 7.125 C-3.92441406 6.22007813 -3.28632812 5.31515625 -2.62890625 4.3828125 C-1.00481862 2.12261419 -1.00481862 2.12261419 0 0 Z " fill="#9CC150" transform="translate(76,103)"/>
<path d="M0 0 C2.25 0.3125 2.25 0.3125 4 1 C3.34 1 2.68 1 2 1 C2.33 1.99 2.66 2.98 3 4 C2.2575 3.95875 1.515 3.9175 0.75 3.875 C-1.98837324 3.79807938 -1.98837324 3.79807938 -4.0625 5.125 C-4.701875 5.41375 -5.34125 5.7025 -6 6 C-8.25 5.125 -8.25 5.125 -10 4 C-10 3.34 -10 2.68 -10 2 C-9.0925 2.226875 -8.185 2.45375 -7.25 2.6875 C-3.37183815 3.06040018 -2.90137055 2.32109644 0 0 Z " fill="#97BD42" transform="translate(107,112)"/>
<path d="M0 0 C4 2.66666667 8 5.33333333 12 8 C11.67 8.66 11.34 9.32 11 10 C5.125 7.25 5.125 7.25 4 5 C1.98330173 3.86649466 1.98330173 3.86649466 0 3 C0 2.01 0 1.02 0 0 Z " fill="#9BBE4C" transform="translate(54,107)"/>
<path d="M0 0 C1.65 1.65 3.3 3.3 5 5 C3.8553125 4.9071875 3.8553125 4.9071875 2.6875 4.8125 C-0.04525312 4.74101915 -0.04525312 4.74101915 -1.8125 6.5 C-2.4003125 7.2425 -2.4003125 7.2425 -3 8 C-3.66 7.67 -4.32 7.34 -5 7 C-3.35 4.69 -1.7 2.38 0 0 Z " fill="#F1FBD7" transform="translate(109,54)"/>
<path d="M0 0 C-0.66 0.433125 -1.32 0.86625 -2 1.3125 C-2.66 1.869375 -3.32 2.42625 -4 3 C-4 3.99 -4 4.98 -4 6 C-4.99 6 -5.98 6 -7 6 C-7.33 5.01 -7.66 4.02 -8 3 C-8.66 2.67 -9.32 2.34 -10 2 C-8.71211992 1.46987262 -7.41953322 0.9511671 -6.125 0.4375 C-5.40570313 0.14746094 -4.68640625 -0.14257812 -3.9453125 -0.44140625 C-2 -1 -2 -1 0 0 Z " fill="#9AC441" transform="translate(67,17)"/>
<path d="M0 0 C4.875 4.625 4.875 4.625 6 8 C4 8 4 8 1.875 6 C1.25625 5.34 0.6375 4.68 0 4 C-1.98 4.99 -1.98 4.99 -4 6 C-2.84826645 3.53199953 -1.95216435 1.95216435 0 0 Z " fill="#F1FAD3" transform="translate(58,54)"/>
<path d="M0 0 C0.33 0.66 0.66 1.32 1 2 C0.0625 4.125 0.0625 4.125 -1 6 C-0.67 5.67 -0.34 5.34 0 5 C0.66 4.67 1.32 4.34 2 4 C2 5.65 2 7.3 2 9 C0.02 8.34 -1.96 7.68 -4 7 C-2.92598892 4.08482708 -2.22189824 2.22189824 0 0 Z " fill="#9DC252" transform="translate(100,40)"/>
<path d="M0 0 C0.99 1.32 1.98 2.64 3 4 C2.67 4.66 2.34 5.32 2 6 C0.35 5.67 -1.3 5.34 -3 5 C-3 3.68 -3 2.36 -3 1 C-2.01 0.67 -1.02 0.34 0 0 Z " fill="#99C43B" transform="translate(139,45)"/>
<path d="M0 0 C1.32 0.66 2.64 1.32 4 2 C3.34 2 2.68 2 2 2 C1.67 2.99 1.34 3.98 1 5 C-0.65 5 -2.3 5 -4 5 C-2.68 3.35 -1.36 1.7 0 0 Z " fill="#96C23B" transform="translate(109,19)"/>
<path d="M0 0 C0.99 0.33 1.98 0.66 3 1 C1.35 2.98 -0.3 4.96 -2 7 C-2.66 6.67 -3.32 6.34 -4 6 C-3.6875 4.125 -3.6875 4.125 -3 2 C-2.01 1.34 -1.02 0.68 0 0 Z " fill="#A0C441" transform="translate(126,122)"/>
<path d="M0 0 C0.66 0 1.32 0 2 0 C1.46930939 3.82097239 0.50298434 6.06171403 -2 9 C-1.125 1.125 -1.125 1.125 0 0 Z " fill="#F5FDE1" transform="translate(77,96)"/>
<path d="M0 0 C0.99 0.33 1.98 0.66 3 1 C1.71937515 2.7074998 0.38232443 4.37373596 -1 6 C-1.66 6 -2.32 6 -3 6 C-2.625 3.5625 -2.625 3.5625 -2 1 C-1.34 0.67 -0.68 0.34 0 0 Z " fill="#9BC04A" transform="translate(105,56)"/>
<path d="M0 0 C0.33 0.66 0.66 1.32 1 2 C-0.1875 4.5625 -0.1875 4.5625 -2 7 C-3.32 7.33 -4.64 7.66 -6 8 C-4.02 5.36 -2.04 2.72 0 0 Z " fill="#ECF7D4" transform="translate(94,37)"/>
<path d="M0 0 C2.04119788 1.61594832 4.04072937 3.2856382 6 5 C6 5.66 6 6.32 6 7 C4.68 6.67 3.36 6.34 2 6 C1.87625 5.360625 1.7525 4.72125 1.625 4.0625 C1.315625 3.0415625 1.315625 3.0415625 1 2 C0.34 1.67 -0.32 1.34 -1 1 C-0.67 0.67 -0.34 0.34 0 0 Z " fill="#9CC54B" transform="translate(130,34)"/>
<path d="M0 0 C1.32 0 2.64 0 4 0 C2.63016497 3.16115776 2.0109362 3.9927092 -1 6 C-1 3 -1 3 0 0 Z " fill="#A0C547" transform="translate(131,116)"/>
</svg>
