<?xml version="1.0" encoding="UTF-8"?>
<svg version="1.1" xmlns="http://www.w3.org/2000/svg" width="198" height="162">
<path d="M0 0 C13.30647774 11.36818122 23.24280375 26.71455433 24.92285156 44.43505859 C26.07794334 62.00658059 21.48255961 79.74066618 9.87988281 93.3269043 C-2.25202558 106.72095684 -17.70263843 115.4798601 -35.87109375 116.73828125 C-54.14208963 117.50220958 -69.82431854 112.02128339 -83.69921875 100.05078125 C-97.26279302 87.04218137 -104.93943776 70.7612904 -105.51171875 51.92578125 C-105.30352542 33.39657506 -97.98948839 17.60086365 -85.44921875 4.23828125 C-62.44371168 -17.64828092 -25.03860947 -20.07477514 0 0 Z " fill="#595264" transform="translate(150.26171875,34.51171875)"/>
<path d="M0 0 C2.06916127 1.44519241 3.86490604 2.97790486 5.6953125 4.71484375 C6.38367188 5.35164063 7.07203125 5.9884375 7.78125 6.64453125 C15.45831216 14.43575047 18.91210034 23.38183473 19.2578125 34.27734375 C18.74784154 47.64685278 13.9254298 56.86928147 4.4453125 65.96484375 C-0.04679226 69.83367848 -4.66547867 71.99094053 -10.3046875 73.71484375 C-10.91828125 73.90433594 -11.531875 74.09382813 -12.1640625 74.2890625 C-22.70014773 76.38474369 -32.94054433 74.93200923 -42.3046875 69.71484375 C-51.41596281 63.19056489 -59.30968246 54.01442148 -61.3046875 42.71484375 C-62.4248138 31.0281927 -61.34609036 20.74550421 -54.28515625 10.8984375 C-49.64787364 5.44902133 -44.57824608 1.15225469 -38.3046875 -2.28515625 C-37.70527344 -2.62417969 -37.10585937 -2.96320312 -36.48828125 -3.3125 C-25.38196967 -8.51783394 -10.34715913 -5.76985653 0 0 Z " fill="#FCFBFC" transform="translate(131.3046875,51.28515625)"/>
<path d="M0 0 C11.41794167 -0.43852692 19.32446296 -0.39607754 28.25 7.125 C35.0807516 13.63705401 39.04700313 20.57448037 39.3125 30.0625 C39.19035762 39.22317853 36.202901 46.67667231 29.85546875 53.28125 C20.6770449 61.78336894 12.29010678 62.30682652 0 62 C-0.33 61.34 -0.66 60.68 -1 60 C-0.50371094 59.731875 -0.00742188 59.46375 0.50390625 59.1875 C9.84147692 53.80112147 14.63743463 47.34437982 17.55078125 37.0546875 C19.26954012 29.1932339 18.01396684 21.92543078 14 15 C9.65706277 9.20667007 5.66789666 4.9880632 -1 2 C-0.67 1.34 -0.34 0.68 0 0 Z " fill="#5B5566" transform="translate(103,55)"/>
<path d="M0 0 C0.66 0.33 1.32 0.66 2 1 C1.01 2.485 1.01 2.485 0 4 C0.66 4.66 1.32 5.32 2 6 C-0.64 6.99 -3.28 7.98 -6 9 C-4.86634892 4.46539569 -3.35806626 3.09975347 0 0 Z " fill="#645E6C" transform="translate(142,110)"/>
<path d="M0 0 C0.33 1.32 0.66 2.64 1 4 C-0.98 4 -2.96 4 -5 4 C-5.33 3.34 -5.66 2.68 -6 2 C-2.25 0 -2.25 0 0 0 Z " fill="#65616A" transform="translate(108,113)"/>
<path d="M0 0 C1.98 0 3.96 0 6 0 C5.34 1.32 4.68 2.64 4 4 C1.525 3.01 1.525 3.01 -1 2 C-0.67 1.34 -0.34 0.68 0 0 Z " fill="#64616C" transform="translate(103,55)"/>
</svg>
