<?xml version="1.0" encoding="UTF-8"?>
<svg version="1.1" xmlns="http://www.w3.org/2000/svg" width="162" height="157">
<path d="M0 0 C1.8394519 0.01039307 1.8394519 0.01039307 3.71606445 0.02099609 C17.29493213 0.34586227 28.58628324 3.98959848 39.25 12.625 C40.06855469 13.28242188 40.88710937 13.93984375 41.73046875 14.6171875 C56.65937933 27.3101493 63.81859066 42.79221624 65.5703125 62.16796875 C66.17692977 80.06317811 59.24142654 96.54747383 47.25 109.625 C35.35852657 122.09149633 19.76801266 129.38550591 2.54882812 130.09375 C-16.13073537 130.3476778 -32.18987777 123.570463 -45.68847656 110.83374023 C-58.22976661 98.43951834 -64.93740343 82.37854201 -65.1875 64.8125 C-65.06027613 46.15952273 -57.53895658 30.75678324 -44.66015625 17.46875 C-31.96172253 5.528089 -17.32243604 -0.15963183 0 0 Z " fill="#0A6CC1" transform="translate(86.75,18.375)"/>
<path d="M0 0 C2.70238949 4.05358424 2.22937614 6.18310104 2 11 C1.67 11.66 1.34 12.32 1 13 C1.94875 12.9175 2.8975 12.835 3.875 12.75 C12.24178323 12.78380518 20.02334468 17.44581096 26 23 C33.22262198 30.42940462 37.08489255 39.22308023 37.4375 49.625 C36.93932691 60.82585938 32.41700198 71.23462882 24.125 78.875 C19.26741022 82.77957693 14.85378081 85.89807926 8.5 86.125 C1.4062214 83.84485688 -3.67938205 78.94084968 -8 73 C-8 72.34 -8 71.68 -8 71 C-7.20335938 70.90203125 -6.40671875 70.8040625 -5.5859375 70.703125 C2.20500492 69.60367327 7.32070885 68.47583717 12.3125 62 C15.25102699 56.77595202 15.87701006 51.90938384 14.5390625 45.9453125 C12.84641309 40.66822905 10.58628713 38.08872398 6 35 C4.05932496 34.06797713 4.05932496 34.06797713 2 34 C0.26051683 35.32127363 0.26051683 35.32127363 -1.25 37.25 C-7.49695792 43.86519965 -14.75735209 44.41356515 -23.43359375 45.52734375 C-28.3234359 46.17539512 -33.15694904 47.07092492 -38 48 C-37.76640703 38.01920964 -34.78994209 30.6765916 -28 23.3125 C-23.52670581 19.04830804 -18.58806486 16.57780065 -13.1015625 13.828125 C-7.35960789 10.44369835 -3.64798699 5.47198049 0 0 Z " fill="#F7FCFD" transform="translate(88,34)"/>
<path d="M0 0 C5.90296579 1.26492124 8.72749687 4.16238668 12 9 C14.59403605 14.65971503 14.78011798 19.65964605 12.8125 25.5625 C10.16878798 30.57643659 7.70984603 34.01355037 2.75 36.875 C-1.65742459 38.19722738 -5.44343109 38.27897361 -10 38 C-7.75421558 41.40739705 -5.48862878 44.76478258 -3 48 C-5.475 48.495 -5.475 48.495 -8 49 C-7.67 50.65 -7.34 52.3 -7 54 C-17.01518385 53.4436009 -24.49295257 49.35154675 -31.3125 42.05078125 C-35.6518266 36.77729406 -39 30.91509007 -39 24 C-36.93950145 23.18243762 -34.87651147 22.37115266 -32.8125 21.5625 C-31.66394531 21.11003906 -30.51539063 20.65757813 -29.33203125 20.19140625 C-26.52876767 19.18906699 -23.92887424 18.47987205 -21 18 C-20.67 17.01 -20.34 16.02 -20 15 C-20.95865509 12.66924071 -20.95865509 12.66924071 -24 11 C-23.20335938 10.89042969 -22.40671875 10.78085938 -21.5859375 10.66796875 C-12.02096616 9.23671391 -6.59746541 7.06871294 0 0 Z " fill="#0A6DC2" transform="translate(90,67)"/>
<path d="M0 0 C-0.2165625 0.60585937 -0.433125 1.21171875 -0.65625 1.8359375 C-3.63227409 10.79156554 -4.51066267 18.24532287 -0.22265625 26.8828125 C1.6402432 30.10866395 3.73486477 33.04274012 6 36 C-4.01518385 35.4436009 -11.49295257 31.35154675 -18.3125 24.05078125 C-22.6518266 18.77729406 -26 12.91509007 -26 6 C-17.17850619 2.25293915 -9.57396575 0 0 0 Z " fill="#F4FBFC" transform="translate(77,85)"/>
<path d="M0 0 C0.33 0 0.66 0 1 0 C1.042721 1.66611905 1.04063832 3.33382885 1 5 C0.67 5.33 0.34 5.66 0 6 C-0.23427778 8.01594582 -0.41336124 10.038474 -0.5625 12.0625 C-0.68818359 13.71958984 -0.68818359 13.71958984 -0.81640625 15.41015625 C-0.87699219 16.26480469 -0.93757813 17.11945313 -1 18 C-0.34 18 0.32 18 1 18 C1.66 20.64 2.32 23.28 3 26 C4.32 26.33 5.64 26.66 7 27 C6.319375 26.4225 5.63875 25.845 4.9375 25.25 C4.298125 24.5075 3.65875 23.765 3 23 C3.37890625 20.859375 3.37890625 20.859375 4 19 C5.16962686 20.30986273 6.33562944 21.6229626 7.5 22.9375 C8.1496875 23.66839844 8.799375 24.39929688 9.46875 25.15234375 C11 27 11 27 11 28 C9.35 28.33 7.7 28.66 6 29 C6.33 30.32 6.66 31.64 7 33 C1.31806998 29.21204665 -0.90101751 24.29694748 -3 18 C-3.62197971 11.26587355 -2.73634986 6.15678719 0 0 Z " fill="#2573B4" transform="translate(76,87)"/>
<path d="M0 0 C-0.2381516 4.12796115 -0.39660892 6.34632633 -3.25 9.4375 C-6.1811251 11.10291199 -7.6946094 11.37775893 -11 11 C-10.8632205 8.05924078 -10.66978103 5.80249306 -8.73828125 3.48828125 C-5.58250216 0.71405732 -4.29029965 0 0 0 Z " fill="#166DBA" transform="translate(72,61)"/>
<path d="M0 0 C0.33 0 0.66 0 1 0 C4.24832002 14.21140009 3.31383386 26.24965457 -1 40 C-1.33 40 -1.66 40 -2 40 C-2 37.69 -2 35.38 -2 33 C-1.34 33 -0.68 33 0 33 C-0.495 31.515 -0.495 31.515 -1 30 C-1.66 30.33 -2.32 30.66 -3 31 C-3 30.01 -3 29.02 -3 28 C-2.34 28 -1.68 28 -1 28 C-0.13961215 14.01101606 -0.13961215 14.01101606 0 0 Z " fill="#1168B0" transform="translate(149,66)"/>
<path d="M0 0 C1.23492187 -0.00257812 2.46984375 -0.00515625 3.7421875 -0.0078125 C5.01835938 -0.00007813 6.29453125 0.00765625 7.609375 0.015625 C8.90101562 0.00789063 10.19265625 0.00015625 11.5234375 -0.0078125 C12.75320312 -0.00523438 13.98296875 -0.00265625 15.25 0 C16.93657715 0.00338379 16.93657715 0.00338379 18.65722656 0.00683594 C21.359375 0.265625 21.359375 0.265625 23.359375 2.265625 C21.95860718 2.30320923 21.95860718 2.30320923 20.52954102 2.34155273 C17.07612311 2.43649428 13.6228854 2.53573758 10.16967773 2.63793945 C8.67298231 2.68134313 7.17623561 2.72301413 5.67944336 2.76293945 C3.53223188 2.82051116 1.38527979 2.88424216 -0.76171875 2.94921875 C-2.70195923 3.00420532 -2.70195923 3.00420532 -4.68139648 3.06030273 C-7.52617508 2.9323528 -7.52617508 2.9323528 -8.640625 4.265625 C-10.97359933 4.30655437 -13.30767725 4.30804223 -15.640625 4.265625 C-10.55782781 0.87709354 -6.05303566 0.0120957 0 0 Z " fill="#1C63A4" transform="translate(79.640625,18.734375)"/>
<path d="M0 0 C3.92683725 0.37758051 5.42346736 1.65223399 8.25 4.3125 C7.115625 4.621875 5.98125 4.93125 4.8125 5.25 C1.46224901 5.94174531 1.46224901 5.94174531 0.25 7.3125 C-7.94402985 7.58115672 -7.94402985 7.58115672 -11.75 6.3125 C-11.75 5.6525 -11.75 4.9925 -11.75 4.3125 C-6.8 5.3025 -6.8 5.3025 -1.75 6.3125 C-1.75 4.9925 -1.75 3.6725 -1.75 2.3125 C-2.41 1.9825 -3.07 1.6525 -3.75 1.3125 C-2.75 0.3125 -2.75 0.3125 0 0 Z " fill="#166FBB" transform="translate(84.75,114.6875)"/>
<path d="M0 0 C0 0.99 0 1.98 0 3 C-3.6922906 6.6922906 -7.06128619 7.83794969 -12 9 C-11.01 10.485 -11.01 10.485 -10 12 C-11.32 12.33 -12.64 12.66 -14 13 C-13.34 13.66 -12.68 14.32 -12 15 C-13.65 15 -15.3 15 -17 15 C-16.814375 14.38125 -16.62875 13.7625 -16.4375 13.125 C-15.76313824 10.95839822 -15.76313824 10.95839822 -17 9 C-17.99 8.34 -18.98 7.68 -20 7 C-18.80503906 6.83564453 -18.80503906 6.83564453 -17.5859375 6.66796875 C-7.9395111 5.31110078 -7.9395111 5.31110078 0 0 Z " fill="#2877BC" transform="translate(86,71)"/>
<path d="M0 0 C5.90296579 1.26492124 8.72749687 4.16238668 12 9 C14.02647862 13.4214079 14.19332345 17.16691387 14 22 C13.67 22 13.34 22 13 22 C12.67 19.36 12.34 16.72 12 14 C11.34 14 10.68 14 10 14 C9.70996094 13.16855469 9.70996094 13.16855469 9.4140625 12.3203125 C9.15367188 11.59585938 8.89328125 10.87140625 8.625 10.125 C8.36976562 9.40570313 8.11453125 8.68640625 7.8515625 7.9453125 C7.06122217 5.81842006 7.06122217 5.81842006 5 4 C2.31160615 3.73008094 -0.29141936 3.91262643 -3 4 C-2.01 2.68 -1.02 1.36 0 0 Z " fill="#2771B1" transform="translate(90,67)"/>
<path d="M0 0 C0.33 0 0.66 0 1 0 C1 1.65 1 3.3 1 5 C0.34 5 -0.32 5 -1 5 C-0.979375 6.134375 -0.95875 7.26875 -0.9375 8.4375 C-1 12 -1 12 -2 13 C-2.400383 15.85528607 -2.7518227 18.69736487 -3.0625 21.5625 C-3.15337891 22.36880859 -3.24425781 23.17511719 -3.33789062 24.00585938 C-3.56247449 26.00347377 -3.78173236 28.0016856 -4 30 C-4.33 30 -4.66 30 -5 30 C-6.96832368 19.70909034 -5.10824002 9.22256909 0 0 Z " fill="#1867A3" transform="translate(28,55)"/>
<path d="M0 0 C0.66 1.32 1.32 2.64 2 4 C2.66 3.67 3.32 3.34 4 3 C4.05821935 6.89577024 4.0936703 10.79142802 4.125 14.6875 C4.14175781 15.79029297 4.15851563 16.89308594 4.17578125 18.02929688 C4.18222656 19.09599609 4.18867187 20.16269531 4.1953125 21.26171875 C4.20578613 22.24100342 4.21625977 23.22028809 4.22705078 24.22924805 C3.98597685 27.17112772 3.23055542 29.33237726 2 32 C0.98587591 28.84494729 1.21048406 27.15806378 2 24 C2.62356992 16.70902866 1.58412963 10.33979046 -0.44140625 3.3359375 C-0.62574219 2.56507812 -0.81007813 1.79421875 -1 1 C-0.67 0.67 -0.34 0.34 0 0 Z " fill="#2070B5" transform="translate(122,65)"/>
<path d="M0 0 C0.598125 0.226875 1.19625 0.45375 1.8125 0.6875 C0.29979451 4.14058687 -1.73470642 6.64374379 -4.25 9.4375 C-5.31927734 10.63632812 -5.31927734 10.63632812 -6.41015625 11.859375 C-6.99667969 12.46265625 -7.58320312 13.0659375 -8.1875 13.6875 C-8.5175 13.6875 -8.8475 13.6875 -9.1875 13.6875 C-9.1875 11.7075 -9.1875 9.7275 -9.1875 7.6875 C-7.8675 7.6875 -6.5475 7.6875 -5.1875 7.6875 C-5.249375 6.924375 -5.31125 6.16125 -5.375 5.375 C-5.1875 2.6875 -5.1875 2.6875 -3.9375 0.8125 C-2.1875 -0.3125 -2.1875 -0.3125 0 0 Z " fill="#1F72BC" transform="translate(63.1875,51.3125)"/>
<path d="M0 0 C4.38316245 3.91408717 6.83083869 7.92289654 9.375 13.1875 C9.74238281 13.91130859 10.10976562 14.63511719 10.48828125 15.38085938 C11.39552276 17.22101903 12.20628354 19.10809913 13 21 C12.67 21.66 12.34 22.32 12 23 C11.67 21.68 11.34 20.36 11 19 C10.34 19 9.68 19 9 19 C8.5875 17.948125 8.175 16.89625 7.75 15.8125 C6.6695288 13.25726241 5.74057984 11.68555132 3.9375 9.5 C1.50847168 6.36576991 0.90248475 3.8355602 0 0 Z " fill="#1867A5" transform="translate(136,41)"/>
<path d="M0 0 C1.85625 0.061875 1.85625 0.061875 3.75 0.125 C4.41 1.445 5.07 2.765 5.75 4.125 C4.76 5.61 4.76 5.61 3.75 7.125 C2.43 7.125 1.11 7.125 -0.25 7.125 C0.08 5.805 0.41 4.485 0.75 3.125 C-2.22 2.795 -5.19 2.465 -8.25 2.125 C-4.63863788 0.31931894 -3.705469 -0.12351563 0 0 Z " fill="#146CBB" transform="translate(65.25,78.875)"/>
<path d="M0 0 C2.31 0 4.62 0 7 0 C7 0.99 7 1.98 7 3 C11.99367864 3.7282448 16.99109914 4.38487182 22 5 C22 5.66 22 6.32 22 7 C22.66 7.33 23.32 7.66 24 8 C15.30799763 6.96743943 7.93186711 4.68466167 0 1 C0 0.67 0 0.34 0 0 Z " fill="#1664A4" transform="translate(57,140)"/>
<path d="M0 0 C0.33 0.66 0.66 1.32 1 2 C1.66 2 2.32 2 3 2 C3 3.65 3 5.3 3 7 C-0.21451269 8.60725635 -3.43612536 8.05748185 -7 8 C-6.34 7.67 -5.68 7.34 -5 7 C-5 6.34 -5 5.68 -5 5 C-3.37446717 3.29319053 -1.70884005 1.62339805 0 0 Z " fill="#176CB6" transform="translate(88,97)"/>
<path d="M0 0 C0.33 0.66 0.66 1.32 1 2 C1.66 2.33 2.32 2.66 3 3 C1.2097939 3.67057887 -0.58221489 4.3363469 -2.375 5 C-3.37273438 5.37125 -4.37046875 5.7425 -5.3984375 6.125 C-8 7 -8 7 -10 7 C-10.33 5.35 -10.66 3.7 -11 2 C-7.7 2.33 -4.4 2.66 -1 3 C-0.67 2.01 -0.34 1.02 0 0 Z " fill="#186EB9" transform="translate(61,84)"/>
<path d="M0 0 C0.33 0 0.66 0 1 0 C3.11332544 9.24579882 5.36847339 20.26305323 1 29 C0.67 19.43 0.34 9.86 0 0 Z " fill="#1C659E" transform="translate(149,66)"/>
<path d="M0 0 C0.33 0 0.66 0 1 0 C1 1.98 1 3.96 1 6 C1.66 6.33 2.32 6.66 3 7 C3.33 6.34 3.66 5.68 4 5 C4 5.66 4 6.32 4 7 C9.445 6.505 9.445 6.505 15 6 C15 6.33 15 6.66 15 7 C7.08 8.485 7.08 8.485 -1 10 C-0.67 6.7 -0.34 3.4 0 0 Z " fill="#CEEEFA" transform="translate(51,72)"/>
<path d="M0 0 C0 1.32 0 2.64 0 4 C-0.804375 4.28875 -1.60875 4.5775 -2.4375 4.875 C-5.1326468 5.73262568 -5.1326468 5.73262568 -6 8 C-8.3140622 8.73075648 -10.64828869 9.40138258 -13 10 C-10.15074359 6.01104102 -5.37644015 0 0 0 Z " fill="#1668AC" transform="translate(54,28)"/>
<path d="M0 0 C4.18423892 3.50897269 8.19588166 7.08060535 12 11 C9.5625 10.625 9.5625 10.625 7 10 C6.67 9.34 6.34 8.68 6 8 C5.01 7.67 4.02 7.34 3 7 C3 6.34 3 5.68 3 5 C2.34 5 1.68 5 1 5 C0.67 3.35 0.34 1.7 0 0 Z " fill="#246FB1" transform="translate(56,106)"/>
<path d="M0 0 C-0.49230769 6.52307692 -0.49230769 6.52307692 -3.0625 8.9375 C-3.701875 9.288125 -4.34125 9.63875 -5 10 C-5 8.68 -5 7.36 -5 6 C-4.34 5.67 -3.68 5.34 -3 5 C-2.67 4.01 -2.34 3.02 -2 2 C-3.32 2.33 -4.64 2.66 -6 3 C-6 2.34 -6 1.68 -6 1 C-4 0 -4 0 0 0 Z " fill="#3676B1" transform="translate(72,61)"/>
<path d="M0 0 C0.66 0.33 1.32 0.66 2 1 C0.54540569 2.64913882 -0.91379257 4.29421782 -2.375 5.9375 C-3.18710938 6.85402344 -3.99921875 7.77054688 -4.8359375 8.71484375 C-7 11 -7 11 -9 12 C-7.55575365 8.76138697 -5.74227753 6.38030837 -3.375 3.75 C-2.74335938 3.04359375 -2.11171875 2.3371875 -1.4609375 1.609375 C-0.97882813 1.07828125 -0.49671875 0.5471875 0 0 Z " fill="#2069A4" transform="translate(137,121)"/>
<path d="M0 0 C3.92297846 0.56340648 6.49080356 1.70090379 9.75 3.9375 C10.52859375 4.46214844 11.3071875 4.98679687 12.109375 5.52734375 C14 7 14 7 15 9 C12 9 12 9 10.5703125 7.62890625 C10.05210938 7.09136719 9.53390625 6.55382812 9 6 C6.9989752 4.87448327 6.9989752 4.87448327 4.875 3.9375 C1.11032028 2.22064057 1.11032028 2.22064057 0 0 Z " fill="#1865A6" transform="translate(112,24)"/>
<path d="M0 0 C0.66 0 1.32 0 2 0 C2 3.63 2 7.26 2 11 C3.65 11.33 5.3 11.66 7 12 C7 12.33 7 12.66 7 13 C4.69 13 2.38 13 0 13 C0 8.71 0 4.42 0 0 Z " fill="#3678B4" transform="translate(89,34)"/>
<path d="M0 0 C0.33 0.99 0.66 1.98 1 3 C1.66 3 2.32 3 3 3 C4.17571451 6.67410785 4.07366746 10.16929183 4 14 C1.01520806 9.52281208 0 5.36175907 0 0 Z " fill="#1465A2" transform="translate(23,93)"/>
<path d="M0 0 C1.46726798 3.81489674 0.43336419 6.29011622 -1 10 C-1.99 10 -2.98 10 -4 10 C-2.8905928 6.51329166 -1.73662334 3.22515763 0 0 Z " fill="#2272B7" transform="translate(122,97)"/>
<path d="M0 0 C2.64752004 2.57784846 4.94432065 4.91648098 7 8 C4.36 7.67 1.72 7.34 -1 7 C-0.01 6.34 0.98 5.68 2 5 C1.34 3.35 0.68 1.7 0 0 Z " fill="#C9EBFA" transform="translate(76,113)"/>
<path d="M0 0 C0.99 0 1.98 0 3 0 C1.44499019 3.81684226 -1.03595495 6.19195732 -4 9 C-4 7.68 -4 6.36 -4 5 C-3.01 5 -2.02 5 -1 5 C-0.67 3.35 -0.34 1.7 0 0 Z " fill="#D8F2FC" transform="translate(116,103)"/>
<path d="M0 0 C0.99 0.66 1.98 1.32 3 2 C2.34 3.32 1.68 4.64 1 6 C-0.65 5.67 -2.3 5.34 -4 5 C-4 4.34 -4 3.68 -4 3 C-2.68 3.33 -1.36 3.66 0 4 C0 2.68 0 1.36 0 0 Z " fill="#106CB6" transform="translate(35,112)"/>
<path d="M0 0 C2.67927341 4.01891012 2.15601248 6.24161923 2 11 C1.67 11 1.34 11 1 11 C0.896875 10.21625 0.79375 9.4325 0.6875 8.625 C0.22404978 5.66954819 0.22404978 5.66954819 -3 4 C-2.01 2.68 -1.02 1.36 0 0 Z " fill="#D0EEFB" transform="translate(88,34)"/>
<path d="M0 0 C0 0.99 0 1.98 0 3 C0.66 3.33 1.32 3.66 2 4 C1.01 4.495 1.01 4.495 0 5 C-2.03144641 4.06553465 -4.03533587 3.06775224 -6 2 C-3 0 -3 0 0 0 Z " fill="#2174BA" transform="translate(108,48)"/>
<path d="M0 0 C0 0.66 0 1.32 0 2 C-0.66 2 -1.32 2 -2 2 C-2 2.66 -2 3.32 -2 4 C-2.99 4.33 -3.98 4.66 -5 5 C-5.66 4.34 -6.32 3.68 -7 3 C-2.25 0 -2.25 0 0 0 Z " fill="#1363A8" transform="translate(61,24)"/>
<path d="M0 0 C0.33 0.66 0.66 1.32 1 2 C-2.6441774 4.4294516 -4.71241272 4.16179575 -9 4 C-6.01353231 2.00902154 -3.40312738 1.05875074 0 0 Z " fill="#0F65A7" transform="translate(73,19)"/>
</svg>
