<?xml version="1.0" encoding="UTF-8"?>
<svg version="1.1" xmlns="http://www.w3.org/2000/svg" width="146" height="181">
<path d="M0 0 C1.501073 0.00858032 1.501073 0.00858032 3.0324707 0.01733398 C19.56596277 0.41247739 34.38755022 7.51921958 46.3671875 18.86328125 C60.48115705 34.48119838 64.62119188 52.24654034 63.92919922 72.80664062 C62.91145506 88.10330765 54.37011981 102.21026806 43.5078125 112.65625 C28.11501748 125.7779769 11.14387403 129.67402899 -8.65332031 128.71142578 C-24.90454615 127.38822518 -39.99744758 118.12198457 -50.4375 105.875 C-62.36627348 90.13095079 -65.94189104 72.95088595 -64.25 53.5 C-63.41469817 48.88460346 -62.1031218 44.80085901 -60.25 40.5 C-59.82589844 39.48808594 -59.40179688 38.47617188 -58.96484375 37.43359375 C-52.01262961 22.27040804 -40.53218422 11.31968758 -25.30859375 4.5703125 C-16.81448493 1.59791682 -9.02146178 -0.06070143 0 0 Z " fill="#F3D23D" transform="translate(70.25,28.5)"/>
<path d="M0 0 C10.56 0 21.12 0 32 0 C32.86625 2.92875 33.7325 5.8575 34.625 8.875 C36.96931139 16.76058922 39.46750845 24.5789009 42.17041016 32.34912109 C43.20206285 35.35828108 44 37.79428793 44 41 C37.55929529 41.10655578 31.37358711 40.96205088 25 40 C25.25394531 40.75023437 25.50789063 41.50046875 25.76953125 42.2734375 C27.43411816 47.22355739 29.06826737 52.16457062 30.5 57.1875 C31.71604228 61.37609007 33.37637897 65.19342324 35.328125 69.08984375 C36 71 36 71 35 74 C32.9758623 72.00325664 30.95570237 70.00272875 28.9375 68 C28.37611328 67.44699219 27.81472656 66.89398438 27.23632812 66.32421875 C24.26842611 63.37327617 21.42335234 60.37346836 18.69921875 57.1953125 C14.35097876 52.16248697 9.61032386 47.54037816 4.875 42.875 C-4.90479876 33.23839009 -4.90479876 33.23839009 -7.9921875 29.4453125 C-9.76483402 26.94780384 -9.76483402 26.94780384 -12 26 C-12 25.34 -12 24.68 -12 24 C-4.74 24 2.52 24 10 24 C7.46044962 18.34500623 7.46044962 18.34500623 4.91455078 12.69287109 C4.59470215 11.97695801 4.27485352 11.26104492 3.9453125 10.5234375 C3.62062988 9.80075684 3.29594727 9.07807617 2.96142578 8.33349609 C1.83839545 5.60776631 0.9322446 2.79673381 0 0 Z " fill="#FEFDF6" transform="translate(49,58)"/>
<path d="M0 0 C2.52259061 1.97420135 2.9929808 2.96745642 3.6875 6.1875 C3.790625 7.115625 3.89375 8.04375 4 9 C4.66 9 5.32 9 6 9 C6 10.98 6 12.96 6 15 C2.6273132 15 -0.697243 14.78870652 -4.0625 14.5625 C-5.31160156 14.48128906 -6.56070313 14.40007812 -7.84765625 14.31640625 C-11 14 -11 14 -13 13 C-12.649375 14.0725 -12.29875 15.145 -11.9375 16.25 C-11.05319814 19.78720743 -10.97119449 20.74811124 -12 24 C-12.50559908 22.56445975 -13.0042749 21.1264798 -13.5 19.6875 C-13.91765625 18.48673828 -13.91765625 18.48673828 -14.34375 17.26171875 C-15 15 -15 15 -15 12 C-8.73 12.33 -2.46 12.66 4 13 C3.34 11.22625 2.68 9.4525 2 7.625 C0 2.25 0 2.25 0 0 Z " fill="#ECD562" transform="translate(89,86)"/>
<path d="M0 0 C5.12360457 7.68540686 5.28718394 16.21295808 5.3125 25.1875 C5.31781738 26.1256958 5.32313477 27.0638916 5.32861328 28.03051758 C5.27170229 33.67918346 4.59860301 38.58003523 3 44 C2.67 44 2.34 44 2 44 C2.15984375 42.71996094 2.3196875 41.43992188 2.484375 40.12109375 C3.03970928 35.09453085 3.21828661 30.11682188 3.25 25.0625 C3.270625 24.21365234 3.29125 23.36480469 3.3125 22.49023438 C3.32023438 21.2749707 3.32023438 21.2749707 3.328125 20.03515625 C3.3374707 19.3069165 3.34681641 18.57867676 3.35644531 17.82836914 C3.23881836 17.22500732 3.12119141 16.62164551 3 16 C2.01 15.34 1.02 14.68 0 14 C0.185625 12.865625 0.37125 11.73125 0.5625 10.5625 C0.706875 9.386875 0.85125 8.21125 1 7 C0.67 6.67 0.34 6.34 0 6 C-0.04080783 4.00041636 -0.04254356 1.99954746 0 0 Z " fill="#E7D161" transform="translate(129,68)"/>
<path d="M0 0 C7.26 0 14.52 0 22 0 C22 0.66 22 1.32 22 2 C16.06 2 10.12 2 4 2 C4.99 2.99 5.98 3.98 7 5 C6.67 5.66 6.34 6.32 6 7 C3.95880212 5.38405168 1.95927063 3.7143618 0 2 C0 1.34 0 0.68 0 0 Z " fill="#FCF3C0" transform="translate(37,82)"/>
<path d="M0 0 C0.66 0 1.32 0 2 0 C0.42903279 5.02709507 -2.61993049 9.02866469 -6 13 C-6.33 13 -6.66 13 -7 13 C-6.67 10.69 -6.34 8.38 -6 6 C-4.68 6 -3.36 6 -2 6 C-1.34 4.02 -0.68 2.04 0 0 Z " fill="#E9D455" transform="translate(125,122)"/>
<path d="M0 0 C3.51233939 5.26850908 4.25153688 9.71157812 4 16 C2.68 15.34 1.36 14.68 0 14 C0.185625 12.865625 0.37125 11.73125 0.5625 10.5625 C0.706875 9.386875 0.85125 8.21125 1 7 C0.67 6.67 0.34 6.34 0 6 C-0.04080783 4.00041636 -0.04254356 1.99954746 0 0 Z " fill="#EED455" transform="translate(129,68)"/>
<path d="M0 0 C3.05001831 3.66002197 7 9.07851471 7 14 C5 14 5 14 3.5 12.9375 C0.5130993 9.07941993 0 4.7635961 0 0 Z " fill="#EDD55D" transform="translate(48,58)"/>
<path d="M0 0 C1.80125336 2.70188004 3.00243753 4.93057703 4 8 C3.67 8.99 3.34 9.98 3 11 C0.69 8.69 -1.62 6.38 -4 4 C-3.34 3.67 -2.68 3.34 -2 3 C-1.34 3.33 -0.68 3.66 0 4 C0 2.68 0 1.36 0 0 Z " fill="#FDF3BA" transform="translate(81,121)"/>
<path d="M0 0 C1.485 0.99 1.485 0.99 3 2 C3.51171875 4.6015625 3.51171875 4.6015625 3.6875 7.625 C3.75324219 8.62789062 3.81898437 9.63078125 3.88671875 10.6640625 C3.92410156 11.43492188 3.96148437 12.20578125 4 13 C0.90576832 9.90576832 0.06293995 6.4476188 -0.125 2.125 C-0.08375 1.42375 -0.0425 0.7225 0 0 Z M4 0 C4.33 0.66 4.66 1.32 5 2 C4.34 1.67 3.68 1.34 3 1 C3.33 0.67 3.66 0.34 4 0 Z " fill="#EED55F" transform="translate(82,61)"/>
<path d="M0 0 C3.39417765 3.12621626 5.6062718 5.56541027 7 10 C6.01 9.67 5.02 9.34 4 9 C3.67 8.34 3.34 7.68 3 7 C2.01 6.67 1.02 6.34 0 6 C0 4.02 0 2.04 0 0 Z " fill="#F1DA5D" transform="translate(117,49)"/>
<path d="M0 0 C3.45281166 1.15093722 4.38082163 2.3205993 6.6875 5.0625 C7.31011719 5.79597656 7.93273438 6.52945313 8.57421875 7.28515625 C9.04472656 7.85105469 9.51523437 8.41695312 10 9 C9.01 9 8.02 9 7 9 C6.67 8.01 6.34 7.02 6 6 C4.08333333 4.83333333 4.08333333 4.83333333 2 4 C1.34 3.67 0.68 3.34 0 3 C0 2.01 0 1.02 0 0 Z " fill="#EDD45E" transform="translate(37,84)"/>
<path d="M0 0 C0.66 0.33 1.32 0.66 2 1 C-1.17320782 4.53586014 -3.16743695 6.58578031 -8 7 C-5.42215154 4.35247996 -3.08351902 2.05567935 0 0 Z " fill="#ECD458" transform="translate(37,37)"/>
<path d="M0 0 C3.77545388 1.09068668 6.47043472 1.9083091 9 5 C7.6078125 4.7215625 7.6078125 4.7215625 6.1875 4.4375 C2.98656229 3.75876119 2.98656229 3.75876119 0 5 C0 3.35 0 1.7 0 0 Z " fill="#F0D458" transform="translate(95,34)"/>
<path d="M0 0 C2.97 0.495 2.97 0.495 6 1 C6.33 1.99 6.66 2.98 7 4 C7.66 4 8.32 4 9 4 C9 4.66 9 5.32 9 6 C5.06326356 4.68775452 2.77280706 3.08089673 0 0 Z " fill="#ECD45E" transform="translate(30,143)"/>
<path d="M0 0 C4.455 2.97 4.455 2.97 9 6 C6.50907189 7.24546405 5.58919267 6.7767578 3 6 C3 5.34 3 4.68 3 4 C2.34 4 1.68 4 1 4 C0.67 2.68 0.34 1.36 0 0 Z " fill="#EBD561" transform="translate(105,39)"/>
<path d="M0 0 C0.66 0 1.32 0 2 0 C3.42944945 2.35438733 4.08661261 3.48032433 3.625 6.25 C3.41875 6.8275 3.2125 7.405 3 8 C1.0549 5.08235 0.54723683 3.37462715 0 0 Z " fill="#FDF9D5" transform="translate(57,75)"/>
</svg>
