<?xml version="1.0" encoding="UTF-8"?>
<svg version="1.1" xmlns="http://www.w3.org/2000/svg" width="179" height="175">
<path d="M0 0 C12.1127755 9.63578096 21.49620673 25.82594201 23.30395508 41.26660156 C23.46084558 44.08412482 23.50717756 46.87354255 23.48828125 49.6953125 C23.48256104 50.69796143 23.47684082 51.70061035 23.47094727 52.73364258 C23.08364282 69.03303088 16.89004767 85.07895182 4.98828125 96.5703125 C-9.94907243 110.4268558 -26.88309163 115.46457869 -46.87109375 114.91796875 C-63.2420072 114.07897447 -77.91242973 106.03225435 -89.16796875 94.328125 C-102.20449205 79.03528036 -106.23279841 61.75365093 -105.22314453 42.05273438 C-103.84275982 25.84516883 -94.60555577 10.79887029 -82.38671875 0.3828125 C-57.09097348 -18.81242277 -25.5470889 -18.15579521 0 0 Z " fill="#EA90E5" transform="translate(130.01171875,43.4296875)"/>
<path d="M0 0 C0.66 0 1.32 0 2 0 C6.29 7.92 10.58 15.84 15 24 C17.31 23.34 19.62 22.68 22 22 C23.32 22 24.64 22 26 22 C25.34 25.96 24.68 29.92 24 34 C25.65 34.66 27.3 35.32 29 36 C30.55925383 36.77229913 32.10747389 37.56723104 33.64453125 38.3828125 C34.48564453 38.82753906 35.32675781 39.27226563 36.19335938 39.73046875 C37.05767578 40.19066406 37.92199219 40.65085938 38.8125 41.125 C39.69615234 41.59292969 40.57980469 42.06085938 41.49023438 42.54296875 C43.66135525 43.69307603 45.8312226 44.84548146 48 46 C48 46.66 48 47.32 48 48 C45.39121778 49.42297212 42.7822069 50.84549625 40.171875 52.265625 C38.07331147 53.4131154 35.97945009 54.56925146 33.890625 55.734375 C32.91609375 56.27578125 31.9415625 56.8171875 30.9375 57.375 C30.03902344 57.87773438 29.14054687 58.38046875 28.21484375 58.8984375 C26 60 26 60 24 60 C24.495 61.85625 24.495 61.85625 25 63.75 C25.79891159 66.74591845 26 68.80107719 26 72 C21.97007218 71.44687265 17.97977076 70.8441938 14 70 C13.71914551 70.72920654 13.43829102 71.45841309 13.14892578 72.2097168 C12.09074963 74.77960528 10.91899064 77.19113303 9.6171875 79.64453125 C9.17246094 80.48564453 8.72773437 81.32675781 8.26953125 82.19335938 C7.80933594 83.05767578 7.34914062 83.92199219 6.875 84.8125 C6.40707031 85.69615234 5.93914062 86.57980469 5.45703125 87.49023438 C4.30692397 89.66135525 3.15451854 91.8312226 2 94 C1.34 94 0.68 94 0 94 C-0.36351562 93.24976563 -0.72703125 92.49953125 -1.1015625 91.7265625 C-4.10435375 85.61318748 -7.26274774 79.72210743 -10.8984375 73.9609375 C-12 72 -12 72 -12 70 C-17.94 70.99 -17.94 70.99 -24 72 C-23.01 66.06 -23.01 66.06 -22 60 C-23.65 59.34 -25.3 58.68 -27 58 C-28.55925383 57.22770087 -30.10747389 56.43276896 -31.64453125 55.6171875 C-32.48564453 55.17246094 -33.32675781 54.72773437 -34.19335938 54.26953125 C-35.05767578 53.80933594 -35.92199219 53.34914062 -36.8125 52.875 C-37.69615234 52.40707031 -38.57980469 51.93914062 -39.49023438 51.45703125 C-41.66135525 50.30692397 -43.8312226 49.15451854 -46 48 C-46 47.34 -46 46.68 -46 46 C-34.12 39.565 -34.12 39.565 -22 33 C-22.66 29.37 -23.32 25.74 -24 22 C-16.375 22.875 -16.375 22.875 -13 24 C-8.71 16.08 -4.42 8.16 0 0 Z " fill="#FDF9FD" transform="translate(88,47)"/>
<path d="M0 0 C0.66 0 1.32 0 2 0 C3.04927113 1.86901421 4.03866817 3.77176903 5 5.6875 C8.55245708 12.04887663 12.19877723 14.64625691 19 17 C19 17.66 19 18.32 19 19 C18.27554688 19.30550781 17.55109375 19.61101562 16.8046875 19.92578125 C8.78223385 23.72307598 5.42539591 27.87733122 2 36 C1.34 36 0.68 36 0 36 C-0.30550781 35.27554688 -0.61101562 34.55109375 -0.92578125 33.8046875 C-4.72307598 25.78223385 -8.87733122 22.42539591 -17 19 C-17 18.34 -17 17.68 -17 17 C-16.27554688 16.69449219 -15.55109375 16.38898438 -14.8046875 16.07421875 C-6.78223385 12.27692402 -3.42539591 8.12266878 0 0 Z " fill="#EA92E5" transform="translate(88,76)"/>
<path d="M0 0 C0.33 0.66 0.66 1.32 1 2 C-1.30262671 8.33222346 -1.30262671 8.33222346 -3.47265625 10.41015625 C-5.41214677 12.42901211 -6.17687084 14.39792033 -7.1875 17 C-7.53167969 17.86625 -7.87585938 18.7325 -8.23046875 19.625 C-9.15411842 22.05956177 -9.15411842 22.05956177 -9 25 C-9.66 25.33 -10.32 25.66 -11 26 C-11.47074949 28.52237188 -11.47074949 28.52237188 -11.6328125 31.56640625 C-11.71660156 32.69111328 -11.80039062 33.81582031 -11.88671875 34.97460938 C-11.96535156 36.15861328 -12.04398438 37.34261719 -12.125 38.5625 C-12.25455078 40.34430664 -12.25455078 40.34430664 -12.38671875 42.16210938 C-12.59964392 45.10757419 -12.80366457 48.05339035 -13 51 C-13.33 51 -13.66 51 -14 51 C-14.70439867 32.07334953 -13.32086229 14.85788486 0 0 Z " fill="#DA94D3" transform="translate(39,53)"/>
<path d="M0 0 C0.66 0.33 1.32 0.66 2 1 C-3.75 5 -3.75 5 -6 5 C-6 5.99 -6 6.98 -6 8 C-5.34 8.33 -4.68 8.66 -4 9 C-4.99 9.495 -4.99 9.495 -6 10 C-6.46651207 12.12576782 -6.46651207 12.12576782 -6.625 14.5625 C-6.69976562 15.38878906 -6.77453125 16.21507813 -6.8515625 17.06640625 C-6.90054688 17.70449219 -6.94953125 18.34257813 -7 19 C-11.95346987 20.59789351 -16.13282415 19.28306814 -21 18 C-21 17.34 -21 16.68 -21 16 C-12.42857143 17 -12.42857143 17 -9 18 C-9.33 16.948125 -9.66 15.89625 -10 14.8125 C-10.85073949 11.5690557 -11.09078383 9.28523991 -11 6 C-9.21385682 4.96953278 -7.42089982 3.95086764 -5.625 2.9375 C-4.62726563 2.36902344 -3.62953125 1.80054687 -2.6015625 1.21484375 C-1.74304688 0.81394531 -0.88453125 0.41304688 0 0 Z " fill="#E39ADE" transform="translate(123,101)"/>
<path d="M0 0 C0.8638129 1.45264038 1.71580454 2.9123163 2.5625 4.375 C3.27599609 5.59316406 3.27599609 5.59316406 4.00390625 6.8359375 C4.33261719 7.55007812 4.66132812 8.26421875 5 9 C4.67 9.66 4.34 10.32 4 11 C3.01 10.34 2.02 9.68 1 9 C0.01 9.33 -0.98 9.66 -2 10 C-2.99 9.34 -3.98 8.68 -5 8 C-4.67 6.35 -4.34 4.7 -4 3 C-6.31 3.33 -8.62 3.66 -11 4 C-11 3.34 -11 2.68 -11 2 C-7.1389146 0.56331706 -4.103573 -0.11185208 0 0 Z " fill="#E497E1" transform="translate(76,117)"/>
<path d="M0 0 C-0.639375 0.268125 -1.27875 0.53625 -1.9375 0.8125 C-4.33131686 1.88667752 -4.33131686 1.88667752 -5 5 C-5.556875 4.79375 -6.11375 4.5875 -6.6875 4.375 C-9.77295357 3.87465618 -11.24794118 4.55516912 -14 6 C-14.66 6.66 -15.32 7.32 -16 8 C-18.24505134 10.24505134 -19.9578658 11.14196215 -23 12 C-23.99 11.67 -24.98 11.34 -26 11 C-7.81288571 -2.96223155 -7.81288571 -2.96223155 0 0 Z " fill="#E094D8" transform="translate(74,33)"/>
<path d="M0 0 C2.921875 1.2890625 2.921875 1.2890625 4.921875 3.2890625 C-1.50331597 3.80307778 -4.77540266 3.26610426 -10.078125 -0.7109375 C-13.68987802 -1.68334721 -17.08832102 -1.82853003 -20.81640625 -1.80859375 C-22.41645508 -1.80375977 -22.41645508 -1.80375977 -24.04882812 -1.79882812 C-25.15162109 -1.79044922 -26.25441406 -1.78207031 -27.390625 -1.7734375 C-29.07381836 -1.76666992 -29.07381836 -1.76666992 -30.79101562 -1.75976562 C-33.5534401 -1.74801063 -36.31575498 -1.73157827 -39.078125 -1.7109375 C-28.30631964 -7.86427748 -11.03886396 -4.02231187 0 0 Z " fill="#D692CF" transform="translate(113.078125,33.7109375)"/>
<path d="M0 0 C5.75 1.875 5.75 1.875 8 3 C8 3.66 8 4.32 8 5 C7.24074219 5.39832031 6.48148438 5.79664062 5.69921875 6.20703125 C4.70535156 6.73683594 3.71148437 7.26664062 2.6875 7.8125 C1.70136719 8.33457031 0.71523437 8.85664062 -0.30078125 9.39453125 C-2.61665068 10.7719876 -4.23611001 11.99530591 -6 14 C-5.47731534 11.23723823 -4.89130413 8.6739124 -4 6 C-2.35 6 -0.7 6 1 6 C1.33 5.34 1.66 4.68 2 4 C1.10836423 1.88316159 1.10836423 1.88316159 0 0 Z " fill="#E29CDD" transform="translate(99,90)"/>
<path d="M0 0 C0.33 0 0.66 0 1 0 C0.33638444 7.03432494 0.33638444 7.03432494 -3 10 C-5.39269637 13.91532133 -7.42822815 17.67762742 -9 22 C-9.66 22 -10.32 22 -11 22 C-9.48968084 16.73877829 -7.09625809 12.32767414 -4.375 7.625 C-3.95476562 6.88894531 -3.53453125 6.15289062 -3.1015625 5.39453125 C-2.07247236 3.5936235 -1.03689244 1.79642682 0 0 Z " fill="#E39BDC" transform="translate(101,119)"/>
<path d="M0 0 C3.53969809 1.31169663 6.59937388 2.85998982 9.75 4.9375 C10.52859375 5.44152344 11.3071875 5.94554687 12.109375 6.46484375 C14 8 14 8 15 11 C13.02 10.34 11.04 9.68 9 9 C9 8.01 9 7.02 9 6 C7.02 6.66 5.04 7.32 3 8 C3 6.33333333 3 4.66666667 3 3 C1.54166642 1.37485532 1.54166642 1.37485532 0 0 Z " fill="#E294D8" transform="translate(118,37)"/>
<path d="M0 0 C0.66 0 1.32 0 2 0 C3.5078125 1.75 3.5078125 1.75 5.125 4 C5.66382813 4.7425 6.20265625 5.485 6.7578125 6.25 C7.16773438 6.8275 7.57765625 7.405 8 8 C3.545 7.01 3.545 7.01 -1 6 C-1.33 6.66 -1.66 7.32 -2 8 C-2.33 6.68 -2.66 5.36 -3 4 C-2.01 4 -1.02 4 0 4 C-0.33 3.34 -0.66 2.68 -1 2 C-0.67 1.34 -0.34 0.68 0 0 Z " fill="#E393DD" transform="translate(133,48)"/>
<path d="M0 0 C5.66104589 0.49658297 9.87674471 1.54510684 15 4 C15 4.33 15 4.66 15 5 C8.63544353 5.50916452 4.94875005 5.18740389 0 1 C0 0.67 0 0.34 0 0 Z " fill="#DE95D9" transform="translate(103,32)"/>
<path d="M0 0 C1.4540625 0.0309375 1.4540625 0.0309375 2.9375 0.0625 C2.6075 1.0525 2.2775 2.0425 1.9375 3.0625 C2.9275 3.3925 3.9175 3.7225 4.9375 4.0625 C1.50806481 5.25021723 -0.44034675 4.86476223 -3.8125 3.625 C-4.61171875 3.33753906 -5.4109375 3.05007812 -6.234375 2.75390625 C-6.83765625 2.52574219 -7.4409375 2.29757813 -8.0625 2.0625 C-7.423125 1.918125 -6.78375 1.77375 -6.125 1.625 C-0.18014706 0.00367647 -0.18014706 0.00367647 0 0 Z " fill="#DC91D7" transform="translate(72.0625,151.9375)"/>
<path d="M0 0 C3.08510827 1.19976433 6.05047042 2.50002556 9 4 C8.88637738 5.4800841 8.75877092 6.95910074 8.625 8.4375 C8.55539063 9.26121094 8.48578125 10.08492187 8.4140625 10.93359375 C8.27742188 11.61550781 8.14078125 12.29742187 8 13 C7.01 13.495 7.01 13.495 6 14 C6.33 11.36 6.66 8.72 7 6 C4.69 5.01 2.38 4.02 0 3 C0 2.01 0 1.02 0 0 Z " fill="#E29BDC" transform="translate(57,103)"/>
<path d="M0 0 C0.86625 0.33 1.7325 0.66 2.625 1 C5.95718275 1.98731341 8.55159538 2.16420974 12 2 C12 3.98 12 5.96 12 8 C11.01 8.495 11.01 8.495 10 9 C9.278125 8.236875 8.55625 7.47375 7.8125 6.6875 C5.30051382 4.28715765 2.99124519 2.70928296 0 1 C0 0.67 0 0.34 0 0 Z " fill="#E398DE" transform="translate(74,95)"/>
<path d="M0 0 C5.06998019 0.65419099 9.41990777 2.8546409 14 5 C13.67 5.99 13.34 6.98 13 8 C8.71 5.69 4.42 3.38 0 1 C0 0.67 0 0.34 0 0 Z " fill="#DF9DDC" transform="translate(121,85)"/>
<path d="M0 0 C0.99 0.495 0.99 0.495 2 1 C2 1.66 2 2.32 2 3 C2.99 3 3.98 3 5 3 C5 2.34 5 1.68 5 1 C5.99 1.33 6.98 1.66 8 2 C7.01 3.98 6.02 5.96 5 8 C4.34 8 3.68 8 3 8 C0 2.25 0 2.25 0 0 Z " fill="#E49EE0" transform="translate(85,104)"/>
<path d="M0 0 C2.31 0 4.62 0 7 0 C4.65085508 2.34914492 3.04320554 2.73140357 -0.125 3.625 C-1.49011719 4.01558594 -1.49011719 4.01558594 -2.8828125 4.4140625 C-3.58148438 4.60742188 -4.28015625 4.80078125 -5 5 C-5.33 4.01 -5.66 3.02 -6 2 C-4.02 2 -2.04 2 0 2 C0 1.34 0 0.68 0 0 Z " fill="#E09CDB" transform="translate(108,67)"/>
<path d="M0 0 C0.66 0 1.32 0 2 0 C2.33 1.32 2.66 2.64 3 4 C2.01 4.33 1.02 4.66 0 5 C-0.165 5.66 -0.33 6.32 -0.5 7 C-0.665 7.66 -0.83 8.32 -1 9 C-1.99 9.33 -2.98 9.66 -4 10 C-2.8905928 6.51329166 -1.73662334 3.22515763 0 0 Z " fill="#DFA1D9" transform="translate(88,76)"/>
<path d="M0 0 C2.475 0.495 2.475 0.495 5 1 C4.01 1.495 4.01 1.495 3 2 C3.66 2.33 4.32 2.66 5 3 C5 4.98 5 6.96 5 9 C0.57142857 3.85714286 0.57142857 3.85714286 0 0 Z " fill="#DA93D5" transform="translate(31,121)"/>
<path d="M0 0 C0 0.66 0 1.32 0 2 C-1.26418246 2.69965443 -2.53665402 3.38434763 -3.8125 4.0625 C-4.52019531 4.44535156 -5.22789062 4.82820313 -5.95703125 5.22265625 C-8 6 -8 6 -11 5 C-9.73461631 4.15841464 -8.46246221 3.32700252 -7.1875 2.5 C-6.47980469 2.0359375 -5.77210938 1.571875 -5.04296875 1.09375 C-3 0 -3 0 0 0 Z " fill="#E19FDC" transform="translate(136,95)"/>
<path d="M0 0 C5.94 0.99 5.94 0.99 12 2 C11.67 2.99 11.34 3.98 11 5 C9.35153231 4.55123384 7.70626545 4.09069512 6.0625 3.625 C5.14597656 3.36976562 4.22945313 3.11453125 3.28515625 2.8515625 C1 2 1 2 0 0 Z " fill="#DF9BDB" transform="translate(64,67)"/>
<path d="M0 0 C0.66 0.66 1.32 1.32 2 2 C-0.97 2.66 -3.94 3.32 -7 4 C-7.33 3.34 -7.66 2.68 -8 2 C-6.71254964 1.61077082 -5.41980403 1.23901964 -4.125 0.875 C-3.04605469 0.56175781 -3.04605469 0.56175781 -1.9453125 0.2421875 C-1.30335937 0.16226563 -0.66140625 0.08234375 0 0 Z " fill="#DB96D3" transform="translate(109,153)"/>
<path d="M0 0 C2 3 2 3 2 7 C-0.31 6.67 -2.62 6.34 -5 6 C-5 5.67 -5 5.34 -5 5 C-3.35 5 -1.7 5 0 5 C0 3.35 0 1.7 0 0 Z " fill="#FDE5FD" transform="translate(112,112)"/>
</svg>
