<?xml version="1.0" encoding="UTF-8"?>
<svg version="1.1" xmlns="http://www.w3.org/2000/svg" width="163" height="161">
<path d="M0 0 C14.15464561 12.25462113 23.5151892 28.13410956 24.94921875 47.0390625 C25.41132587 64.93185033 20.38142116 81.71680732 8.171875 95.0078125 C-5.07970333 108.73177776 -21.23882787 116.22758556 -40.390625 116.7578125 C-59.07737104 116.29744474 -76.09502622 108.67541917 -88.97265625 95.18359375 C-101.16855099 80.68200747 -106.868729 63.22108424 -105.328125 44.3828125 C-102.62193999 25.96610164 -93.87586354 10.65635849 -79.390625 -0.9921875 C-55.72683294 -17.39714764 -22.94527539 -18.75986211 0 0 Z " fill="#CB4069" transform="translate(122.328125,29.6171875)"/>
<path d="M0 0 C3 0.5 3 0.5 5.171875 1.890625 C8.01874414 5.95410488 7.42583713 9.92124178 7.25 14.75 C7.23195313 15.68585938 7.21390625 16.62171875 7.1953125 17.5859375 C7.14825673 19.89167015 7.08253713 22.19530945 7 24.5 C7.66 24.17 8.32 23.84 9 23.5 C9.01458252 22.90985107 9.02916504 22.31970215 9.04418945 21.71166992 C9.11868844 19.03628771 9.21533995 16.36215108 9.3125 13.6875 C9.33505859 12.75873047 9.35761719 11.82996094 9.38085938 10.87304688 C9.41630859 9.98037109 9.45175781 9.08769531 9.48828125 8.16796875 C9.51446533 7.34578857 9.54064941 6.5236084 9.56762695 5.67651367 C10.09784754 3.00744731 10.81630817 2.09454701 13 0.5 C19.10431701 -0.15403397 19.10431701 -0.15403397 21.68676758 1.73168945 C23.36016323 3.98497161 23.42286584 5.37798752 23.51171875 8.16796875 C23.56489258 9.50698242 23.56489258 9.50698242 23.61914062 10.87304688 C23.64169922 11.80181641 23.66425781 12.73058594 23.6875 13.6875 C23.73874023 15.09805664 23.73874023 15.09805664 23.79101562 16.53710938 C23.87348218 18.85795393 23.94263403 21.17842148 24 23.5 C24.33 23.5 24.66 23.5 25 23.5 C25.01981934 22.90461426 25.03963867 22.30922852 25.06005859 21.69580078 C25.15516126 19.00507847 25.26489842 16.31514852 25.375 13.625 C25.4059375 12.68785156 25.436875 11.75070313 25.46875 10.78515625 C25.50742188 9.88925781 25.54609375 8.99335937 25.5859375 8.0703125 C25.6173584 7.24289551 25.6487793 6.41547852 25.68115234 5.56298828 C26 3.5 26 3.5 28 1.5 C30.09375 1.234375 30.09375 1.234375 32.5 1.25 C33.2940625 1.24484375 34.088125 1.2396875 34.90625 1.234375 C37 1.5 37 1.5 39 3.5 C39.31884766 5.56298828 39.31884766 5.56298828 39.4140625 8.0703125 C39.47207031 9.41416016 39.47207031 9.41416016 39.53125 10.78515625 C39.5621875 11.72230469 39.593125 12.65945312 39.625 13.625 C39.68300781 15.04232422 39.68300781 15.04232422 39.7421875 16.48828125 C39.83661346 18.82532375 39.92218394 21.16235501 40 23.5 C40.66 23.5 41.32 23.5 42 23.5 C42.01458252 22.87432129 42.02916504 22.24864258 42.04418945 21.60400391 C42.11852804 18.77703598 42.21523234 15.95126792 42.3125 13.125 C42.33505859 12.14015625 42.35761719 11.1553125 42.38085938 10.140625 C42.41630859 9.19960938 42.45175781 8.25859375 42.48828125 7.2890625 C42.51446533 6.41975098 42.54064941 5.55043945 42.56762695 4.65478516 C43 2.5 43 2.5 46 0.5 C48.9375 0.125 48.9375 0.125 52 0.5 C54.64625773 2.55632194 55.85343987 3.75554077 56.50793457 7.08007812 C56.51111694 8.05396484 56.51429932 9.02785156 56.51757812 10.03125 C56.53018677 11.13919922 56.54279541 12.24714844 56.55578613 13.38867188 C56.54768921 14.58041016 56.53959229 15.77214844 56.53125 17 C56.5350769 18.22783203 56.53890381 19.45566406 56.54284668 20.72070312 C56.54556842 23.31641459 56.53818911 25.91215336 56.52148438 28.5078125 C56.50008075 32.48499599 56.52127963 36.46037282 56.546875 40.4375 C56.54423177 42.95833733 56.53910691 45.47917353 56.53125 48 C56.53934692 49.19173828 56.54744385 50.38347656 56.55578613 51.61132812 C56.54317749 52.71927734 56.53056885 53.82722656 56.51757812 54.96875 C56.51280457 56.42958008 56.51280457 56.42958008 56.50793457 57.91992188 C55.840873 61.30829327 54.7713868 62.47438365 52 64.5 C49.45788574 65.00793457 49.45788574 65.00793457 46.56054688 65.01757812 C45.47261841 65.03018677 44.38468994 65.04279541 43.26379395 65.05578613 C42.09392944 65.04768921 40.92406494 65.03959229 39.71875 65.03125 C37.91029602 65.03699036 37.91029602 65.03699036 36.06530762 65.04284668 C33.51667445 65.04556826 30.96801346 65.03819005 28.41943359 65.02148438 C24.51466698 65.0000804 20.61174052 65.02128003 16.70703125 65.046875 C14.23176677 65.04423177 11.75650343 65.0391069 9.28125 65.03125 C7.52645325 65.04339539 7.52645325 65.04339539 5.73620605 65.05578613 C4.10431335 65.03687317 4.10431335 65.03687317 2.43945312 65.01757812 C1.4833313 65.01439575 0.52720947 65.01121338 -0.45788574 65.00793457 C-3.82184807 64.33578824 -4.98652252 63.2522657 -7 60.5 C-7.50793457 57.91992188 -7.50793457 57.91992188 -7.51757812 54.96875 C-7.53018677 53.86080078 -7.54279541 52.75285156 -7.55578613 51.61132812 C-7.54768921 50.41958984 -7.53959229 49.22785156 -7.53125 48 C-7.5350769 46.77216797 -7.53890381 45.54433594 -7.54284668 44.27929688 C-7.54556842 41.68358541 -7.53818911 39.08784664 -7.52148438 36.4921875 C-7.50008075 32.51500401 -7.52127963 28.53962718 -7.546875 24.5625 C-7.54423177 22.04166267 -7.53910691 19.52082647 -7.53125 17 C-7.53934692 15.80826172 -7.54744385 14.61652344 -7.55578613 13.38867188 C-7.54317749 12.28072266 -7.53056885 11.17277344 -7.51757812 10.03125 C-7.51439575 9.05736328 -7.51121338 8.08347656 -7.50793457 7.08007812 C-6.63932389 2.6679283 -4.3539099 0.72565165 0 0 Z " fill="#FDF7F9" transform="translate(64,49.5)"/>
<path d="M0 0 C2.5625 0.1875 2.5625 0.1875 4.5625 2.1875 C4.76256302 5.17712103 4.84222923 8.0721235 4.828125 11.0625 C4.83003845 11.94276855 4.8319519 12.82303711 4.83392334 13.72998047 C4.83528552 15.59277634 4.83158682 17.45558169 4.82324219 19.31835938 C4.81254307 22.17599736 4.82313632 25.03300666 4.8359375 27.890625 C4.83461591 29.69791806 4.83205353 31.50521073 4.828125 33.3125 C4.83217346 34.17085449 4.83622192 35.02920898 4.84039307 35.91357422 C4.79241745 41.95758255 4.79241745 41.95758255 2.5625 44.1875 C-0.0625 44.3125 -0.0625 44.3125 -2.4375 44.1875 C-3.81105111 41.53512545 -5.14128143 38.87750198 -6.4375 36.1875 C-6.74558594 35.57519531 -7.05367187 34.96289062 -7.37109375 34.33203125 C-10.62952023 27.02005988 -10.88607141 18.78102816 -8.125 11.2734375 C-3.6433788 0.28025991 -3.6433788 0.28025991 0 0 Z " fill="#FDF8FB" transform="translate(49.4375,68.8125)"/>
<path d="M0 0 C1.32 0 2.64 0 4 0 C4 6.93 4 13.86 4 21 C2.68 21 1.36 21 0 21 C0 14.07 0 7.14 0 0 Z " fill="#C76985" transform="translate(103,52)"/>
<path d="M0 0 C0.66 0 1.32 0 2 0 C5.81375354 4.49873404 5.38974888 9.09485653 5.29296875 14.67578125 C5.28872391 15.6009404 5.28447906 16.52609955 5.28010559 17.47929382 C5.26335993 20.4239963 5.22571522 23.3680056 5.1875 26.3125 C5.17244785 28.31314113 5.15876037 30.31379303 5.14648438 32.31445312 C5.11346983 37.20990107 5.06171575 42.10483315 5 47 C4.34 46.67 3.68 46.34 3 46 C3.00523682 44.79351807 3.01047363 43.58703613 3.01586914 42.34399414 C3.03391611 37.88436622 3.04543089 33.42474154 3.05493164 28.96508789 C3.05997256 27.03181415 3.06680519 25.09854424 3.07543945 23.1652832 C3.08751565 20.39273128 3.09323057 17.62022959 3.09765625 14.84765625 C3.10281754 13.97786636 3.10797882 13.10807648 3.11329651 12.21192932 C3.11349185 10.14094186 3.06208168 8.07005676 3 6 C1.94689723 4.72996677 1.94689723 4.72996677 -0.4375 4.8125 C-3.16734675 4.73160017 -3.16734675 4.73160017 -5 7 C-4.6875 5.0625 -4.6875 5.0625 -4 3 C-3.01 2.67 -2.02 2.34 -1 2 C-0.67 1.34 -0.34 0.68 0 0 Z " fill="#B94C6C" transform="translate(50,65)"/>
<path d="M0 0 C0.33 0 0.66 0 1 0 C1.33 1.98 1.66 3.96 2 6 C1.01 6.495 1.01 6.495 0 7 C-1.66760484 11.07233399 -2.27865341 14.67646026 -2.4140625 19.0546875 C-2.45273437 20.16328125 -2.49140625 21.271875 -2.53125 22.4140625 C-2.5621875 23.55617188 -2.593125 24.69828125 -2.625 25.875 C-2.66367187 27.0403125 -2.70234375 28.205625 -2.7421875 29.40625 C-2.83610319 32.27067864 -2.92177983 35.13510692 -3 38 C-3.33 38 -3.66 38 -4 38 C-6.28285941 25.63915149 -5.74397409 11.48794817 0 0 Z " fill="#A84360" transform="translate(22,56)"/>
<path d="M0 0 C0.33 0 0.66 0 1 0 C1 6.27 1 12.54 1 19 C0.01 19.33 -0.98 19.66 -2 20 C-2.02687279 18.18757948 -2.04633715 16.37504767 -2.0625 14.5625 C-2.07410156 13.55316406 -2.08570312 12.54382813 -2.09765625 11.50390625 C-2 9 -2 9 -1 8 C-0.76924918 6.65252916 -0.58846937 5.29622435 -0.4375 3.9375 C-0.293125 2.638125 -0.14875 1.33875 0 0 Z " fill="#C2607D" transform="translate(73,54)"/>
<path d="M0 0 C1.20462891 -0.02126953 1.20462891 -0.02126953 2.43359375 -0.04296875 C4.5625 0.1875 4.5625 0.1875 6.5625 2.1875 C6.78955078 4.25048828 6.78955078 4.25048828 6.7578125 6.7578125 C6.74814453 8.10166016 6.74814453 8.10166016 6.73828125 9.47265625 C6.72152344 10.40980469 6.70476562 11.34695312 6.6875 12.3125 C6.67847656 13.25738281 6.66945313 14.20226562 6.66015625 15.17578125 C6.63654522 17.51327292 6.60361516 19.85026123 6.5625 22.1875 C6.2325 22.1875 5.9025 22.1875 5.5625 22.1875 C5.50191406 20.91132812 5.44132812 19.63515625 5.37890625 18.3203125 C5.29450432 16.65102984 5.20985614 14.98175963 5.125 13.3125 C5.08568359 12.47074219 5.04636719 11.62898438 5.00585938 10.76171875 C4.94301758 9.55322266 4.94301758 9.55322266 4.87890625 8.3203125 C4.84224854 7.57668457 4.80559082 6.83305664 4.76782227 6.06689453 C4.66294135 4.09885688 4.66294135 4.09885688 3.5625 2.1875 C-0.06635324 2.03600702 -0.06635324 2.03600702 -3.4375 3.1875 C-4.0975 2.5275 -4.7575 1.8675 -5.4375 1.1875 C-3.84855928 -0.40144072 -2.18948576 0.01751589 0 0 Z " fill="#FEEFF8" transform="translate(96.4375,50.8125)"/>
<path d="M0 0 C3.04492309 1.01497436 4.0298639 1.5821057 6 4 C6.625 5.9375 6.625 5.9375 7 8 C7.185625 8.7425 7.37125 9.485 7.5625 10.25 C7.7790625 11.11625 7.7790625 11.11625 8 12 C7.01 12.495 7.01 12.495 6 13 C4.99491199 11.21118264 3.99607264 9.41885304 3 7.625 C2.1646875 6.12839844 2.1646875 6.12839844 1.3125 4.6015625 C0 2 0 2 0 0 Z " fill="#B54363" transform="translate(22,105)"/>
<path d="M0 0 C0.66 0 1.32 0 2 0 C2 5.61 2 11.22 2 17 C1.34 16.67 0.68 16.34 0 16 C0 14.35 0 12.7 0 11 C-0.66 11 -1.32 11 -2 11 C-2 9.02 -2 7.04 -2 5 C-1.34 5 -0.68 5 0 5 C0 3.35 0 1.7 0 0 Z " fill="#CB5D7E" transform="translate(39,82)"/>
<path d="M0 0 C2.82858266 3.36736031 4.4998253 6.87451958 6 11 C5.67 11.99 5.34 12.98 5 14 C4.01 14 3.02 14 2 14 C2.0825 12.906875 2.165 11.81375 2.25 10.6875 C2.41103961 6.96557142 2.41103961 6.96557142 0 5.0625 C-0.66 4.711875 -1.32 4.36125 -2 4 C-1.34 2.68 -0.68 1.36 0 0 Z " fill="#A93F5E" transform="translate(138,49)"/>
<path d="M0 0 C0 3.61029169 -0.96092582 6.55806676 -2 10 C-2.99 10 -3.98 10 -5 10 C-5.33 10.99 -5.66 11.98 -6 13 C-6.33 12.34 -6.66 11.68 -7 11 C-5.8203125 8.65234375 -5.8203125 8.65234375 -4.125 5.9375 C-3.57070313 5.03902344 -3.01640625 4.14054687 -2.4453125 3.21484375 C-1 1 -1 1 0 0 Z " fill="#B24766" transform="translate(30,42)"/>
<path d="M0 0 C0.66 0.33 1.32 0.66 2 1 C-2.82624485 4.84129692 -5.83543524 6.62257767 -12 7 C-8.18660874 3.64883798 -4.7349034 1.6974182 0 0 Z " fill="#B34467" transform="translate(57,21)"/>
<path d="M0 0 C0.90105469 0.00902344 1.80210938 0.01804687 2.73046875 0.02734375 C3.41753906 0.03894531 4.10460937 0.05054687 4.8125 0.0625 C4.8125 0.3925 4.8125 0.7225 4.8125 1.0625 C0.3575 1.5575 0.3575 1.5575 -4.1875 2.0625 C-4.1875 2.7225 -4.1875 3.3825 -4.1875 4.0625 C-6.4975 3.7325 -8.8075 3.4025 -11.1875 3.0625 C-7.23784431 0.4293962 -4.63874115 -0.06024339 0 0 Z " fill="#BD4667" transform="translate(70.1875,17.9375)"/>
<path d="M0 0 C0.66 0.99 1.32 1.98 2 3 C0.71034824 4.37562854 -0.62689293 5.70766393 -2 7 C-2.66 7 -3.32 7 -4 7 C-4 6.01 -4 5.02 -4 4 C-3.34 4 -2.68 4 -2 4 C-2 3.01 -2 2.02 -2 1 C-1.34 0.67 -0.68 0.34 0 0 Z " fill="#BA4467" transform="translate(125,125)"/>
<path d="M0 0 C0.33 0 0.66 0 1 0 C1.33 1.98 1.66 3.96 2 6 C1.01 6.495 1.01 6.495 0 7 C-0.65555119 9.52733235 -0.65555119 9.52733235 -1 12 C-1.33 12 -1.66 12 -2 12 C-2.28571429 3.42857143 -2.28571429 3.42857143 0 0 Z " fill="#B64768" transform="translate(22,56)"/>
<path d="M0 0 C0.33 0.66 0.66 1.32 1 2 C2.97888961 2.72693904 4.97954558 3.39816251 7 4 C7 4.66 7 5.32 7 6 C4.36 5.34 1.72 4.68 -1 4 C-0.67 2.68 -0.34 1.36 0 0 Z " fill="#BB3F5F" transform="translate(57,137)"/>
</svg>
