<?xml version="1.0" encoding="UTF-8"?>
<svg version="1.1" xmlns="http://www.w3.org/2000/svg" width="157" height="161">
<path d="M0 0 C11.55476679 9.19188189 21.06941711 24.81904445 22.98828125 39.5703125 C24.52670045 60.5141805 20.95951712 77.78079161 7.16796875 94.2265625 C-4.02322307 106.26010209 -19.50460885 114.01318303 -35.9375 114.8828125 C-55.79160863 115.52977855 -72.2225375 110.32425106 -87.01171875 96.5703125 C-100.05707917 83.0050283 -105.53942823 66.4579718 -105.36132812 47.92871094 C-104.87072519 30.37971122 -97.45912032 14.58012657 -84.7734375 2.42578125 C-59.78509201 -18.96358813 -26.26660438 -18.6671402 0 0 Z " fill="#FB9C55" transform="translate(120.01171875,33.4296875)"/>
<path d="M0 0 C5.03372844 1.43820813 6.98955889 3.90245515 10 8 C10.96070434 10.88211302 11.10581883 12.69850044 11.0625 15.6875 C11.05347656 16.49574219 11.04445312 17.30398437 11.03515625 18.13671875 C11.02355469 18.75160156 11.01195312 19.36648437 11 20 C9.3603125 20.556875 9.3603125 20.556875 7.6875 21.125 C4.73979653 22.40453051 3.98460351 23.02117017 2 25.75 C0.77140674 29.74292809 0.83302452 31.98852178 2 36 C4.00162519 38.85079952 5.40619202 40.69089785 8.93359375 41.375 C12.91782171 41.49550595 16.55666283 41.12676707 20 39 C22.14523479 35.24583912 22.49982632 31.25147629 23 27 C26.54965477 28.43676503 28.07087942 30.11301898 30.125 33.3125 C30.62257813 34.07175781 31.12015625 34.83101562 31.6328125 35.61328125 C35.69864768 42.71106781 36.23160229 49.79334602 34.34765625 57.7578125 C31.70762936 65.16801675 27.16973042 70.12320297 20.625 74.375 C16.35746523 76.28803283 12.63034718 76.79000693 8 77 C8.3609375 76.5153125 8.721875 76.030625 9.09375 75.53125 C12.6584606 70.38222358 13.80716927 67.25556186 13 61 C11.66872531 57.08013564 10.67679683 55.46145239 7.25 53.125 C2.29733805 51.41061702 -1.29733805 51.41061702 -6.25 53.125 C-9.65181919 55.44442218 -10.65773362 57.12234156 -12 61 C-12.56176235 66.24311526 -11.97626422 69.62861193 -9 74 C-3.1229659 79.4359322 2.66851022 82.47696627 10.85546875 82.2578125 C16.97860049 81.5216983 22.61799824 78.89800095 28 76 C25.1552974 82.72116262 18.45086381 86.672764 11.9375 89.4375 C2.54028145 92.45145385 -7.54872556 92.65070534 -16.5625 88.4375 C-24.45463621 83.86498689 -29.64433126 78.50844917 -33 70 C-33.35707031 69.09894531 -33.71414062 68.19789062 -34.08203125 67.26953125 C-35.1692286 63.39725812 -35.38303329 59.74165077 -35.375 55.75 C-35.37483887 55.00363281 -35.37467773 54.25726563 -35.37451172 53.48828125 C-35.25133666 47.50327001 -34.26228395 42.14345499 -31 37 C-30.01 36.505 -30.01 36.505 -29 36 C-28.87882812 36.84304687 -28.75765625 37.68609375 -28.6328125 38.5546875 C-28.46523438 39.65039062 -28.29765625 40.74609375 -28.125 41.875 C-27.88136719 43.51082031 -27.88136719 43.51082031 -27.6328125 45.1796875 C-27.23743487 48.11932714 -27.23743487 48.11932714 -25 50 C-25.495 48.515 -25.495 48.515 -26 47 C-26.86367353 40.07645317 -25.58915975 33.98838244 -22 28 C-17.22422738 22.52391042 -11.47414657 18.83872068 -5.06640625 15.51953125 C-1.82993981 13.13959657 -1.23463365 10.39230725 -0.5859375 6.54296875 C-0.51632813 5.76566406 -0.44671875 4.98835938 -0.375 4.1875 C-0.30023438 3.39730469 -0.22546875 2.60710938 -0.1484375 1.79296875 C-0.09945312 1.20128906 -0.05046875 0.60960937 0 0 Z " fill="#FDFCF8" transform="translate(79,37)"/>
<path d="M0 0 C0.33 0.99 0.66 1.98 1 3 C0.34 3.66 -0.32 4.32 -1 5 C-0.67 5.99 -0.34 6.98 0 8 C0.66 8 1.32 8 2 8 C1.34 10.31 0.68 12.62 0 15 C0.66 15.66 1.32 16.32 2 17 C1.01 17.33 0.02 17.66 -1 18 C-1 17.34 -1 16.68 -1 16 C-1.55429688 16.30035156 -2.10859375 16.60070312 -2.6796875 16.91015625 C-3.40414062 17.29042969 -4.12859375 17.67070313 -4.875 18.0625 C-5.95394531 18.63677734 -5.95394531 18.63677734 -7.0546875 19.22265625 C-7.69664063 19.47917969 -8.33859375 19.73570313 -9 20 C-9.66 19.67 -10.32 19.34 -11 19 C-10.36191406 18.51789063 -9.72382812 18.03578125 -9.06640625 17.5390625 C-8.24011719 16.90742187 -7.41382812 16.27578125 -6.5625 15.625 C-5.73878906 14.99851562 -4.91507813 14.37203125 -4.06640625 13.7265625 C-1.91471908 12.16246096 -1.91471908 12.16246096 -1 10 C-1.59167969 10.34933594 -2.18335937 10.69867188 -2.79296875 11.05859375 C-3.58316406 11.51363281 -4.37335938 11.96867187 -5.1875 12.4375 C-5.96480469 12.88996094 -6.74210937 13.34242187 -7.54296875 13.80859375 C-13.53309751 16.71318719 -20.1848485 16.804329 -26.5 15 C-27.7375 14.505 -27.7375 14.505 -29 14 C-27.625 12.5 -27.625 12.5 -26 11 C-25.34 11 -24.68 11 -24 11 C-24 10.34 -24 9.68 -24 9 C-23.443125 9.03480469 -22.88625 9.06960937 -22.3125 9.10546875 C-13.43667102 9.42032079 -7.78279174 7.20028438 -1.25 1.20703125 C-0.8375 0.80871094 -0.425 0.41039063 0 0 Z M-5 6 C-5.33 6.99 -5.66 7.98 -6 9 C-5.01 9 -4.02 9 -3 9 C-3 8.01 -3 7.02 -3 6 C-3.66 6 -4.32 6 -5 6 Z " fill="#F5A060" transform="translate(107,104)"/>
<path d="M0 0 C3.82158012 2.43191462 5.32820787 4.48462362 6.75 8.75 C7.26448832 15.02675752 6.68042664 17.8369667 2.75 22.75 C2.42 21.43 2.09 20.11 1.75 18.75 C2.41 18.42 3.07 18.09 3.75 17.75 C4.47219068 10.47265339 4.47219068 10.47265339 1.75 4.0625 C1.09 3.629375 0.43 3.19625 -0.25 2.75 C-0.62125 3.265625 -0.9925 3.78125 -1.375 4.3125 C-3.25 5.75 -3.25 5.75 -6.4375 5.4375 C-7.365625 5.210625 -8.29375 4.98375 -9.25 4.75 C-9.25 4.09 -9.25 3.43 -9.25 2.75 C-12.71485707 3.37032476 -12.71485707 3.37032476 -16.25 4.75 C-18.32458874 8.14478158 -18.70434725 11.8394886 -19.25 15.75 C-19.58 15.75 -19.91 15.75 -20.25 15.75 C-20.56464883 10.50585282 -20.08856733 7.21060581 -17.25 2.75 C-12.15445179 -1.86784057 -6.37283356 -2.45108983 0 0 Z " fill="#F2A165" transform="translate(86.25,89.25)"/>
<path d="M0 0 C0.66 0 1.32 0 2 0 C1.835 0.804375 1.67 1.60875 1.5 2.4375 C0.67160432 8.33981925 0.50036425 14.18891148 2 20 C-1.82645947 17.32147837 -2.46819646 14.65189384 -3.25 10.25 C-3.51536311 8.50226363 -3.77032494 6.75278332 -4 5 C-4.66 5.66 -5.32 6.32 -6 7 C-6 5.68 -6 4.36 -6 3 C-4.68 2.67 -3.36 2.34 -2 2 C-1.67 2.99 -1.34 3.98 -1 5 C-0.67 3.35 -0.34 1.7 0 0 Z " fill="#EDA874" transform="translate(53,69)"/>
<path d="M0 0 C3.63 0 7.26 0 11 0 C9.49336217 3.01327566 6.96833589 3.61056618 4 5 C5.65 5.33 7.3 5.66 9 6 C9 6.33 9 6.66 9 7 C3.78020872 7.1799928 -0.07262981 6.97094808 -5 5 C-3.625 3.5 -3.625 3.5 -2 2 C-1.34 2 -0.68 2 0 2 C0 1.34 0 0.68 0 0 Z " fill="#F3A96F" transform="translate(83,113)"/>
<path d="M0 0 C0 0.99 0 1.98 0 3 C-4.62197306 5.21854707 -7.76824163 6.38281159 -13 6 C-13.33 5.34 -13.66 4.68 -14 4 C-9.22642128 1.28608722 -5.65611463 -0.56561146 0 0 Z " fill="#FB9C55" transform="translate(100,113)"/>
<path d="M0 0 C2.97 0 5.94 0 9 0 C5.70491968 3.29508032 3.47390809 4.15664758 -0.875 5.6875 C-2.08929688 6.12449219 -3.30359375 6.56148437 -4.5546875 7.01171875 C-7.60970953 7.88804593 -9.85937785 8.22091829 -13 8 C-12.67 7.34 -12.34 6.68 -12 6 C-9.69 6 -7.38 6 -5 6 C-5 5.34 -5 4.68 -5 4 C-3.35 4 -1.7 4 0 4 C0 2.68 0 1.36 0 0 Z " fill="#F0A266" transform="translate(102,139)"/>
<path d="M0 0 C0.33 0.99 0.66 1.98 1 3 C-0.98 4.32 -2.96 5.64 -5 7 C-4.67 8.32 -4.34 9.64 -4 11 C-9.41538462 15.06153846 -9.41538462 15.06153846 -12.375 14.75 C-12.91125 14.5025 -13.4475 14.255 -14 14 C-11.35261084 12.5393715 -10.10551666 12 -7 12 C-7 11.01 -7 10.02 -7 9 C-8.32 8.67 -9.64 8.34 -11 8 C-10.37351562 7.59007813 -9.74703125 7.18015625 -9.1015625 6.7578125 C-8.28429687 6.21898438 -7.46703125 5.68015625 -6.625 5.125 C-5.81289062 4.59132813 -5.00078125 4.05765625 -4.1640625 3.5078125 C-1.92405904 2.04134945 -1.92405904 2.04134945 0 0 Z " fill="#F1A46C" transform="translate(107,104)"/>
<path d="M0 0 C0 3 0 3 -1.42578125 4.5703125 C-2.35970703 5.33988281 -2.35970703 5.33988281 -3.3125 6.125 C-3.92738281 6.64320312 -4.54226562 7.16140625 -5.17578125 7.6953125 C-7 9 -7 9 -10 10 C-10.33 9.34 -10.66 8.68 -11 8 C-11.99 7.34 -12.98 6.68 -14 6 C-13.11248047 5.72736328 -13.11248047 5.72736328 -12.20703125 5.44921875 C-7.787492 4.04332943 -3.87459875 2.62472819 0 0 Z " fill="#FEF1DE" transform="translate(106,113)"/>
<path d="M0 0 C2.31 0 4.62 0 7 0 C7 1.65 7 3.3 7 5 C5.02 4.01 3.04 3.02 1 2 C1.03480469 2.58007812 1.06960937 3.16015625 1.10546875 3.7578125 C1.28620954 8.97347536 0.9354578 12.48391108 -2 17 C-2.66 17.33 -3.32 17.66 -4 18 C-3.69255859 17.05640625 -3.69255859 17.05640625 -3.37890625 16.09375 C-1.68028765 10.69718181 -0.52161147 5.63340386 0 0 Z " fill="#F0A56E" transform="translate(78,35)"/>
<path d="M0 0 C0.33 0 0.66 0 1 0 C1.33 3.96 1.66 7.92 2 12 C1.34 12 0.68 12 0 12 C0 10.02 0 8.04 0 6 C-0.66 6 -1.32 6 -2 6 C-1.938125 6.928125 -1.87625 7.85625 -1.8125 8.8125 C-2 12 -2 12 -3.5 13.875 C-4.2425 14.431875 -4.2425 14.431875 -5 15 C-4.56826496 8.84777564 -3.34594658 5.18082051 0 0 Z " fill="#FEEDD4" transform="translate(49,73)"/>
<path d="M0 0 C5 2 5 2 7 5 C5.35 4.67 3.7 4.34 2 4 C2.0825 5.093125 2.165 6.18625 2.25 7.3125 C2.1675 8.529375 2.085 9.74625 2 11 C0.68 11.99 -0.64 12.98 -2 14 C-1.34 9.38 -0.68 4.76 0 0 Z " fill="#FEEBD3" transform="translate(79,37)"/>
<path d="M0 0 C0.639375 0.28875 1.27875 0.5775 1.9375 0.875 C5.88410292 2.3247725 9.8874607 3.15778062 14 4 C14 3.34 14 2.68 14 2 C15.32 2.33 16.64 2.66 18 3 C14.30616684 5.77037487 11.44516388 6.52548885 6.9375 6.36328125 C3.84717398 5.78384512 2.11127714 4.24323196 0 2 C0 1.34 0 0.68 0 0 Z " fill="#EEA36B" transform="translate(81,73)"/>
<path d="M0 0 C0.66 0.33 1.32 0.66 2 1 C1.505 1.845625 1.01 2.69125 0.5 3.5625 C-1.40499211 7.92810691 -1.87924135 11.41280705 -0.3203125 16 C0.39605125 17.69198296 1.19179418 19.34991312 2 21 C0.35 20.67 -1.3 20.34 -3 20 C-3.08112454 17.41603321 -3.14054748 14.83462432 -3.1875 12.25 C-3.21263672 11.52039063 -3.23777344 10.79078125 -3.26367188 10.0390625 C-3.30981636 6.65513396 -3.25324128 4.42141443 -1.48828125 1.484375 C-0.75158203 0.74960938 -0.75158203 0.74960938 0 0 Z " fill="#FEEFDB" transform="translate(68,91)"/>
<path d="M0 0 C2.28814723 2.28814723 2.75451161 3.80751622 3.6875 6.875 C3.95949219 7.73867187 4.23148438 8.60234375 4.51171875 9.4921875 C5.01692938 12.08694932 4.85561171 13.530785 4 16 C4 15.01 4 14.02 4 13 C2.35 14.32 0.7 15.64 -1 17 C-0.06666667 11.26666667 -0.06666667 11.26666667 0.625 8.5 C1.07970641 5.46862396 0.62447426 2.98359925 0 0 Z " fill="#EFA061" transform="translate(137,57)"/>
<path d="M0 0 C0.33 0 0.66 0 1 0 C1 2.64 1 5.28 1 8 C0.01 8.495 0.01 8.495 -1 9 C-1.73075648 11.3140622 -2.40138258 13.64828869 -3 16 C-3.66 16 -4.32 16 -5 16 C-4.49228528 10.03435204 -2.61407872 5.36190101 0 0 Z " fill="#F0A168" transform="translate(22,53)"/>
<path d="M0 0 C0.66 0.99 1.32 1.98 2 3 C1.67 3.33 1.34 3.66 1 4 C0.76472227 6.34987262 0.58613583 8.70556039 0.4375 11.0625 C0.35371094 12.35285156 0.26992188 13.64320312 0.18359375 14.97265625 C0.12300781 15.97167969 0.06242187 16.97070312 0 18 C-2.70454841 13.94317738 -2.42076588 10.75789116 -2 6 C-1 2.4375 -1 2.4375 0 0 Z " fill="#FEF2DE" transform="translate(55,69)"/>
<path d="M0 0 C0 3 0 3 -1 5 C-4.0625 5.625 -4.0625 5.625 -7 6 C-7.33 6.99 -7.66 7.98 -8 9 C-8.99 8.67 -9.98 8.34 -11 8 C-9.92130607 7.03644756 -8.83681257 6.07938583 -7.75 5.125 C-6.84507813 4.32449219 -6.84507813 4.32449219 -5.921875 3.5078125 C-4.02581254 2.0202513 -2.18709995 0.99677564 0 0 Z " fill="#FEF1DC" transform="translate(70,55)"/>
<path d="M0 0 C2.45823172 3.68734758 3.01242616 6.69699971 4 11 C3.01 10.01 2.02 9.02 1 8 C0.67 8.99 0.34 9.98 0 11 C-0.66 11 -1.32 11 -2 11 C-1.40049704 7.31733897 -0.75241109 3.65456815 0 0 Z " fill="#F5A66B" transform="translate(44,101)"/>
<path d="M0 0 C1.32 0.66 2.64 1.32 4 2 C3.55123384 3.64846769 3.09069512 5.29373455 2.625 6.9375 C2.36976562 7.85402344 2.11453125 8.77054688 1.8515625 9.71484375 C1 12 1 12 -1 13 C-0.67 8.71 -0.34 4.42 0 0 Z " fill="#F4B07B" transform="translate(100,61)"/>
<path d="M0 0 C0 4.31618166 -2.13270348 5.92789659 -5 9 C-5.66 9 -6.32 9 -7 9 C-6.875 6.75 -6.875 6.75 -6 4 C-2.9375 1.6875 -2.9375 1.6875 0 0 Z " fill="#ECA16B" transform="translate(130,121)"/>
<path d="M0 0 C4.20626034 1.50223584 5.73900021 4.28550034 8 8 C5.50638429 6.79618552 3.31856917 5.54571278 1 4 C0.67 4.99 0.34 5.98 0 7 C0 4.69 0 2.38 0 0 Z " fill="#FEEFDB" transform="translate(102,64)"/>
<path d="M0 0 C1.32 0.66 2.64 1.32 4 2 C2.70982586 2.98113243 1.41780894 3.95984199 0.125 4.9375 C-0.59429687 5.48277344 -1.31359375 6.02804688 -2.0546875 6.58984375 C-4 8 -4 8 -6 9 C-5.42655063 6.13275314 -5.1385485 5.1385485 -3 3 C-2.01 3 -1.02 3 0 3 C0 2.01 0 1.02 0 0 Z " fill="#EBA46F" transform="translate(64,55)"/>
<path d="M0 0 C0 0.99 0 1.98 0 3 C-2.5 5.1875 -2.5 5.1875 -5 7 C-5 6.34 -5 5.68 -5 5 C-5.66 4.67 -6.32 4.34 -7 4 C-4.69 2.68 -2.38 1.36 0 0 Z " fill="#FDDAB3" transform="translate(106,113)"/>
<path d="M0 0 C3.875 1.75 3.875 1.75 5 4 C3.35 4.33 1.7 4.66 0 5 C-0.66 4.01 -1.32 3.02 -2 2 C-1.34 2 -0.68 2 0 2 C0 1.34 0 0.68 0 0 Z " fill="#F2A063" transform="translate(116,32)"/>
<path d="M0 0 C3.875 1.875 3.875 1.875 5 3 C5.04092937 5.33297433 5.04241723 7.66705225 5 10 C3.33333333 6.66666667 1.66666667 3.33333333 0 0 Z " fill="#F1A66C" transform="translate(108,69)"/>
<path d="M0 0 C0.66 0.33 1.32 0.66 2 1 C1.75 2.875 1.75 2.875 1 5 C-1.0625 6.25 -1.0625 6.25 -3 7 C-3 6.01 -3 5.02 -3 4 C-2.34 4 -1.68 4 -1 4 C-0.67 2.68 -0.34 1.36 0 0 Z " fill="#F5A161" transform="translate(72,49)"/>
</svg>
