<?xml version="1.0" encoding="UTF-8"?>
<svg version="1.1" xmlns="http://www.w3.org/2000/svg" width="167" height="160">
<path d="M0 0 C1.04510742 0.00572021 2.09021484 0.01144043 3.16699219 0.01733398 C19.70923637 0.39537696 34.05567284 6.23822328 46.125 17.75 C51.02034545 22.89928268 54.9018677 28.27676408 58.3125 34.5 C58.71082031 35.21414062 59.10914063 35.92828125 59.51953125 36.6640625 C66.65059411 50.92618822 67.27481492 69.59060331 62.4375 84.73046875 C54.74720654 103.66247591 42.33939996 117.42468982 23.3125 125.5 C15.66830009 128.14927782 8.49871961 129.01859226 0.4375 128.9375 C-1.1395874 128.92722778 -1.1395874 128.92722778 -2.74853516 128.91674805 C-10.72807106 128.75202437 -17.33678549 127.76698423 -24.6875 124.5 C-25.54859375 124.149375 -26.4096875 123.79875 -27.296875 123.4375 C-42.70993994 116.54470077 -54.49739662 103.0222957 -60.6875 87.5 C-66.97906792 69.60529125 -65.9377937 52.30129477 -58 35.1875 C-49.23490586 19.01590131 -35.17019161 7.16780229 -17.54296875 1.8671875 C-11.66026545 0.32716597 -6.06263746 -0.03898961 0 0 Z " fill="#91A8DA" transform="translate(82.6875,12.5)"/>
<path d="M0 0 C0.33 0 0.66 0 1 0 C1.57883983 9.1167274 -0.4932646 15.23505154 -6.3125 22.3125 C-9.5759645 25.82753778 -12.68587025 27.92282642 -17 30 C-17.71285156 30.350625 -18.42570312 30.70125 -19.16015625 31.0625 C-23.03691248 32.34230948 -26.75392962 32.46170463 -30.8125 32.625 C-31.60076172 32.66367188 -32.38902344 32.70234375 -33.20117188 32.7421875 C-35.1337538 32.83588844 -37.06684376 32.91900779 -39 33 C-39.495 33.99 -39.495 33.99 -40 35 C-36.54078551 34.91785387 -33.08317495 34.8051401 -29.625 34.6875 C-28.65949219 34.66494141 -27.69398437 34.64238281 -26.69921875 34.61914062 C-18.22125635 34.3061957 -10.77770013 32.37033672 -3 29 C-3.2683014 32.8456534 -3.70596285 34.65695666 -6.25 37.625 C-7.1575 38.40875 -8.065 39.1925 -9 40 C-9.804375 40.721875 -10.60875 41.44375 -11.4375 42.1875 C-17.14311071 46.22317587 -23.0724756 46.34724092 -29.87304688 46.56640625 C-31.58633109 46.6449816 -33.29492331 46.81498551 -35 47 C-35.495 47.99 -35.495 47.99 -36 49 C-32.99978513 48.85785272 -29.99988211 48.71138304 -27 48.5625 C-26.16082031 48.52318359 -25.32164063 48.48386719 -24.45703125 48.44335938 C-19.25986542 48.18148668 -14.15542847 47.7100648 -9 47 C-10.76695142 51.77076884 -14.62853504 54.55132266 -18.8671875 57.140625 C-21.46222269 58.18624358 -23.46226926 58.19836134 -26.25 58.125 C-27.58804688 58.09792969 -27.58804688 58.09792969 -28.953125 58.0703125 C-29.62859375 58.04710937 -30.3040625 58.02390625 -31 58 C-30.34 58.99 -29.68 59.98 -29 61 C-29 61.99 -29 62.98 -29 64 C-36.43703189 69.88079181 -44.6043383 72.58238389 -54.02734375 72.375 C-61.82383533 71.39147412 -69.31920168 68.01653264 -74.53125 62.05078125 C-81.03692362 52.96706143 -82.40241566 43.8854168 -81 33 C-79.7966884 29.27636647 -78.19242169 26.22790949 -76 23 C-75.443125 22.0925 -74.88625 21.185 -74.3125 20.25 C-67.36735952 13.49256602 -60.12712539 10.87383767 -50.6328125 10.82421875 C-48.92446729 10.80098801 -47.21613396 10.77686944 -45.5078125 10.75195312 C-42.83130311 10.7171205 -40.15522206 10.68765334 -37.47851562 10.67407227 C-23.48583959 10.58929188 -10.4838633 10.4838633 0 0 Z " fill="#FBFCFC" transform="translate(126,42)"/>
<path d="M0 0 C0.66 1.32 1.32 2.64 2 4 C1.34 4 0.68 4 0 4 C0.226875 4.5775 0.45375 5.155 0.6875 5.75 C1 8 1 8 -0.4375 10.25 C-0.953125 10.8275 -1.46875 11.405 -2 12 C-1.505 12.99 -1.505 12.99 -1 14 C-2.55851755 14.82011312 -4.12201716 15.63076213 -5.6875 16.4375 C-6.99267578 17.11619141 -6.99267578 17.11619141 -8.32421875 17.80859375 C-12.63084252 19.72614156 -16.61878426 20.12503635 -21.30078125 20.09765625 C-22.27724609 20.09443359 -23.25371094 20.09121094 -24.25976562 20.08789062 C-25.26716797 20.07951172 -26.27457031 20.07113281 -27.3125 20.0625 C-28.33923828 20.05798828 -29.36597656 20.05347656 -30.42382812 20.04882812 C-32.94927882 20.03708184 -35.47460905 20.02065565 -38 20 C-37.505 18.515 -37.505 18.515 -37 17 C-35.87722656 16.97421875 -34.75445312 16.9484375 -33.59765625 16.921875 C-20.80195058 16.4959708 -12.13874612 14.61070014 -3 5 C-1.04339949 2.27966727 -1.04339949 2.27966727 0 0 Z " fill="#9AADD9" transform="translate(124,57)"/>
<path d="M0 0 C1.78059392 0.01005161 3.56119333 0.0191736 5.34179688 0.02734375 C9.66550259 0.04918052 13.98893926 0.08358963 18.3125 0.125 C14.45269846 2.69820102 11.21286751 2.43977445 6.734375 2.46875 C5.88957581 2.4833728 5.04477661 2.49799561 4.17437744 2.51306152 C1.47046653 2.55957211 -1.23337235 2.59374119 -3.9375 2.625 C-7.48463921 2.66632713 -11.03127774 2.72013375 -14.578125 2.78125 C-15.38566223 2.7865271 -16.19319946 2.7918042 -17.02520752 2.79724121 C-21.93457163 2.8827018 -26.02510518 3.56827904 -30.6875 5.125 C-30.6875 4.135 -30.6875 3.145 -30.6875 2.125 C-20.5317218 -0.44106616 -10.38691634 -0.10250564 0 0 Z " fill="#AAB8DA" transform="translate(90.6875,50.875)"/>
<path d="M0 0 C0 3 0 3 -1.5 4.6875 C-1.995 5.120625 -2.49 5.55375 -3 6 C-2.34 6.33 -1.68 6.66 -1 7 C-5.91502758 8.29235715 -10.77290102 8.11135517 -15.8125 8.0625 C-17.13797852 8.05573242 -17.13797852 8.05573242 -18.49023438 8.04882812 C-20.66018559 8.03709866 -22.83010172 8.01916495 -25 8 C-24.67 7.01 -24.34 6.02 -24 5 C-23.02160156 4.97421875 -22.04320313 4.9484375 -21.03515625 4.921875 C-13.31601212 4.58791006 -6.81117837 3.96857276 0 0 Z " fill="#9EAFD3" transform="translate(115,83)"/>
<path d="M0 0 C1.75032844 0.14183696 3.50025534 0.28863429 5.25 0.4375 C6.71179688 0.55931641 6.71179688 0.55931641 8.203125 0.68359375 C11 1 11 1 12.79492188 1.5 C15.57512472 2.13040915 18.22900566 2.21864235 21.078125 2.31640625 C22.23828125 2.35830078 23.3984375 2.40019531 24.59375 2.44335938 C25.8003125 2.48267578 27.006875 2.52199219 28.25 2.5625 C29.47203125 2.60568359 30.6940625 2.64886719 31.953125 2.69335938 C34.9686392 2.79937355 37.98423448 2.90143936 41 3 C36.08375917 5.8716862 31.11624413 5.38176049 25.5625 5.375 C24.48677734 5.37628906 23.41105469 5.37757813 22.30273438 5.37890625 C14.2339894 5.27177747 7.45327949 4.26080978 0 1 C0 0.67 0 0.34 0 0 Z " fill="#8896BC" transform="translate(58,136)"/>
<path d="M0 0 C5.94 0 11.88 0 18 0 C18.33 0.99 18.66 1.98 19 3 C12.4 3 5.8 3 -1 3 C-0.67 2.01 -0.34 1.02 0 0 Z " fill="#A6B3D5" transform="translate(87,74)"/>
<path d="M0 0 C0.33 0.66 0.66 1.32 1 2 C-0.66666667 3.66666667 -2.33333333 5.33333333 -4 7 C-4.556875 7.598125 -5.11375 8.19625 -5.6875 8.8125 C-7 10 -7 10 -9 10 C-9 10.66 -9 11.32 -9 12 C-9.99 12 -10.98 12 -12 12 C-12.33 12.99 -12.66 13.98 -13 15 C-13.66 14.67 -14.32 14.34 -15 14 C-10.40152315 8.51766007 -6.02552612 3.89148562 0 0 Z " fill="#7F8EB2" transform="translate(47,23)"/>
<path d="M0 0 C-0.47348414 4.1666604 -1.04696841 6.92884715 -4 10 C-4.66 10 -5.32 10 -6 10 C-6.33 9.01 -6.66 8.02 -7 7 C-7.66 6.67 -8.32 6.34 -9 6 C-9.33 5.34 -9.66 4.68 -10 4 C-8.71086513 3.32845067 -7.41859796 2.66291141 -6.125 2 C-5.40570313 1.62875 -4.68640625 1.2575 -3.9453125 0.875 C-2 0 -2 0 0 0 Z " fill="#EEF5FC" transform="translate(123,71)"/>
<path d="M0 0 C0.33 0 0.66 0 1 0 C1 6.27 1 12.54 1 19 C0.67 19 0.34 19 0 19 C-0.33 20.65 -0.66 22.3 -1 24 C-1.33 24 -1.66 24 -2 24 C-2.19676277 15.70316995 -2.25943749 8.04924606 0 0 Z " fill="#535E84" transform="translate(20,61)"/>
<path d="M0 0 C6.25107435 0.42954941 12.04204521 1.01401507 18 3 C17.67 3.66 17.34 4.32 17 5 C10.95198929 4.45018084 5.69398894 3.09570426 0 1 C0 0.67 0 0.34 0 0 Z " fill="#7C89AD" transform="translate(58,136)"/>
<path d="M0 0 C1.74093471 2.26321512 3.3643077 4.55233749 4.9375 6.9375 C6.83364701 9.75299101 8.84341417 12.38128864 11 15 C9.0625 14.6875 9.0625 14.6875 7 14 C6.67 13.01 6.34 12.02 6 11 C5.34 11 4.68 11 4 11 C2.67578125 9.609375 2.67578125 9.609375 1.3125 7.75 C0.85488281 7.14671875 0.39726563 6.5434375 -0.07421875 5.921875 C-1 4 -1 4 -0.64453125 1.765625 C-0.43183594 1.18296875 -0.21914063 0.6003125 0 0 Z " fill="#9EAED5" transform="translate(46,94)"/>
<path d="M0 0 C2 2 2 2 2 4 C0.35 4.33 -1.3 4.66 -3 5 C-3 4.01 -3 3.02 -3 2 C-2.01 1.34 -1.02 0.68 0 0 Z M-6 4 C-5.34 4.33 -4.68 4.66 -4 5 C-4.78345715 6.17219543 -5.57702836 7.33763668 -6.375 8.5 C-6.81585938 9.1496875 -7.25671875 9.799375 -7.7109375 10.46875 C-8.13632812 10.9740625 -8.56171875 11.479375 -9 12 C-9.66 12 -10.32 12 -11 12 C-9.62845496 9.04590299 -8.01136276 6.55991624 -6 4 Z " fill="#EDF3FB" transform="translate(60,56)"/>
<path d="M0 0 C2.31 0.66 4.62 1.32 7 2 C7 2.99 7 3.98 7 5 C4 6 4 6 1 5 C0.67 3.35 0.34 1.7 0 0 Z " fill="#8090B4" transform="translate(104,16)"/>
<path d="M0 0 C3.96 0 7.92 0 12 0 C11.01 1.485 11.01 1.485 10 3 C7.3984375 3.29296875 7.3984375 3.29296875 4.375 3.1875 C2.87066406 3.14689453 2.87066406 3.14689453 1.3359375 3.10546875 C0.56507812 3.07066406 -0.20578125 3.03585938 -1 3 C-0.67 2.01 -0.34 1.02 0 0 Z " fill="#AEBBD7" transform="translate(91,88)"/>
<path d="M0 0 C2.31 0 4.62 0 7 0 C7.33 0.99 7.66 1.98 8 3 C7.071875 3.185625 7.071875 3.185625 6.125 3.375 C3.80879168 3.87197356 3.80879168 3.87197356 2 6 C1.34 4.02 0.68 2.04 0 0 Z " fill="#A3B1DB" transform="translate(95,100)"/>
<path d="M0 0 C0.8971875 0.309375 0.8971875 0.309375 1.8125 0.625 C0.71804162 1.49157116 -0.38847781 2.34292724 -1.5 3.1875 C-2.11488281 3.66316406 -2.72976562 4.13882813 -3.36328125 4.62890625 C-3.96527344 4.95761719 -4.56726563 5.28632813 -5.1875 5.625 C-6.1775 5.295 -7.1675 4.965 -8.1875 4.625 C-7.1975 4.295 -6.2075 3.965 -5.1875 3.625 C-5.1875 2.965 -5.1875 2.305 -5.1875 1.625 C-2.1875 -0.375 -2.1875 -0.375 0 0 Z " fill="#7C8CAB" transform="translate(121.1875,127.375)"/>
<path d="M0 0 C-3.1254959 2.64465038 -6.08788267 3.84414715 -10 5 C-9 2 -9 2 -7.25 0.8125 C-4.70039426 -0.10819096 -2.69076919 -0.14948718 0 0 Z " fill="#7E8CAF" transform="translate(114,133)"/>
<path d="M0 0 C-1.36983503 3.16115776 -1.9890638 3.9927092 -5 6 C-5 5.01 -5 4.02 -5 3 C-5.99 2.34 -6.98 1.68 -8 1 C-5.23735711 0.40267181 -2.83967231 0 0 0 Z " fill="#E0EDF9" transform="translate(117,89)"/>
<path d="M0 0 C0.99 0.33 1.98 0.66 3 1 C-3.28571429 6.57142857 -3.28571429 6.57142857 -7 7 C-7 6.34 -7 5.68 -7 5 C-5.57421875 3.67578125 -5.57421875 3.67578125 -3.6875 2.3125 C-3.07261719 1.85488281 -2.45773438 1.39726563 -1.82421875 0.92578125 C-1.22222656 0.62027344 -0.62023437 0.31476562 0 0 Z " fill="#9EAFD2" transform="translate(122,43)"/>
<path d="M0 0 C1.32 0.66 2.64 1.32 4 2 C2.35 3.32 0.7 4.64 -1 6 C-1.33 4.68 -1.66 3.36 -2 2 C-1.34 2 -0.68 2 0 2 C0 1.34 0 0.68 0 0 Z " fill="#8190B6" transform="translate(125,121)"/>
<path d="M0 0 C-5.41538462 4.06153846 -5.41538462 4.06153846 -8.375 3.75 C-8.91125 3.5025 -9.4475 3.255 -10 3 C-3.375 -1.125 -3.375 -1.125 0 0 Z " fill="#A0B0D2" transform="translate(97,108)"/>
<path d="M0 0 C1.32 0.66 2.64 1.32 4 2 C-1.75 5 -1.75 5 -4 5 C-4 4.34 -4 3.68 -4 3 C-2 1.375 -2 1.375 0 0 Z " fill="#EFF6FB" transform="translate(109,68)"/>
<path d="M0 0 C0.33 0.99 0.66 1.98 1 3 C0.67 3.66 0.34 4.32 0 5 C-2.97 4.505 -2.97 4.505 -6 4 C-5.34 3.34 -4.68 2.68 -4 2 C-2.68 2 -1.36 2 0 2 C0 1.34 0 0.68 0 0 Z " fill="#8B9FC9" transform="translate(60,131)"/>
<path d="M0 0 C1.98 0.66 3.96 1.32 6 2 C6.33 3.65 6.66 5.3 7 7 C5.83040013 6.02433888 4.66438823 5.044375 3.5 4.0625 C2.8503125 3.51722656 2.200625 2.97195312 1.53125 2.41015625 C1.0259375 1.94480469 0.520625 1.47945313 0 1 C0 0.67 0 0.34 0 0 Z " fill="#6E779D" transform="translate(34,119)"/>
</svg>
