<?xml version="1.0" encoding="UTF-8"?>
<svg version="1.1" xmlns="http://www.w3.org/2000/svg" width="154" height="152">
<path d="M0 0 C1.00659668 0.00829834 2.01319336 0.01659668 3.05029297 0.02514648 C19.00448904 0.38663085 33.18567677 6.7635273 44.9375 17.5625 C46.625 19.4375 46.625 19.4375 46.625 21.4375 C47.285 21.4375 47.945 21.4375 48.625 21.4375 C53.97904861 27.6546698 57.66906557 34.83652575 60.625 42.4375 C60.94597656 43.21867187 61.26695312 43.99984375 61.59765625 44.8046875 C66.77180931 59.86989594 64.71014062 78.10876956 58.3046875 92.37890625 C49.73035868 109.22301123 36.27941716 120.01655707 18.7421875 126.50390625 C1.22239597 131.79049058 -16.16315366 129.32204034 -32.24609375 120.94140625 C-47.47338897 111.93462312 -58.70450921 97.5300291 -63.375 80.4375 C-67.62077733 63.66319938 -64.80976559 45.91956341 -56.0625 31.02734375 C-46.00571327 15.59296966 -32.10746827 5.64660884 -14.28588867 1.02416992 C-9.51560821 0.06275216 -4.85368669 -0.05207114 0 0 Z " fill="#5369AA" transform="translate(79.375,13.5625)"/>
<path d="M0 0 C8.80684547 5.02387765 16.07931924 12.95071683 18.828125 22.921875 C21.0983955 38.19660759 18.29556976 49.11906685 9.23046875 61.62890625 C11.87046875 63.27890625 14.51046875 64.92890625 17.23046875 66.62890625 C9.77445816 74.08491684 -8.12186229 72.09767935 -17.82104492 72.15014648 C-29.20702976 71.98440431 -36.55133246 70.16498148 -45.2265625 62.44140625 C-49.46013405 58.0476455 -52.4592551 53.2559155 -54.76953125 47.62890625 C-55.29933594 46.57123047 -55.29933594 46.57123047 -55.83984375 45.4921875 C-58.72633177 36.60228953 -58.26040144 24.36400605 -54.33203125 15.94140625 C-42.51685488 -3.64909695 -20.41109669 -10.10478835 0 0 Z " fill="#FCFDFD" transform="translate(95.76953125,43.37109375)"/>
<path d="M0 0 C0.66 0 1.32 0 2 0 C2.28875 1.11375 2.5775 2.2275 2.875 3.375 C3.69241329 7.00291092 3.69241329 7.00291092 6 9 C8.32275177 9.40047444 10.65739357 9.7397104 13 10 C11.74425659 13.87187551 10.65992073 16.06837517 7 18 C4.0625 18.5 4.0625 18.5 1 18 C-1.8125 15.5625 -1.8125 15.5625 -4 13 C-4.33 12.67 -4.66 12.34 -5 12 C-5.41410115 9.0322751 -5.53774091 6.88887769 -3.953125 4.26953125 C-2.625 2.625 -2.625 2.625 0 0 Z " fill="#6176AF" transform="translate(57,62)"/>
<path d="M0 0 C4.875 2.75 4.875 2.75 6 5 C6.39447548 9.18144011 6.45035186 11.30946048 4.125 14.875 C1.62545713 17.37454287 0.67824042 17.90956794 -2.8125 18.375 C-7.0592261 17.87538516 -8.34898555 16.25696061 -11 13 C-11.33 12.01 -11.66 11.02 -12 10 C-11.38511719 9.9484375 -10.77023438 9.896875 -10.13671875 9.84375 C-7.53730069 9.4789194 -5.40515796 9.06611612 -3 8 C-1.23979079 5.3379552 -0.76466478 3.16061444 0 0 Z " fill="#5E73A9" transform="translate(95,62)"/>
<path d="M0 0 C5.7043186 8.5564779 4.01208976 24.1392942 2.328125 33.890625 C1.65395854 36.32016828 0.93978357 38.66172897 0 41 C-1.08774504 37.69112523 -0.85318108 35.55177046 -0.0625 32.1875 C1.95086516 21.95631786 1.55723682 12.05846481 -1 2 C-0.67 1.34 -0.34 0.68 0 0 Z " fill="#5B6999" transform="translate(140,59)"/>
<path d="M0 0 C2.64 0 5.28 0 8 0 C5.125 4.875 5.125 4.875 4 6 C2.33382885 6.04063832 0.66611905 6.042721 -1 6 C-1.66 4.68 -2.32 3.36 -3 2 C-2.01 2.33 -1.02 2.66 0 3 C0 2.01 0 1.02 0 0 Z " fill="#586AA3" transform="translate(62,73)"/>
<path d="M0 0 C4.875 2.75 4.875 2.75 6 5 C6.40423599 9.28490153 6.45828448 11.32689468 4 14.9375 C3.01 15.9584375 3.01 15.9584375 2 17 C0.68 16.67 -0.64 16.34 -2 16 C-1.01 16 -0.02 16 1 16 C1.33 15.01 1.66 14.02 2 13 C2.66 13 3.32 13 4 13 C3.67 10.03 3.34 7.06 3 4 C2.01 4 1.02 4 0 4 C0 2.68 0 1.36 0 0 Z " fill="#64729C" transform="translate(95,62)"/>
<path d="M0 0 C0.66 0 1.32 0 2 0 C1.67 2.31 1.34 4.62 1 7 C0.071875 7.12375 0.071875 7.12375 -0.875 7.25 C-3.18437567 7.81258459 -3.18437567 7.81258459 -4.25 10.0625 C-4.4975 10.701875 -4.745 11.34125 -5 12 C-5.34934248 9.06552319 -5.51495218 6.85632498 -3.95703125 4.265625 C-2.625 2.625 -2.625 2.625 0 0 Z " fill="#707DAF" transform="translate(57,62)"/>
<path d="M0 0 C0.99 0.33 1.98 0.66 3 1 C3 3.31 3 5.62 3 8 C2.01 8 1.02 8 0 8 C-1.6875 5.5 -1.6875 5.5 -3 3 C-2.01 2.01 -1.02 1.02 0 0 Z " fill="#576EAE" transform="translate(96,65)"/>
<path d="M0 0 C0.66 2.97 1.32 5.94 2 9 C0.68 8.67 -0.64 8.34 -2 8 C-2.33 5.69 -2.66 3.38 -3 1 C-1 0 -1 0 0 0 Z " fill="#596BA7" transform="translate(56,69)"/>
<path d="M0 0 C0.0825 0.556875 0.165 1.11375 0.25 1.6875 C1.22610013 4.69714206 2.95188814 6.62154752 5 9 C1.62496331 7.8141763 -0.64722731 6.72426311 -3 4 C-2.01 2.68 -1.02 1.36 0 0 Z " fill="#636FA2" transform="translate(107,100)"/>
<path d="M0 0 C4.83092224 2.47739602 4.83092224 2.47739602 5.6875 5.125 C5.790625 5.74375 5.89375 6.3625 6 7 C6.66 7.33 7.32 7.66 8 8 C7.01 8 6.02 8 5 8 C0 2.65116279 0 2.65116279 0 0 Z " fill="#616FA5" transform="translate(25,112)"/>
<path d="M0 0 C0.66 0 1.32 0 2 0 C0.79157144 4.43090471 -0.51668565 6.98112756 -4 10 C-3.29445932 6.33118845 -1.72264494 3.29549466 0 0 Z " fill="#5E6EA1" transform="translate(135,105)"/>
<path d="M0 0 C4.875 4.625 4.875 4.625 6 8 C5.34 8 4.68 8 4 8 C4 7.34 4 6.68 4 6 C3.01 5.67 2.02 5.34 1 5 C0.67 3.35 0.34 1.7 0 0 Z " fill="#5B6CA1" transform="translate(127,36)"/>
</svg>
