<?xml version="1.0" encoding="UTF-8"?>
<svg version="1.1" xmlns="http://www.w3.org/2000/svg" width="169" height="146">
<path d="M0 0 C11.48056588 9.54344254 20.9794021 24.25962242 22.9375 39.3125 C24.27043788 57.45896825 22.52483073 74.17457751 10.8671875 88.93359375 C8.63698702 91.48627966 6.33010645 93.91189152 3.9375 96.3125 C3.24914062 97.0240625 2.56078125 97.735625 1.8515625 98.46875 C-10.6992419 110.59963901 -26.65817788 114.82595189 -43.70410156 114.66210938 C-62.08868376 114.14814674 -76.59709495 106.40953511 -89.0625 93.3125 C-101.91805719 79.25548887 -105.91675621 63.04234378 -105.41015625 44.453125 C-104.57116197 28.08221155 -96.52444185 13.41178902 -84.8203125 2.15625 C-60.05757486 -18.95296897 -25.74092764 -19.39331614 0 0 Z " fill="#65BA5D" transform="translate(129.0625,19.6875)"/>
<path d="M0 0 C0.30592531 2.58324098 0.42003704 4.92220728 0.3984375 7.5078125 C0.40130768 8.26609344 0.40417786 9.02437439 0.40713501 9.80563354 C0.40918111 11.4213739 0.40361319 13.03713873 0.39111328 14.65283203 C0.37537584 17.06733676 0.39077709 19.48008627 0.41015625 21.89453125 C0.43218689 38.43826711 -0.79465283 56.47053625 -12.7265625 69.0234375 C-20.4774622 75.76219222 -30.29453985 78.46481218 -40.40234375 78.26171875 C-46.05854346 77.691846 -51.27080732 76.15279512 -56 73 C-54.60466338 68.56029258 -52.43871468 66.09484321 -49 63 C-46.03694273 61.51847137 -42.88025948 61.47560106 -39.625 61.125 C-32.55638571 60.31345393 -25.87296991 58.89006672 -19 57 C-29.89 56.505 -29.89 56.505 -41 56 C-41 51.53186498 -40.46486267 50.75690378 -37.8125 47.375 C-37.22082031 46.59898438 -36.62914062 45.82296875 -36.01953125 45.0234375 C-31.86434391 40.86021304 -26.47704442 40.40178633 -20.875 39.4375 C-15.37449299 38.48915022 -15.37449299 38.48915022 -10 37 C-11.99616554 35.00383446 -15.81701963 35.59016573 -18.5625 35.4375 C-19.27341797 35.39431641 -19.98433594 35.35113281 -20.71679688 35.30664062 C-22.47761912 35.20028223 -24.2387832 35.09961154 -26 35 C-25.59869337 29.68011467 -22.58932481 26.36934317 -19.4375 22.3125 C-18.41120811 20.97844772 -17.38885889 19.64135002 -16.37109375 18.30078125 C-15.91661865 17.71466064 -15.46214355 17.12854004 -14.99389648 16.5246582 C-13.81796803 15.02409303 -13.81796803 15.02409303 -14 13 C-14.49628906 13.50789063 -14.99257812 14.01578125 -15.50390625 14.5390625 C-19.40530709 18.4922846 -23.34677403 22.26228953 -27.65234375 25.7734375 C-29.13979147 26.97920282 -29.13979147 26.97920282 -30 29 C-30.99 29 -31.98 29 -33 29 C-34.32 23.39 -35.64 17.78 -37 12 C-37.87104288 17.17893788 -37.87104288 17.17893788 -38.0703125 22.2421875 C-38.17501461 36.21692819 -38.17501461 36.21692819 -42.375 40.9375 C-43.55076122 41.9956851 -44.75768949 43.02079892 -46 44 C-46.50789063 44.55816406 -47.01578125 45.11632812 -47.5390625 45.69140625 C-49 47 -49 47 -52 47 C-52.29003906 45.26363281 -52.29003906 45.26363281 -52.5859375 43.4921875 C-52.84871147 41.95308283 -53.11174612 40.41402266 -53.375 38.875 C-53.56449219 37.73417969 -53.56449219 37.73417969 -53.7578125 36.5703125 C-53.88671875 35.82265625 -54.015625 35.075 -54.1484375 34.3046875 C-54.26364746 33.62390137 -54.37885742 32.94311523 -54.49755859 32.24169922 C-55.13022716 29.4189768 -56.05310283 26.73130266 -57 24 C-56.99363525 24.8971875 -56.98727051 25.794375 -56.98071289 26.71875 C-56.97354668 30.08209246 -56.99783062 33.44227667 -57.04272461 36.80517578 C-57.05577862 38.25401035 -57.05667746 39.70301178 -57.04467773 41.15185547 C-56.9464947 54.7198155 -56.9464947 54.7198155 -61.37109375 60 C-64.41271552 63 -64.41271552 63 -68 63 C-73.66778727 52.63790037 -76.94423551 42.83092964 -73.875 31.0625 C-70.83534645 21.81570347 -65.12048947 14.35988347 -56.56640625 9.6640625 C-45.8534483 4.53303765 -34.87629719 1.82718004 -23.25 -0.25 C-22.2796582 -0.42539307 -21.30931641 -0.60078613 -20.30957031 -0.78149414 C-5.05135024 -3.36756683 -5.05135024 -3.36756683 0 0 Z " fill="#F8FDF7" transform="translate(125,33)"/>
<path d="M0 0 C0.66 0.33 1.32 0.66 2 1 C2.63234514 3.26832064 3.15773875 5.56701261 3.625 7.875 C4.01558594 9.75832031 4.01558594 9.75832031 4.4140625 11.6796875 C5 15 5 15 5 18 C5.99 18 6.98 18 8 18 C8.26280762 17.40670898 8.52561523 16.81341797 8.79638672 16.20214844 C10.05738434 13.89500878 11.32066575 12.5266675 13.2578125 10.765625 C13.88300781 10.19199219 14.50820312 9.61835937 15.15234375 9.02734375 C15.80332031 8.44082031 16.45429687 7.85429688 17.125 7.25 C17.78371094 6.64800781 18.44242188 6.04601563 19.12109375 5.42578125 C20.74268509 3.94519785 22.36902454 2.47022875 24 1 C24.66 1.33 25.32 1.66 26 2 C24.58564218 4.06411622 23.16860148 6.12630317 21.75 8.1875 C21.35425781 8.76564453 20.95851562 9.34378906 20.55078125 9.93945312 C18.70401892 12.61877224 16.85473264 15.17396528 14.765625 17.67578125 C13.07915661 19.89580049 12.40311109 21.27900015 12 24 C13.57201172 23.96519531 13.57201172 23.96519531 15.17578125 23.9296875 C16.55468037 23.91092697 17.9335872 23.89272707 19.3125 23.875 C20.00279297 23.85824219 20.69308594 23.84148437 21.40429688 23.82421875 C25.17135396 23.78782206 26.78431704 23.85621136 30 26 C24.96570862 27.88785927 20.3960621 29.10394113 15.046875 29.77636719 C8.57552108 30.65419436 4.29379449 31.73543946 0 37.0625 C-2.33386372 40.26536474 -2.33386372 40.26536474 -3 44 C-2.34402832 44.01981934 -1.68805664 44.03963867 -1.01220703 44.06005859 C1.95061069 44.15512507 4.91270532 44.26487752 7.875 44.375 C8.90753906 44.4059375 9.94007812 44.436875 11.00390625 44.46875 C11.99003906 44.50742188 12.97617188 44.54609375 13.9921875 44.5859375 C14.90339355 44.6173584 15.81459961 44.6487793 16.75341797 44.68115234 C19 45 19 45 21 47 C17.87669547 47.65421182 14.75109398 48.29676159 11.625 48.9375 C10.31982422 49.21110352 10.31982422 49.21110352 8.98828125 49.49023438 C3.69544009 50.56840572 -1.50411296 51.325846 -6.89306641 51.71948242 C-9.82105933 52.10931601 -11.72350318 53.15034633 -14 55 C-14.66 55.99 -15.32 56.98 -16 58 C-19.625 58.1875 -19.625 58.1875 -23 58 C-23 56.68 -23 55.36 -23 54 C-22.34 54 -21.68 54 -21 54 C-21.185625 52.72125 -21.37125 51.4425 -21.5625 50.125 C-22.125 46.25 -22.125 46.25 -21 44 C-20.86872524 41.7001992 -20.79711193 39.39688918 -20.75390625 37.09375 C-20.72097917 35.69660805 -20.68776734 34.29947279 -20.65429688 32.90234375 C-20.60680015 30.69682243 -20.56234611 28.4913304 -20.52319336 26.28564453 C-20.48356305 24.15889715 -20.43201079 22.03269752 -20.37890625 19.90625 C-20.3538501 18.63072266 -20.32879395 17.35519531 -20.30297852 16.04101562 C-20 13 -20 13 -18 11 C-15.86101998 19.34067679 -14.44953032 27.39691968 -14 36 C-8.85025564 33.02557869 -4.75207622 30.41489592 -2 25 C-0.98647802 19.77315847 -1.07993201 14.4407625 -1.06347656 9.13623047 C-0.97128648 6.0336795 -0.51191557 3.05930495 0 0 Z " fill="#67B960" transform="translate(87,44)"/>
<path d="M0 0 C0.66 0.33 1.32 0.66 2 1 C0.58564218 3.06411622 -0.83139852 5.12630317 -2.25 7.1875 C-2.64574219 7.76564453 -3.04148437 8.34378906 -3.44921875 8.93945312 C-5.28872684 11.60824765 -7.12265592 14.14511405 -9.21875 16.625 C-11.08750821 19.11667761 -11.70641604 20.77748957 -12.25 23.8125 C-12.39953125 24.60269531 -12.5490625 25.39289063 -12.703125 26.20703125 C-12.80109375 26.79871094 -12.8990625 27.39039062 -13 28 C-20.42857143 30.14285714 -20.42857143 30.14285714 -24 31 C-24.66 29.68 -25.32 28.36 -26 27 C-25.34 26.34 -24.68 25.68 -24 25 C-23.75684344 22.33050591 -23.75684344 22.33050591 -23.875 19.375 C-23.89304687 18.37210938 -23.91109375 17.36921875 -23.9296875 16.3359375 C-23.95289062 15.56507812 -23.97609375 14.79421875 -24 14 C-23.01 13.67 -22.02 13.34 -21 13 C-20.01 14.485 -20.01 14.485 -19 16 C-18.01 16.33 -17.02 16.66 -16 17 C-15.60578857 16.11006348 -15.60578857 16.11006348 -15.20361328 15.20214844 C-13.94261566 12.89500878 -12.67933425 11.5266675 -10.7421875 9.765625 C-10.11699219 9.19199219 -9.49179688 8.61835937 -8.84765625 8.02734375 C-8.19667969 7.44082031 -7.54570313 6.85429688 -6.875 6.25 C-6.21628906 5.64800781 -5.55757812 5.04601563 -4.87890625 4.42578125 C-3.25731491 2.94519785 -1.63097546 1.47022875 0 0 Z " fill="#63BB5A" transform="translate(111,45)"/>
<path d="M0 0 C1.91788673 2.87683009 2.36757362 4.10130805 2.88671875 7.37890625 C3.02013672 8.21744141 3.15355469 9.05597656 3.29101562 9.91992188 C3.42185547 10.79197266 3.55269531 11.66402344 3.6875 12.5625 C3.82994141 13.43841797 3.97238281 14.31433594 4.11914062 15.21679688 C5.12885802 21.74228395 5.12885802 21.74228395 4 24 C3.34 21.69 2.68 19.38 2 17 C1.95101562 18.03640625 1.90203125 19.0728125 1.8515625 20.140625 C1.77650403 21.51044208 1.70095753 22.88023248 1.625 24.25 C1.5940625 24.93191406 1.563125 25.61382812 1.53125 26.31640625 C1.31740626 29.98739038 0.98922945 32.86251616 -1 36 C-1.66 35.67 -2.32 35.34 -3 35 C-2.67 34.34 -2.34 33.68 -2 33 C-1.8567407 30.70046668 -1.77345292 28.39709199 -1.71875 26.09375 C-1.70034058 25.41324585 -1.68193115 24.7327417 -1.66296387 24.03161621 C-1.60417684 21.85449913 -1.55137189 19.67730393 -1.5 17.5 C-1.43240828 14.63524799 -1.35874223 11.77074937 -1.28125 8.90625 C-1.23581055 6.99295898 -1.23581055 6.99295898 -1.18945312 5.04101562 C-1 2 -1 2 0 0 Z " fill="#73B66D" transform="translate(68,55)"/>
<path d="M0 0 C0.66 0.33 1.32 0.66 2 1 C0.58564218 3.06411622 -0.83139852 5.12630317 -2.25 7.1875 C-2.64574219 7.76564453 -3.04148437 8.34378906 -3.44921875 8.93945312 C-5.30111166 11.6262158 -7.16878567 14.20685096 -9.234375 16.73828125 C-11.17309505 18.96177096 -11.17309505 18.96177096 -12 22 C-12.66 22 -13.32 22 -14 22 C-14.33 21.01 -14.66 20.02 -15 19 C-17.01508358 18.26676204 -17.01508358 18.26676204 -19 18 C-18.01 17.67 -17.02 17.34 -16 17 C-15.30307043 15.68223242 -14.63948731 14.34658019 -14 13 C-12.48779297 11.35253906 -12.48779297 11.35253906 -10.7421875 9.765625 C-9.80439453 8.90517578 -9.80439453 8.90517578 -8.84765625 8.02734375 C-8.19667969 7.44082031 -7.54570313 6.85429688 -6.875 6.25 C-6.21628906 5.64800781 -5.55757812 5.04601563 -4.87890625 4.42578125 C-3.25731491 2.94519785 -1.63097546 1.47022875 0 0 Z " fill="#72BA6C" transform="translate(111,45)"/>
<path d="M0 0 C1.95803507 -0.05389087 3.91648909 -0.09274217 5.875 -0.125 C7.51082031 -0.15980469 7.51082031 -0.15980469 9.1796875 -0.1953125 C12 0 12 0 14 2 C10.85721216 2.68157937 7.71039147 3.34243058 4.5625 4 C3.68400391 4.19078125 2.80550781 4.3815625 1.90039062 4.578125 C-3.85485387 5.76740062 -9.12367891 6.19129428 -15 6 C-14.67 5.34 -14.34 4.68 -14 4 C-11.05859375 3.5859375 -11.05859375 3.5859375 -7.4375 3.375 C-6.23996094 3.30023438 -5.04242188 3.22546875 -3.80859375 3.1484375 C-2.88175781 3.09945312 -1.95492187 3.05046875 -1 3 C-0.67 2.01 -0.34 1.02 0 0 Z " fill="#82BA7C" transform="translate(94,89)"/>
<path d="M0 0 C0.33 0.66 0.66 1.32 1 2 C2.32 1.67 3.64 1.34 5 1 C4.50628906 1.95261719 4.01257812 2.90523437 3.50390625 3.88671875 C2.85644963 5.15348171 2.20933206 6.42041801 1.5625 7.6875 C1.23701172 8.31333984 0.91152344 8.93917969 0.57617188 9.58398438 C-1.17752313 13.03713639 -2.47760497 16.15193519 -3 20 C-3.33 20 -3.66 20 -4 20 C-4.02698422 17.56242587 -4.04683099 15.12515085 -4.0625 12.6875 C-4.07087891 11.99720703 -4.07925781 11.30691406 -4.08789062 10.59570312 C-4.10307906 7.4516975 -4.00193327 5.00579981 -3 2 C-2.01 2 -1.02 2 0 2 C0 1.34 0 0.68 0 0 Z " fill="#6CB964" transform="translate(54,49)"/>
<path d="M0 0 C-1.12148437 0.59748047 -1.12148437 0.59748047 -2.265625 1.20703125 C-3.25046875 1.73683594 -4.2353125 2.26664063 -5.25 2.8125 C-6.22453125 3.33457031 -7.1990625 3.85664062 -8.203125 4.39453125 C-10.63355412 5.78965188 -12.80787699 7.26195961 -15 9 C-15.33 7.35 -15.66 5.7 -16 4 C-11.375 0 -11.375 0 -8 0 C-7.175 -0.185625 -6.35 -0.37125 -5.5 -0.5625 C-3 -1 -3 -1 0 0 Z " fill="#71B969" transform="translate(74,41)"/>
<path d="M0 0 C0.99 0.495 0.99 0.495 2 1 C2.63860769 3.69797102 3.16825242 6.33366623 3.625 9.0625 C3.7590625 9.82111328 3.893125 10.57972656 4.03125 11.36132812 C4.36200122 13.23952258 4.68200734 15.11960338 5 17 C4.34 16.67 3.68 16.34 3 16 C3 15.34 3 14.68 3 14 C2.01 14.33 1.02 14.66 0 15 C0 10.05 0 5.1 0 0 Z " fill="#77B973" transform="translate(87,44)"/>
<path d="M0 0 C0.66 0.33 1.32 0.66 2 1 C-0.97 5.29 -3.94 9.58 -7 14 C-7.33 13.01 -7.66 12.02 -8 11 C-8.99 10.67 -9.98 10.34 -11 10 C-9.93458984 9.04287109 -9.93458984 9.04287109 -8.84765625 8.06640625 C-7.46900391 6.82697266 -7.46900391 6.82697266 -6.0625 5.5625 C-4.68771484 4.32693359 -4.68771484 4.32693359 -3.28515625 3.06640625 C-1.61665644 1.56046061 -1.61665644 1.56046061 0 0 Z " fill="#73B76D" transform="translate(111,45)"/>
<path d="M0 0 C0.66 0 1.32 0 2 0 C2.33 0.99 2.66 1.98 3 3 C2.071875 3.53625 1.14375 4.0725 0.1875 4.625 C-3.29065957 7.21656987 -4.1675182 9.16844716 -6 13 C-8.1875 14.375 -8.1875 14.375 -10 15 C-8.59983383 10.95264468 -6.6818763 8.01519578 -4 4.6875 C-3.29875 3.80449219 -2.5975 2.92148437 -1.875 2.01171875 C-1.25625 1.34785156 -0.6375 0.68398438 0 0 Z " fill="#75B66E" transform="translate(42,24)"/>
<path d="M0 0 C2.31 0.33 4.62 0.66 7 1 C7 2.32 7 3.64 7 5 C8.92022703 6.77409808 8.92022703 6.77409808 11 8 C8.69 8.33 6.38 8.66 4 9 C3.896875 8.21625 3.79375 7.4325 3.6875 6.625 C3.22404978 3.66954819 3.22404978 3.66954819 0 2 C0 1.34 0 0.68 0 0 Z M2 9 C4 10 4 10 4 10 Z " fill="#6FBB69" transform="translate(63,101)"/>
<path d="M0 0 C0.33 0.66 0.66 1.32 1 2 C0.34 3.32 -0.32 4.64 -1 6 C4.61 6.33 10.22 6.66 16 7 C16 7.33 16 7.66 16 8 C9.73 8 3.46 8 -3 8 C-3 3.73173127 -2.62386487 3.06117568 0 0 Z " fill="#E7FCE4" transform="translate(87,81)"/>
<path d="M0 0 C2.02350324 3.03525486 2.32124018 4.19426202 2.625 7.6875 C2.69976562 8.49574219 2.77453125 9.30398437 2.8515625 10.13671875 C2.90054688 10.75160156 2.94953125 11.36648437 3 12 C2.34 11.67 1.68 11.34 1 11 C0.34 11.66 -0.32 12.32 -1 13 C-1.02696365 11.20841511 -1.04637917 9.41671527 -1.0625 7.625 C-1.07410156 6.62726562 -1.08570312 5.62953125 -1.09765625 4.6015625 C-1 2 -1 2 0 0 Z " fill="#90C58B" transform="translate(68,55)"/>
<path d="M0 0 C0.625 2.5625 0.625 2.5625 1 5 C-3.40114397 4.49701212 -5.71195019 2.91227269 -9 0 C-2.25 -1.125 -2.25 -1.125 0 0 Z " fill="#76BC6D" transform="translate(63,124)"/>
<path d="M0 0 C3.3 0 6.6 0 10 0 C10.33 0.99 10.66 1.98 11 3 C8.69 3.33 6.38 3.66 4 4 C3.67 3.34 3.34 2.68 3 2 C2.01 1.34 1.02 0.68 0 0 Z " fill="#6DB565" transform="translate(84,89)"/>
<path d="M0 0 C2 2 2 2 2.125 4.625 C2.08375 5.40875 2.0425 6.1925 2 7 C-0.31 6.67 -2.62 6.34 -5 6 C-3.35 4.02 -1.7 2.04 0 0 Z " fill="#70B869" transform="translate(64,91)"/>
<path d="M0 0 C1.60379341 -0.05416188 3.20811406 -0.09286638 4.8125 -0.125 C5.70582031 -0.14820312 6.59914063 -0.17140625 7.51953125 -0.1953125 C10 0 10 0 13 2 C10.69 2.66 8.38 3.32 6 4 C5.34 3.34 4.68 2.68 4 2 C2.68252676 1.30251417 1.35085807 0.63040043 0 0 Z " fill="#8BBC87" transform="translate(104,68)"/>
<path d="M0 0 C0.66 0.99 1.32 1.98 2 3 C-0.64 5.31 -3.28 7.62 -6 10 C-6.66 9.67 -7.32 9.34 -8 9 C-5.36 6.03 -2.72 3.06 0 0 Z " fill="#E7FBE2" transform="translate(63,46)"/>
<path d="M0 0 C1.98 0.99 1.98 0.99 4 2 C3.979375 2.763125 3.95875 3.52625 3.9375 4.3125 C3.87057159 7.10185786 3.87057159 7.10185786 5 10 C4.5625 12.6875 4.5625 12.6875 4 15 C3.67 15 3.34 15 3 15 C2.01 10.05 1.02 5.1 0 0 Z " fill="#EBFCE7" transform="translate(88,44)"/>
<path d="M0 0 C0.33 0.66 0.66 1.32 1 2 C-0.75 4.0625 -0.75 4.0625 -3 6 C-4.32 5.67 -5.64 5.34 -7 5 C-4.69 3.35 -2.38 1.7 0 0 Z " fill="#77B96E" transform="translate(54,15)"/>
<path d="M0 0 C0.33 0.66 0.66 1.32 1 2 C1.99 2.33 2.98 2.66 4 3 C5.17755913 5.94389782 5.03348696 6.89953913 4 10 C0 3.375 0 3.375 0 0 Z " fill="#78BD70" transform="translate(29,94)"/>
<path d="M0 0 C0.66 0.33 1.32 0.66 2 1 C0.02 3.97 0.02 3.97 -2 7 C-2.99 6.34 -3.98 5.68 -5 5 C-3.35 3.35 -1.7 1.7 0 0 Z " fill="#80B57F" transform="translate(111,45)"/>
<path d="M0 0 C2.79828356 0.38597015 3.8205884 0.80136573 5.75 2.9375 C7 5 7 5 7 7 C6.01 7 5.02 7 4 7 C4 5.68 4 4.36 4 3 C2.68 2.34 1.36 1.68 0 1 C0 0.67 0 0.34 0 0 Z " fill="#78B770" transform="translate(135,29)"/>
<path d="M0 0 C0.33 0 0.66 0 1 0 C1 2.97 1 5.94 1 9 C0.01 9.33 -0.98 9.66 -2 10 C-1.34 6.7 -0.68 3.4 0 0 Z " fill="#7BB875" transform="translate(123,77)"/>
<path d="M0 0 C0.33 0 0.66 0 1 0 C1 1.65 1 3.3 1 5 C1.66 5.33 2.32 5.66 3 6 C1.35 6 -0.3 6 -2 6 C-1.125 1.125 -1.125 1.125 0 0 Z " fill="#DCF7DA" transform="translate(101,62)"/>
<path d="M0 0 C0.66 0.66 1.32 1.32 2 2 C1.01 5.3 0.02 8.6 -1 12 C-1.33 12 -1.66 12 -2 12 C-2.05422947 10.5629191 -2.09289723 9.12524538 -2.125 7.6875 C-2.14820313 6.88699219 -2.17140625 6.08648437 -2.1953125 5.26171875 C-2 3 -2 3 0 0 Z " fill="#71B56E" transform="translate(52,57)"/>
<path d="M0 0 C0.99 1.32 1.98 2.64 3 4 C2.54625 4.433125 2.0925 4.86625 1.625 5.3125 C-0.20024334 7.10798342 -0.20024334 7.10798342 -2 10 C-1.54177532 6.53058454 -1.10868317 3.32604951 0 0 Z " fill="#77B96C" transform="translate(27,48)"/>
<path d="M0 0 C0 0.66 0 1.32 0 2 C1.32 2.33 2.64 2.66 4 3 C0.7169902 4.6415049 -2.42545033 3.51888624 -6 3 C-2.25 0 -2.25 0 0 0 Z " fill="#72B66A" transform="translate(120,28)"/>
<path d="M0 0 C3.65316671 1.24976756 4.78065836 1.67098753 7 5 C4 5 4 5 1 4 C0.3125 1.9375 0.3125 1.9375 0 0 Z " fill="#75BA6C" transform="translate(122,16)"/>
<path d="M0 0 C-3.72965139 2.03435531 -5.66905042 3 -10 3 C-10 2.34 -10 1.68 -10 1 C-3.71428571 -1.42857143 -3.71428571 -1.42857143 0 0 Z " fill="#75B16F" transform="translate(76,8)"/>
</svg>
