<?xml version="1.0" encoding="UTF-8"?>
<svg version="1.1" xmlns="http://www.w3.org/2000/svg" width="165" height="155">
<path d="M0 0 C11.40039248 9.56045572 20.86140073 24.25092439 22.8125 39.25 C24.3509192 60.193868 20.78373587 77.46047911 6.9921875 93.90625 C-5.04094219 106.84509913 -21.16141985 114.01813965 -38.70117188 114.70117188 C-56.12734917 115.0121315 -72.46806928 110.04393957 -85.546875 97.94921875 C-99.4606731 83.53849929 -105.71433606 67.3702286 -105.60961914 47.5222168 C-105.15050679 29.80349053 -97.72275094 14.38146083 -84.9453125 2.09375 C-60.1544877 -19.03941212 -25.80386349 -19.4805423 0 0 Z " fill="#D87747" transform="translate(124.1875,27.75)"/>
<path d="M0 0 C10.23 0 20.46 0 31 0 C31.95261719 2.72507813 32.90523437 5.45015625 33.88671875 8.2578125 C34.82663073 10.94551403 35.76670168 13.63315991 36.70678711 16.32080078 C37.35180944 18.16514393 37.99667078 20.00954339 38.64135742 21.85400391 C39.57687011 24.53042792 40.51296986 27.20664594 41.44921875 29.8828125 C41.75334686 30.7530304 42.05747498 31.62324829 42.37081909 32.51983643 C43.75440924 36.47235065 45.14641461 40.42108752 46.57275391 44.35839844 C46.92669975 45.33702347 46.92669975 45.33702347 47.28779602 46.3354187 C47.90999141 48.05005579 48.53648581 49.76313122 49.16333008 51.47607422 C50 54 50 54 50 56 C26.9 56 3.8 56 -20 56 C-17.99267507 48.63980861 -15.90098633 41.61129356 -13.25 34.5 C-12.90437012 33.56236816 -12.55874023 32.62473633 -12.20263672 31.65869141 C-11.49007644 29.72655054 -10.77572366 27.79506978 -10.05957031 25.86425781 C-9.02836588 23.07667937 -8.00831853 20.28529149 -6.9921875 17.4921875 C-6.36988349 15.78642483 -5.74749181 14.08069414 -5.125 12.375 C-4.83915039 11.58802734 -4.55330078 10.80105469 -4.25878906 9.99023438 C-3.9903418 9.25869141 -3.72189453 8.52714844 -3.4453125 7.7734375 C-3.21344238 7.13841309 -2.98157227 6.50338867 -2.74267578 5.84912109 C-1.94010072 3.8508622 -0.96303326 1.92606653 0 0 Z " fill="#FEFDFB" transform="translate(78,46)"/>
<path d="M0 0 C5.28 0 10.56 0 16 0 C13.55875796 8.5272755 10.6610087 16.86809977 7.70166016 25.22583008 C6.86620998 27.58734622 6.03643987 29.95080922 5.20703125 32.31445312 C4.67742059 33.81522322 4.14748487 35.31587866 3.6171875 36.81640625 C3.3692746 37.52358292 3.12136169 38.23075958 2.86593628 38.95936584 C1.11479305 43.88520695 1.11479305 43.88520695 0 45 C-2.69654854 45.07319621 -5.36691458 45.09242537 -8.0625 45.0625 C-9.20041992 45.05573242 -9.20041992 45.05573242 -10.36132812 45.04882812 C-12.24091871 45.0370068 -14.12046899 45.01907078 -16 45 C-13.93645451 36.65286555 -11.1740313 28.62166452 -8.18383789 20.57250977 C-7.43030723 18.54312869 -6.68438844 16.51106567 -5.93945312 14.47851562 C-2.29457199 4.58914397 -2.29457199 4.58914397 0 0 Z " fill="#FDFBF8" transform="translate(51,57)"/>
<path d="M0 0 C1.93238525 0.07855225 1.93238525 0.07855225 3.90380859 0.15869141 C4.58905609 0.18371735 5.27430359 0.20874329 5.98031616 0.23452759 C8.17145919 0.316777 10.3617072 0.41334439 12.55224609 0.51025391 C14.0365844 0.56848863 15.52095955 0.62579202 17.00537109 0.68212891 C20.64648583 0.82236148 24.28693229 0.97544141 27.92724609 1.13525391 C27.92724609 1.46525391 27.92724609 1.79525391 27.92724609 2.13525391 C18.02724609 2.13525391 8.12724609 2.13525391 -2.07275391 2.13525391 C-3.06275391 5.10525391 -4.05275391 8.07525391 -5.07275391 11.13525391 C-5.62898548 12.74709507 -6.18967621 14.35741914 -6.75854492 15.96484375 C-7.19898888 17.21060684 -7.19898888 17.21060684 -7.64833069 18.48153687 C-8.96361331 22.18605105 -10.2791509 25.89046821 -11.59790039 29.59375 C-12.29306249 31.54818786 -12.98640391 33.50327421 -13.67797852 35.45898438 C-14.68188756 38.29782 -15.69114825 41.13470047 -16.70166016 43.97119141 C-17.01003311 44.84617279 -17.31840607 45.72115417 -17.63612366 46.62265015 C-17.9266008 47.43424591 -18.21707794 48.24584167 -18.51635742 49.08203125 C-18.89583275 50.15050797 -18.89583275 50.15050797 -19.28297424 51.24057007 C-20.07275391 53.13525391 -20.07275391 53.13525391 -22.07275391 56.13525391 C-21.74275391 52.83525391 -21.41275391 49.53525391 -21.07275391 46.13525391 C-24.68868948 51.68228229 -24.68868948 51.68228229 -25.07275391 58.13525391 C-28.6914295 59.3414791 -31.99781641 59.24342308 -35.76025391 59.19775391 C-36.46214844 59.19324219 -37.16404297 59.18873047 -37.88720703 59.18408203 C-39.61575929 59.17232317 -41.34426756 59.15438844 -43.07275391 59.13525391 C-43.07275391 58.80525391 -43.07275391 58.47525391 -43.07275391 58.13525391 C-38.45275391 57.80525391 -33.83275391 57.47525391 -29.07275391 57.13525391 C-28.62359619 55.87342285 -28.17443848 54.6115918 -27.71166992 53.31152344 C-26.04872355 48.64081982 -24.38411366 43.97071053 -22.71899414 39.30078125 C-21.99783487 37.27750628 -21.27713001 35.25406928 -20.55688477 33.23046875 C-19.52299831 30.32590954 -18.48749201 27.42193232 -17.45166016 24.51806641 C-17.12871475 23.60969025 -16.80576935 22.70131409 -16.47303772 21.76541138 C-16.17280197 20.92469086 -15.87256622 20.08397034 -15.56323242 19.21777344 C-15.29897964 18.47608917 -15.03472687 17.73440491 -14.76246643 16.97024536 C-14.07275391 15.13525391 -14.07275391 15.13525391 -13.07275391 13.13525391 C-18.35275391 13.13525391 -23.63275391 13.13525391 -29.07275391 13.13525391 C-29.73275391 15.44525391 -30.39275391 17.75525391 -31.07275391 20.13525391 C-31.40275391 20.13525391 -31.73275391 20.13525391 -32.07275391 20.13525391 C-32.07275391 18.15525391 -32.07275391 16.17525391 -32.07275391 14.13525391 C-31.41275391 14.13525391 -30.75275391 14.13525391 -30.07275391 14.13525391 C-29.74275391 13.14525391 -29.41275391 12.15525391 -29.07275391 11.13525391 C-20.65775391 10.64025391 -20.65775391 10.64025391 -12.07275391 10.13525391 C-12.40275391 13.43525391 -12.73275391 16.73525391 -13.07275391 20.13525391 C-12.08275391 19.80525391 -11.09275391 19.47525391 -10.07275391 19.13525391 C-9.03958903 16.34353151 -9.03958903 16.34353151 -8.38525391 13.07275391 C-8.00820312 11.41566406 -8.00820312 11.41566406 -7.62353516 9.72509766 C-7.44177734 8.87044922 -7.26001953 8.01580078 -7.07275391 7.13525391 C-6.41275391 7.13525391 -5.75275391 7.13525391 -5.07275391 7.13525391 C-5.11400391 6.35150391 -5.15525391 5.56775391 -5.19775391 4.76025391 C-5.00741704 0.76317964 -3.91364 0.17226733 0 0 Z " fill="#CF7F59" transform="translate(80.07275390625,43.86474609375)"/>
<path d="M0 0 C1.93238525 0.07855225 1.93238525 0.07855225 3.90380859 0.15869141 C4.93167984 0.19623032 4.93167984 0.19623032 5.98031616 0.23452759 C8.17145919 0.316777 10.3617072 0.41334439 12.55224609 0.51025391 C14.0365844 0.56848863 15.52095955 0.62579202 17.00537109 0.68212891 C20.64648583 0.82236148 24.28693229 0.97544141 27.92724609 1.13525391 C27.92724609 1.46525391 27.92724609 1.79525391 27.92724609 2.13525391 C18.02724609 2.13525391 8.12724609 2.13525391 -2.07275391 2.13525391 C-3.06275391 5.10525391 -4.05275391 8.07525391 -5.07275391 11.13525391 C-5.81815062 13.25415208 -6.57129667 15.37035054 -7.33447266 17.48291016 C-7.73085937 18.58183594 -8.12724609 19.68076172 -8.53564453 20.81298828 C-8.93976563 21.92996094 -9.34388672 23.04693359 -9.76025391 24.19775391 C-10.17597656 25.34953125 -10.59169922 26.50130859 -11.02001953 27.68798828 C-12.03662315 30.50409715 -13.05422303 33.31984165 -14.07275391 36.13525391 C-14.98844649 32.87275384 -15.05248799 31.2216289 -13.88525391 28.01025391 C-13.60552734 27.22779297 -13.32580078 26.44533203 -13.03759766 25.63916016 C-12.04358036 23.05954443 -11.00031892 20.50398323 -9.94775391 17.94775391 C-8.47675874 14.34886878 -7.48268308 11.02958109 -7.07275391 7.13525391 C-6.41275391 7.13525391 -5.75275391 7.13525391 -5.07275391 7.13525391 C-5.11400391 6.35150391 -5.15525391 5.56775391 -5.19775391 4.76025391 C-5.00741704 0.76317964 -3.91364 0.17226733 0 0 Z " fill="#CB835F" transform="translate(80.07275390625,43.86474609375)"/>
<path d="M0 0 C1.4216868 4.26506039 -0.34613318 7.20037743 -1.9375 11.1875 C-2.22818359 11.93708984 -2.51886719 12.68667969 -2.81835938 13.45898438 C-3.53725036 15.30924477 -4.26754653 17.15506648 -5 19 C-5.99 18.67 -6.98 18.34 -8 18 C-7.67 16.906875 -7.34 15.81375 -7 14.6875 C-5.86913351 11.15421116 -5.86913351 11.15421116 -6 8 C-5.34 8 -4.68 8 -4 8 C-4 7.34 -4 6.68 -4 6 C-3.34 5.67 -2.68 5.34 -2 5 C-1.27840576 3.35636866 -0.60648579 1.68949614 0 0 Z " fill="#D07E57" transform="translate(40,83)"/>
<path d="M0 0 C0.99 0.33 1.98 0.66 3 1 C3 1.66 3 2.32 3 3 C5.64 3 8.28 3 11 3 C11 4.32 11 5.64 11 7 C11.66 7.66 12.32 8.32 13 9 C11.2265625 9.66796875 11.2265625 9.66796875 9 10 C7.1484375 8.92578125 7.1484375 8.92578125 5.375 7.3125 C4.78460938 6.79300781 4.19421875 6.27351563 3.5859375 5.73828125 C1.93581514 3.9296496 0.98203226 2.23144954 0 0 Z " fill="#D27C54" transform="translate(35,120)"/>
<path d="M0 0 C5.96652354 1.57013777 10.82909025 4.75029782 16 8 C13 9 13 9 10 9 C9.34 8.67 8.68 8.34 8 8 C8 7.34 8 6.68 8 6 C7.34 6 6.68 6 6 6 C6 5.34 6 4.68 6 4 C4.02 4.33 2.04 4.66 0 5 C0.33 4.34 0.66 3.68 1 3 C0.67 2.01 0.34 1.02 0 0 Z " fill="#CE7D54" transform="translate(106,18)"/>
<path d="M0 0 C1.65 0 3.3 0 5 0 C5 0.66 5 1.32 5 2 C3.46875 3.5078125 3.46875 3.5078125 1.5 5.125 C0.8503125 5.66382812 0.200625 6.20265625 -0.46875 6.7578125 C-0.9740625 7.16773438 -1.479375 7.57765625 -2 8 C-2.66 7.67 -3.32 7.34 -4 7 C-2.68 4.69 -1.36 2.38 0 0 Z " fill="#CE7F59" transform="translate(124,122)"/>
<path d="M0 0 C0.33 0 0.66 0 1 0 C0.47606294 5.86809507 -0.76108858 10.54873741 -3 16 C-3.33 16 -3.66 16 -4 16 C-4 14.02 -4 12.04 -4 10 C-3.34 10 -2.68 10 -2 10 C-2.04125 9.0925 -2.0825 8.185 -2.125 7.25 C-2.00468444 4.1217954 -1.6085292 2.61385994 0 0 Z " fill="#C77B58" transform="translate(145,89)"/>
<path d="M0 0 C1.32 0 2.64 0 4 0 C4 2.31 4 4.62 4 7 C3.01 7 2.02 7 1 7 C-0.0625 4.625 -0.0625 4.625 -1 2 C-0.67 1.34 -0.34 0.68 0 0 Z " fill="#D27C53" transform="translate(30,110)"/>
<path d="M0 0 C2.31 0 4.62 0 7 0 C7 0.66 7 1.32 7 2 C7.66 2 8.32 2 9 2 C9.33 3.32 9.66 4.64 10 6 C5.56909529 4.79157144 3.01887244 3.48331435 0 0 Z " fill="#D18057" transform="translate(46,130)"/>
<path d="M0 0 C1.53445094 3.06890187 0.54984289 5.70094266 0 9 C-1.32 9 -2.64 9 -4 9 C-4.33 9.99 -4.66 10.98 -5 12 C-5.33 11.34 -5.66 10.68 -6 10 C-4.78515625 7.6171875 -4.78515625 7.6171875 -3.0625 4.875 C-2.21365234 3.50988281 -2.21365234 3.50988281 -1.34765625 2.1171875 C-0.90292969 1.41851562 -0.45820313 0.71984375 0 0 Z " fill="#CC8058" transform="translate(30,41)"/>
<path d="M0 0 C0.33 0 0.66 0 1 0 C1.38281159 5.23175837 0.21854707 8.37802694 -2 13 C-2.66 13 -3.32 13 -4 13 C-3.52343588 11.20763933 -3.04366502 9.41613103 -2.5625 7.625 C-2.29566406 6.62726563 -2.02882812 5.62953125 -1.75390625 4.6015625 C-1 2 -1 2 0 0 Z " fill="#FBE9D7" transform="translate(45,72)"/>
<path d="M0 0 C0.66 0.33 1.32 0.66 2 1 C2.36923077 6.53846154 2.36923077 6.53846154 0.5 8.875 C-0.2425 9.431875 -0.2425 9.431875 -1 10 C-2 9 -2 9 -2.1875 6.6875 C-1.9945637 3.9220797 -1.39825155 2.35954949 0 0 Z " fill="#DB7645" transform="translate(63,73)"/>
<path d="M0 0 C1.43410153 3.78819273 0.51009497 6.06521279 -0.9375 9.75 C-1.31777344 10.73484375 -1.69804688 11.7196875 -2.08984375 12.734375 C-2.39019531 13.48203125 -2.69054687 14.2296875 -3 15 C-4.15782198 11.61915982 -3.83835147 9.70336781 -2.625 6.375 C-2.34914063 5.59898438 -2.07328125 4.82296875 -1.7890625 4.0234375 C-1 2 -1 2 0 0 Z " fill="#CD7F5B" transform="translate(69,65)"/>
<path d="M0 0 C5.28 0 10.56 0 16 0 C15.67 1.65 15.34 3.3 15 5 C14.34 4.01 13.68 3.02 13 2 C9.88389446 1.41407366 9.88389446 1.41407366 6.375 1.3125 C5.18648437 1.24675781 3.99796875 1.18101563 2.7734375 1.11328125 C1.85820313 1.07589844 0.94296875 1.03851563 0 1 C0 0.67 0 0.34 0 0 Z " fill="#FEF1DC" transform="translate(51,57)"/>
<path d="M0 0 C2 3 2 3 1.875 4.9375 C1 7 1 7 -3 11 C-2.01 7.37 -1.02 3.74 0 0 Z " fill="#FAEADB" transform="translate(66,77)"/>
</svg>
