<?xml version="1.0" encoding="UTF-8"?>
<svg version="1.1" xmlns="http://www.w3.org/2000/svg" width="160" height="167">
<path d="M0 0 C10.86779625 8.38695041 18.04472188 18.25785627 23 31 C23.32097656 31.78117187 23.64195312 32.56234375 23.97265625 33.3671875 C29.14680931 48.43239594 27.08514062 66.67126956 20.6796875 80.94140625 C11.78652345 98.41185693 -2.64131398 109.63130609 -21 115.9375 C-38.00141412 119.96746483 -56.40829999 117.499163 -71.41015625 108.6875 C-82.65501134 101.3605356 -90.31582602 92.79994068 -96.375 80.875 C-96.70902832 80.21822266 -97.04305664 79.56144531 -97.38720703 78.88476562 C-103.90834225 65.44646123 -104.52886909 46.92108379 -100.1015625 32.6875 C-93.05648013 15.49949762 -82.45116031 3.0705357 -65.9375 -5.375 C-65.28910156 -5.70902832 -64.64070313 -6.04305664 -63.97265625 -6.38720703 C-43.68565086 -16.28119586 -18.29430437 -12.03512099 0 0 Z " fill="#75CDBE" transform="translate(118,31)"/>
<path d="M0 0 C5.15534019 2.51273426 10.06829094 5.15915878 14.9375 8.1875 C15.80084961 8.72020508 15.80084961 8.72020508 16.68164062 9.26367188 C20.85289693 11.85289693 20.85289693 11.85289693 22 13 C22.08737645 14.85369611 22.10698153 16.71067541 22.09765625 18.56640625 C22.09443359 19.69111328 22.09121094 20.81582031 22.08789062 21.97460938 C22.07951172 23.15861328 22.07113281 24.34261719 22.0625 25.5625 C22.05798828 26.75037109 22.05347656 27.93824219 22.04882812 29.16210938 C22.03699675 32.10812226 22.02051287 35.05403681 22 38 C21.26177002 37.70029297 20.52354004 37.40058594 19.76293945 37.09179688 C18.14463191 36.45231014 16.51718719 35.83383751 14.87182617 35.26757812 C9.21889682 33.26531918 3.61478254 30.96421243 0 26 C-2.18406002 17.58782866 -1.03305277 8.53180052 0 0 Z " fill="#F7FDFC" transform="translate(82,87)"/>
<path d="M0 0 C1.10734497 0.44956055 1.10734497 0.44956055 2.23706055 0.90820312 C3.85536809 1.54768986 5.48281281 2.16616249 7.12817383 2.73242188 C12.78110318 4.73468082 18.38521746 7.03578757 22 12 C24.18406002 20.41217134 23.03305277 29.46819948 22 38 C16.84465981 35.48726574 11.93170906 32.84084122 7.0625 29.8125 C6.48693359 29.45736328 5.91136719 29.10222656 5.31835938 28.73632812 C1.14710307 26.14710307 1.14710307 26.14710307 0 25 C-0.08737645 23.14630389 -0.10698153 21.28932459 -0.09765625 19.43359375 C-0.09443359 18.30888672 -0.09121094 17.18417969 -0.08789062 16.02539062 C-0.07951172 14.84138672 -0.07113281 13.65738281 -0.0625 12.4375 C-0.05798828 11.24962891 -0.05347656 10.06175781 -0.04882812 8.83789062 C-0.03699675 5.89187774 -0.02051287 2.94596319 0 0 Z " fill="#F7FDFD" transform="translate(56,43)"/>
<path d="M0 0 C0.72155273 0.400979 1.44310547 0.80195801 2.18652344 1.21508789 C3.37375 1.87347656 3.37375 1.87347656 4.58496094 2.54516602 C5.803125 3.23449219 5.803125 3.23449219 7.04589844 3.93774414 C7.87347656 4.39342773 8.70105469 4.84911133 9.55371094 5.31860352 C15.66602507 8.74049741 15.66602507 8.74049741 16.79589844 11.00024414 C13.41740141 13.07169879 10.01586168 15.10185254 6.60839844 17.12524414 C5.64869141 17.7143457 4.68898438 18.30344727 3.70019531 18.91040039 C2.30317383 19.73217773 2.30317383 19.73217773 0.87792969 20.57055664 C0.02432861 21.08376465 -0.82927246 21.59697266 -1.70874023 22.12573242 C-4.20410156 23.00024414 -4.20410156 23.00024414 -6.75878906 22.29663086 C-7.96921875 21.65491943 -7.96921875 21.65491943 -9.20410156 21.00024414 C-10.25754761 20.44916992 -10.25754761 20.44916992 -11.33227539 19.88696289 C-13.56496281 18.5990051 -15.79348834 17.30466933 -18.01660156 16.00024414 C-18.80486328 15.54907227 -19.593125 15.09790039 -20.40527344 14.63305664 C-21.14970703 14.19735352 -21.89414062 13.76165039 -22.66113281 13.31274414 C-23.34151611 12.91700195 -24.02189941 12.52125977 -24.72290039 12.11352539 C-25.21169678 11.74614258 -25.70049316 11.37875977 -26.20410156 11.00024414 C-26.20410156 10.34024414 -26.20410156 9.68024414 -26.20410156 9.00024414 C-23.32289054 6.83225854 -20.13324128 5.11998599 -17.01660156 3.31274414 C-16.15228516 2.78874023 -15.28796875 2.26473633 -14.39746094 1.72485352 C-13.55634766 1.23436523 -12.71523438 0.74387695 -11.84863281 0.23852539 C-11.0788208 -0.21482178 -10.30900879 -0.66816895 -9.51586914 -1.13525391 C-5.89098759 -2.49080418 -3.42765186 -1.55474461 0 0 Z " fill="#F7FDFD" transform="translate(59.2041015625,73.999755859375)"/>
<path d="M0 0 C2.06850141 1.10120604 4.1134764 2.19215041 6.11279297 3.41381836 C6.76441406 3.80891602 7.41603516 4.20401367 8.08740234 4.61108398 C9.08416992 5.22306641 9.08416992 5.22306641 10.10107422 5.84741211 C14.68383274 8.69707275 14.68383274 8.69707275 19.41357422 11.28491211 C19.41357422 11.94491211 19.41357422 12.60491211 19.41357422 13.28491211 C16.53236319 15.45289771 13.34271394 17.16517026 10.22607422 18.97241211 C9.36175781 19.49641602 8.49744141 20.02041992 7.60693359 20.56030273 C6.76582031 21.05079102 5.92470703 21.5412793 5.05810547 22.04663086 C4.28829346 22.49997803 3.51848145 22.9533252 2.7253418 23.42041016 C-0.89953976 24.77596043 -3.36287549 23.83990086 -6.79052734 22.28515625 C-7.51208008 21.88417725 -8.23363281 21.48319824 -8.97705078 21.07006836 C-9.76853516 20.63114258 -10.56001953 20.1922168 -11.37548828 19.73999023 C-12.18759766 19.28043945 -12.99970703 18.82088867 -13.83642578 18.34741211 C-14.66400391 17.89172852 -15.49158203 17.43604492 -16.34423828 16.96655273 C-22.45655242 13.54465884 -22.45655242 13.54465884 -23.58642578 11.28491211 C-20.20792876 9.21345746 -16.80638903 7.18330371 -13.39892578 5.15991211 C-12.43921875 4.57081055 -11.47951172 3.98170898 -10.49072266 3.37475586 C-9.559375 2.8269043 -8.62802734 2.27905273 -7.66845703 1.71459961 C-6.81485596 1.2013916 -5.96125488 0.68818359 -5.08178711 0.15942383 C-2.58642578 -0.71508789 -2.58642578 -0.71508789 0 0 Z " fill="#F6FDFC" transform="translate(107.58642578125,71.715087890625)"/>
<path d="M0 0 C1.23564024 8.19324529 2.4956524 16.96379151 0 25 C-4.9349693 31.03703756 -12.72891636 34.5157848 -20 37 C-20.66 37 -21.32 37 -22 37 C-23.79375679 14.55922444 -23.79375679 14.55922444 -19.8671875 8.95703125 C-16.96029531 7.18779464 -14.22396487 6.07327365 -11 5 C-9.29463205 4.05229552 -7.60493719 3.07545451 -5.9375 2.0625 C-2.27009646 0 -2.27009646 0 0 0 Z " fill="#F7FDFC" transform="translate(104,43)"/>
<path d="M0 0 C2.69919143 21.37368778 2.69919143 21.37368778 -1.58789062 27.13330078 C-6.1442803 30.92699044 -11.4570463 33.05103211 -17 35 C-18.6689856 35.66083984 -20.33621641 36.32617037 -22 37 C-23.23564024 28.80675471 -24.4956524 20.03620849 -22 12 C-17.42587168 6.40438577 -7.49202511 0 0 0 Z " fill="#F7FDFD" transform="translate(78,88)"/>
<path d="M0 0 C10.25390625 5.859375 10.25390625 5.859375 12.11767578 6.94726562 C13.9882218 8.02374031 13.9882218 8.02374031 15.95654297 8.91210938 C19.21406347 10.49652951 20.81881109 11.63118651 22.4296875 14.91015625 C23.56515997 20.64107862 23.20741792 26.62703667 23.125 32.4375 C23.11597656 33.64599609 23.10695313 34.85449219 23.09765625 36.09960938 C23.07420168 39.06661278 23.04137794 42.03320143 23 45 C22.67 45 22.34 45 22 45 C22 36.75 22 28.5 22 20 C19.256875 21.60875 16.51375 23.2175 13.6875 24.875 C12.82729248 25.3788623 11.96708496 25.88272461 11.08081055 26.40185547 C10.39801025 26.80291504 9.71520996 27.20397461 9.01171875 27.6171875 C8.31522217 28.02565918 7.61872559 28.43413086 6.90112305 28.85498047 C5.2382901 29.85648124 3.61512455 30.9232503 2 32 C-0.1875 31.625 -0.1875 31.625 -2 31 C-1.01 31 -0.02 31 1 31 C1 30.34 1 29.68 1 29 C0.34 28.67 -0.32 28.34 -1 28 C-0.42967041 27.67201416 0.14065918 27.34402832 0.72827148 27.00610352 C3.29895842 25.52653561 5.86824399 24.04455118 8.4375 22.5625 C9.33533203 22.04623047 10.23316406 21.52996094 11.15820312 20.99804688 C12.01220703 20.50498047 12.86621094 20.01191406 13.74609375 19.50390625 C14.53685303 19.04830322 15.3276123 18.5927002 16.14233398 18.12329102 C17.94585523 17.1338793 17.94585523 17.1338793 19 16 C18.45996338 15.71801758 17.91992676 15.43603516 17.36352539 15.14550781 C14.92227646 13.86083377 12.49251519 12.55578929 10.0625 11.25 C9.21236328 10.8065625 8.36222656 10.363125 7.48632812 9.90625 C6.67744141 9.46796875 5.86855469 9.0296875 5.03515625 8.578125 C4.2862915 8.18012695 3.53742676 7.78212891 2.76586914 7.37207031 C0.60318053 5.69167352 0.33735511 4.6735808 0 2 C0 1.34 0 0.68 0 0 Z " fill="#88CEC1" transform="translate(56,68)"/>
<path d="M0 0 C6.27405627 3.04291729 12.4495841 6.0852527 18.28125 9.921875 C20.13246713 11.08309302 22.03284191 12.0509325 24 13 C23.01 13.495 23.01 13.495 22 14 C21.67 22.58 21.34 31.16 21 40 C20.67 40 20.34 40 20 40 C20.11166504 39.00371582 20.11166504 39.00371582 20.22558594 37.98730469 C20.90080788 30.64139951 21.51879343 23.04462171 19 16 C13.82469103 10.04154372 6.21763927 6.85801088 -1 4 C-0.67 2.68 -0.34 1.36 0 0 Z " fill="#86CABF" transform="translate(84,84)"/>
<path d="M0 0 C0.33 0 0.66 0 1 0 C1 8.25 1 16.5 1 25 C6.41542179 21.80054491 6.41542179 21.80054491 11.82910156 18.59814453 C12.5094043 18.19708496 13.18970703 17.79602539 13.890625 17.3828125 C14.58188477 16.97434082 15.27314453 16.56586914 15.98535156 16.14501953 C17.95916302 15.02320958 19.96020237 13.9959012 22 13 C22 13.66 22 14.32 22 15 C22.66 15 23.32 15 24 15 C22.42380896 19.72857312 18.45666871 20.97000146 14.25 23.3125 C13.43789062 23.79267578 12.62578125 24.27285156 11.7890625 24.76757812 C10.99757813 25.21166016 10.20609375 25.65574219 9.390625 26.11328125 C8.3082959 26.72876831 8.3082959 26.72876831 7.20410156 27.35668945 C5 28 5 28 0 26 C0 17.42 0 8.84 0 0 Z " fill="#8BCFC2" transform="translate(81,55)"/>
<path d="M0 0 C-1.32 0.33 -2.64 0.66 -4 1 C-4 0.34 -4 -0.32 -4 -1 C-4.56847656 -1.18175781 -5.13695312 -1.36351562 -5.72265625 -1.55078125 C-9.39282074 -2.74557603 -12.91841067 -3.96291394 -16.4375 -5.5625 C-23.66170132 -8.4775286 -30.64786811 -9.18449363 -38.375 -9.25 C-39.0652124 -9.25926514 -39.7554248 -9.26853027 -40.46655273 -9.27807617 C-44.21429167 -9.25467861 -46.75992973 -8.85881583 -50 -7 C-51.99961564 -6.96079185 -54.00049364 -6.95556653 -56 -7 C-56.33 -6.67 -56.66 -6.34 -57 -6 C-58.99958364 -5.95919217 -61.00045254 -5.95745644 -63 -6 C-44.28627872 -18.47581418 -17.51188684 -10.35586664 0 0 Z " fill="#84C5BC" transform="translate(118,31)"/>
<path d="M0 0 C0.33 0 0.66 0 1 0 C1.01981934 0.60996826 1.03963867 1.21993652 1.06005859 1.84838867 C1.15567876 4.62850533 1.26520705 7.40790846 1.375 10.1875 C1.4059375 11.14720703 1.436875 12.10691406 1.46875 13.09570312 C1.50742188 14.02705078 1.54609375 14.95839844 1.5859375 15.91796875 C1.6173584 16.77156982 1.6487793 17.6251709 1.68115234 18.50463867 C2.18193175 22.42383189 3.19662748 25.19662748 6 28 C1.25 27.125 1.25 27.125 -1 26 C-0.67 17.42 -0.34 8.84 0 0 Z " fill="#80C7BB" transform="translate(104,44)"/>
<path d="M0 0 C0 0.99 0 1.98 0 3 C-0.66 3 -1.32 3 -2 3 C-2.061875 3.7425 -2.12375 4.485 -2.1875 5.25 C-3.25852596 8.87501095 -4.97330875 9.81796677 -8 12 C-9.35147138 13.31494512 -10.69112542 14.64264858 -12 16 C-10.60411827 11.95775915 -8.69435964 9.05851515 -6 5.75 C-4.948125 4.44289063 -4.948125 4.44289063 -3.875 3.109375 C-2 1 -2 1 0 0 Z " fill="#87CBBF" transform="translate(36,37)"/>
<path d="M0 0 C0 0.66 0 1.32 0 2 C-2.91229541 4.66960413 -5.12826946 6.27405052 -9 7 C-10.6744239 7.6469365 -12.34302621 8.30959426 -14 9 C-14 8.34 -14 7.68 -14 7 C-11.4453125 5.2734375 -11.4453125 5.2734375 -8.125 3.375 C-7.03445312 2.74335937 -5.94390625 2.11171875 -4.8203125 1.4609375 C-2 0 -2 0 0 0 Z " fill="#86CDC0" transform="translate(70,118)"/>
<path d="M0 0 C0.66 0.33 1.32 0.66 2 1 C1.34 2.32 0.68 3.64 0 5 C1.32 5.66 2.64 6.32 4 7 C4 7.66 4 8.32 4 9 C0.9168649 7.80100302 -2.06279492 6.52299523 -5 5 C-5 4.34 -5 3.68 -5 3 C-2.625 1.3125 -2.625 1.3125 0 0 Z " fill="#E1FBF9" transform="translate(38,80)"/>
<path d="M0 0 C0 0.99 0 1.98 0 3 C-1.24891614 3.48198463 -2.49918808 3.96045677 -3.75 4.4375 C-4.79414062 4.83775391 -4.79414062 4.83775391 -5.859375 5.24609375 C-7.89059003 5.96146693 -9.9035291 6.51365652 -12 7 C-8.8380314 3.47318887 -4.98182478 0 0 0 Z " fill="#83C6BC" transform="translate(55,25)"/>
<path d="M0 0 C5.02265357 1.18180084 8.0949151 2.44992282 12 6 C11.67 6.66 11.34 7.32 11 8 C9.16399255 6.85845641 7.33125195 5.71165684 5.5 4.5625 C4.4790625 3.92441406 3.458125 3.28632812 2.40625 2.62890625 C1.6121875 2.09136719 0.818125 1.55382812 0 1 C0 0.67 0 0.34 0 0 Z " fill="#8ECEC2" transform="translate(112,74)"/>
<path d="M0 0 C2 3 2 3 2 5 C-0.31 4.67 -2.62 4.34 -5 4 C-3.36587557 2.29159719 -2.13093906 1.06546953 0 0 Z " fill="#83CEC1" transform="translate(77,113)"/>
</svg>
