<?xml version="1.0" encoding="UTF-8"?>
<svg version="1.1" xmlns="http://www.w3.org/2000/svg" width="174" height="168">
<path d="M0 0 C11.41393186 9.57180995 20.83837373 24.24314632 22.8125 39.25 C24.46581991 59.59046247 20.97119268 76.69440468 8 93 C-3.4013479 105.32901663 -19.09492056 113.73252363 -35.9609375 114.52734375 C-53.95158414 115.03029345 -70.14587359 111.27009872 -83.6875 98.75 C-85.55723902 96.94786737 -87.37289994 95.10906193 -89.1875 93.25 C-89.79207031 92.66605469 -90.39664063 92.08210938 -91.01953125 91.48046875 C-102.25789963 79.76765737 -105.68741112 63.24556042 -105.53710938 47.60839844 C-105.04650644 30.05939872 -97.63490157 14.25981407 -84.94921875 2.10546875 C-60.20239697 -19.07716266 -25.77488542 -19.4586654 0 0 Z " fill="#9199A2" transform="translate(129.1875,36.75)"/>
<path d="M0 0 C8.76948294 6.46785785 16.55585002 15.35231144 18.5390625 26.421875 C19.43058407 38.58164466 18.26777302 49.90457661 10.234375 59.61328125 C2.7336292 67.61522896 -5.95084226 73.73986002 -17.16015625 74.7578125 C-29.38989542 74.87759447 -39.1595098 72.97445894 -48.4609375 64.421875 C-57.06376379 55.92482117 -61.70541472 46.44101593 -61.8359375 34.171875 C-61.65035223 22.4220074 -57.74271799 13.90673029 -49.6484375 5.55078125 C-36.11680454 -7.13512465 -15.93108341 -10.21612333 0 0 Z " fill="#FCFDFD" transform="translate(109.4609375,52.578125)"/>
<path d="M0 0 C6.18662941 3.65062264 10.32756235 9.56888554 12.36328125 16.39453125 C13.39442235 23.27739809 11.8786652 29.42035347 8.36328125 35.39453125 C3.43079389 41.2109378 -2.30055897 44.53261071 -9.7890625 45.7421875 C-16.96948737 46.23434316 -23.10699155 43.44967328 -28.49609375 38.78515625 C-33.23010137 33.67617773 -35.67221372 27.96265907 -36.13671875 21.01953125 C-35.88652933 14.72128455 -33.13439917 9.21851196 -28.9921875 4.53515625 C-20.23277747 -3.45310933 -10.68629641 -4.70329998 0 0 Z " fill="#9199A2" transform="translate(99.63671875,65.60546875)"/>
<path d="M0 0 C0.33 0.66 0.66 1.32 1 2 C0.34 2.66 -0.32 3.32 -1 4 C-1.268125 4.680625 -1.53625 5.36125 -1.8125 6.0625 C-3 8 -3 8 -5.625 8.75 C-6.40875 8.8325 -7.1925 8.915 -8 9 C-7.23587913 7.87043002 -6.46340197 6.74651022 -5.6875 5.625 C-5.25824219 4.99851562 -4.82898437 4.37203125 -4.38671875 3.7265625 C-3 2 -3 2 0 0 Z " fill="#9BA0A5" transform="translate(45,39)"/>
<path d="M0 0 C0.99 0.33 1.98 0.66 3 1 C3.33 1.99 3.66 2.98 4 4 C3.34 4 2.68 4 2 4 C1.67 4.99 1.34 5.98 1 7 C0.01 6.34 -0.98 5.68 -2 5 C-1.34 5 -0.68 5 0 5 C0 3.35 0 1.7 0 0 Z " fill="#99A0A6" transform="translate(131,40)"/>
</svg>
