<?xml version="1.0" encoding="UTF-8"?>
<svg version="1.1" xmlns="http://www.w3.org/2000/svg" width="161" height="165">
<path d="M0 0 C0.70253906 0.6290625 1.40507813 1.258125 2.12890625 1.90625 C2.12890625 2.56625 2.12890625 3.22625 2.12890625 3.90625 C3.44890625 4.56625 4.76890625 5.22625 6.12890625 5.90625 C6.12890625 6.56625 6.12890625 7.22625 6.12890625 7.90625 C6.78890625 7.90625 7.44890625 7.90625 8.12890625 7.90625 C18.39942286 19.83246702 23.69147386 34.76521758 23.50390625 50.34375 C23.52130859 51.78331055 23.52130859 51.78331055 23.5390625 53.25195312 C23.47304497 69.59129227 16.38827789 85.1546654 5.12890625 96.90625 C-8.57436087 110.03555829 -24.95576401 115.43851182 -43.60107422 115.32617188 C-61.49349265 114.85220053 -75.28339944 107.45008475 -87.87109375 94.90625 C-88.50789063 94.29265625 -89.1446875 93.6790625 -89.80078125 93.046875 C-101.66131402 80.71192092 -105.38560688 64.35816302 -105.29321289 47.76977539 C-104.8459014 31.4128408 -98.26599706 16.71418818 -86.87109375 4.90625 C-85.88109375 4.57625 -84.89109375 4.24625 -83.87109375 3.90625 C-83.87109375 3.24625 -83.87109375 2.58625 -83.87109375 1.90625 C-77.65392395 -3.44779861 -70.472068 -7.13781557 -62.87109375 -10.09375 C-62.08992188 -10.41472656 -61.30875 -10.73570313 -60.50390625 -11.06640625 C-40.13722652 -18.06135216 -16.90910265 -12.33099186 0 0 Z " fill="#AA6AC6" transform="translate(121.87109375,32.09375)"/>
<path d="M0 0 C0.87696533 0.00757324 1.75393066 0.01514648 2.6574707 0.02294922 C14.10047818 0.31339702 23.3869673 4.31611762 31.875 12.02734375 C37.69826975 18.21456786 40.30642169 25.3845122 40.75 33.8125 C40.48533191 42.10543363 37.07007602 49.63541922 31.375 55.6875 C29.125 57.4375 29.125 57.4375 27.125 57.4375 C27.455 58.4275 27.785 59.4175 28.125 60.4375 C28.65367716 65.86660777 28.64152211 70.00928697 25.125 74.4375 C24.7125 75.035625 24.3 75.63375 23.875 76.25 C20.84233753 78.3078781 18.68388297 77.97133245 15.125 77.4375 C12.52004118 75.6924305 10.31525996 73.67436124 8.125 71.4375 C7.856875 72.05625 7.58875 72.675 7.3125 73.3125 C6.125 75.4375 6.125 75.4375 3.125 77.4375 C-0.94056201 77.88101586 -3.01564119 78.09854524 -6.3125 75.5625 C-7.875 73.4375 -7.875 73.4375 -7.875 71.4375 C-8.29910156 71.870625 -8.72320312 72.30375 -9.16015625 72.75 C-12.29435203 75.7257639 -14.16578014 77.30299278 -18.5 78.125 C-22.73775287 77.26175405 -24.22171106 75.79313014 -26.875 72.4375 C-27.9409183 69.23974511 -27.74317052 67.61374159 -27.4375 64.3125 C-27.35920931 59.37366223 -28.33226684 57.23126338 -31.6875 53.625 C-32.41710938 52.90183594 -33.14671875 52.17867187 -33.8984375 51.43359375 C-38.92540332 46.35695436 -39.99418025 40.13828789 -40.1875 33.25 C-40.06997394 24.50606107 -36.90490979 17.58211612 -30.921875 11.25390625 C-22.03083005 3.36395224 -11.74627505 -0.14279119 0 0 Z " fill="#FCFAFD" transform="translate(80.875,44.5625)"/>
<path d="M0 0 C5.67623927 3.28410986 9.98429923 6.91522277 12.1875 13.265625 C12.9507566 19.15360447 11.61883097 23.52344849 8.1875 28.265625 C1.51392529 34.82108335 -5.4546748 37.39336571 -14.6875 37.703125 C-23.61332405 37.48355927 -30.83794021 35.06397358 -37.40625 28.8984375 C-40.55728323 25.2397378 -41.62976163 21.52195127 -42.3125 16.828125 C-41.50890213 11.10249016 -39.1352968 7.19986572 -34.6875 3.49609375 C-24.25220155 -3.74868271 -11.74739452 -5.48726981 0 0 Z " fill="#AA6BC6" transform="translate(95.8125,60.734375)"/>
<path d="M0 0 C0.33 0 0.66 0 1 0 C1.82677109 17.2243977 1.82677109 17.2243977 -3 25 C-5.625 27.5 -5.625 27.5 -8 29 C-10.39763185 31.39763185 -10.34280586 32.33273498 -10.625 35.625 C-10.69976562 36.44226563 -10.77453125 37.25953125 -10.8515625 38.1015625 C-10.90054688 38.72804687 -10.94953125 39.35453125 -11 40 C-11.33 40 -11.66 40 -12 40 C-12.71961381 36.63089898 -13.20921933 33.44943663 -13 30 C-10.4375 27.625 -10.4375 27.625 -8.765625 26.5078125 C-3.87057645 22.32752767 -1.40986292 15.51811203 -0.40234375 9.328125 C-0.16059676 6.20924833 -0.01008885 3.1275435 0 0 Z " fill="#A275B9" transform="translate(121,72)"/>
<path d="M0 0 C2.89103912 1.29598305 5.04112614 2.48304242 7 5 C7.2578125 7.5234375 7.2578125 7.5234375 7.125 10.375 C6.97022461 14.1205645 7.13591393 17.34425126 8 21 C5 19 5 19 4.375 15.91796875 C4.25125 14.68691406 4.1275 13.45585938 4 12.1875 C3.5060715 7.30481097 2.83646314 4.04658464 0 0 Z " fill="#A175BA" transform="translate(47,98)"/>
<path d="M0 0 C23.99516389 -0.61916858 23.99516389 -0.61916858 33 3 C33 3.33 33 3.66 33 4 C30.125 4.625 30.125 4.625 27 5 C26.34 4.34 25.68 3.68 25 3 C21.71718922 2.14398991 18.51802473 1.83629789 15.13671875 1.68359375 C13.80737305 1.62075195 13.80737305 1.62075195 12.45117188 1.55664062 C11.53916016 1.51732422 10.62714844 1.47800781 9.6875 1.4375 C8.75615234 1.39431641 7.82480469 1.35113281 6.86523438 1.30664062 C4.57695546 1.20102775 2.28857628 1.09892248 0 1 C0 0.67 0 0.34 0 0 Z " fill="#9B72AF" transform="translate(70,19)"/>
<path d="M0 0 C0.66 0 1.32 0 2 0 C2.03738281 0.60328125 2.07476562 1.2065625 2.11328125 1.828125 C2.49324802 6.4473289 2.75179373 9.46934101 6 13 C6 13.66 6 14.32 6 15 C6.639375 15.28875 7.27875 15.5775 7.9375 15.875 C10 17 10 17 11 19 C6.56063049 17.64352598 4.5843118 15.83191061 2 12 C-0.13492839 7.94363607 -0.17820671 4.54427121 0 0 Z " fill="#AA80C0" transform="translate(54,74)"/>
<path d="M0 0 C-0.57344937 2.86724686 -0.8614515 3.8614515 -3 6 C-5.625 5.625 -5.625 5.625 -8 5 C-8 5.66 -8 6.32 -8 7 C-9.65 7.33 -11.3 7.66 -13 8 C-9.4918251 4.18228025 -5.53544278 0 0 0 Z " fill="#A06EB6" transform="translate(54,25)"/>
<path d="M0 0 C-1.55666955 0.9884096 -3.12062426 1.96535082 -4.6875 2.9375 C-5.55761719 3.48277344 -6.42773438 4.02804688 -7.32421875 4.58984375 C-9.94624689 5.97167172 -12.08310075 6.58480173 -15 7 C-13.96236789 4.06621873 -13.28688035 3.14742463 -10.46875 1.69921875 C-9.4890625 1.36535156 -8.509375 1.03148437 -7.5 0.6875 C-6.03046875 0.16736328 -6.03046875 0.16736328 -4.53125 -0.36328125 C-2 -1 -2 -1 0 0 Z " fill="#A271B9" transform="translate(118,136)"/>
<path d="M0 0 C1.9375 0.8125 1.9375 0.8125 4 2 C4.33 2.99 4.66 3.98 5 5 C7.49759982 6.69882448 7.49759982 6.69882448 10 8 C9.67 9.32 9.34 10.64 9 12 C1.33257403 4.88610478 1.33257403 4.88610478 0 0 Z " fill="#A574BA" transform="translate(27,117)"/>
<path d="M0 0 C0.515625 0.165 1.03125 0.33 1.5625 0.5 C6.07708398 1.42606851 10.59363721 1.41003609 15 0 C14.67 0.99 14.34 1.98 14 3 C12.04174127 3.02694851 10.08337774 3.04637218 8.125 3.0625 C7.03445312 3.07410156 5.94390625 3.08570312 4.8203125 3.09765625 C2 3 2 3 0 2 C0 1.34 0 0.68 0 0 Z " fill="#A474BC" transform="translate(92,120)"/>
<path d="M0 0 C0.99 0 1.98 0 3 0 C1.7508258 3.45925163 0.32472205 6.14693203 -2 9 C-1.125 2.25 -1.125 2.25 0 0 Z " fill="#A578B7" transform="translate(44,59)"/>
<path d="M0 0 C1.32 0.33 2.64 0.66 4 1 C4 1.66 4 2.32 4 3 C5.32 3.66 6.64 4.32 8 5 C5 6 5 6 3 6 C2.01 4.02 1.02 2.04 0 0 Z " fill="#9D71B3" transform="translate(120,33)"/>
<path d="M0 0 C-6.625 3 -6.625 3 -10 3 C-10 2.34 -10 1.68 -10 1 C-3.71428571 -1.42857143 -3.71428571 -1.42857143 0 0 Z " fill="#A06EB8" transform="translate(69,21)"/>
<path d="M0 0 C-2.90092502 1.93395001 -3.89674737 2.30131941 -7.1875 2.625 C-8.445625 2.74875 -9.70375 2.8725 -11 3 C-10.01 2.67 -9.02 2.34 -8 2 C-8 1.34 -8 0.68 -8 0 C-4.71023192 -1.09658936 -3.28696233 -0.79953138 0 0 Z " fill="#A072B5" transform="translate(103,143)"/>
<path d="M0 0 C0.99 0.33 1.98 0.66 3 1 C3.33 1.99 3.66 2.98 4 4 C1.69 4.33 -0.62 4.66 -3 5 C-2.01 3.35 -1.02 1.7 0 0 Z " fill="#AC83C4" transform="translate(89,116)"/>
<path d="M0 0 C3.64553172 1.2808625 5.16671013 2.16671013 8 5 C3.545 4.01 3.545 4.01 -1 3 C-0.67 2.01 -0.34 1.02 0 0 Z " fill="#9E72B4" transform="translate(112,27)"/>
</svg>
