<?xml version="1.0" encoding="UTF-8"?>
<svg version="1.1" xmlns="http://www.w3.org/2000/svg" width="173" height="184">
<path d="M0 0 C1.05219727 0.00572021 2.10439453 0.01144043 3.18847656 0.01733398 C19.92325877 0.39860357 34.77963007 7.35784101 46.9296875 18.86328125 C61.2818601 34.74478372 65.30152568 52.67428441 64.53466797 73.55126953 C63.42867394 88.23060573 54.85338376 102.57710227 44.20703125 112.453125 C28.71661737 125.69452284 11.88733787 129.68282804 -8.09082031 128.71142578 C-24.34204615 127.38822518 -39.43494758 118.12198457 -49.875 105.875 C-61.94716526 89.96613445 -65.2859684 73.13199753 -63.6875 53.5 C-61.38717339 37.19784334 -51.49045042 22.23774232 -38.5234375 12.3828125 C-26.56073818 4.44063471 -14.38885471 -0.09140556 0 0 Z " fill="#F77177" transform="translate(89.6875,30.5)"/>
<path d="M0 0 C8.80953271 5.38545019 16.31489773 11.94747606 19.0703125 22.265625 C20.1972409 31.78190927 19.44311359 39.25300834 14.0703125 47.265625 C13.4515625 48.214375 12.8328125 49.163125 12.1953125 50.140625 C6.47308275 55.86285475 -0.69160848 58.32565511 -8.6796875 58.703125 C-15.88515364 58.56008845 -21.42345721 56.39358978 -26.8125 51.5859375 C-31.4622968 46.53181054 -33.47496769 41.39125048 -33.234375 34.4140625 C-32.53100464 29.45439972 -30.81891447 25.17707817 -27.26953125 21.5859375 C-21.88866095 17.67458619 -16.39530465 17.34051311 -9.9296875 18.265625 C-5.77170735 19.94651059 -3.19996523 22.39774442 -0.9296875 26.265625 C-0.08819681 30.94057328 -0.26732121 34.20583893 -2.8046875 38.265625 C-5.61480008 40.91043684 -6.44873627 41.23064673 -10.3671875 41.515625 C-13.9296875 41.265625 -13.9296875 41.265625 -15.8671875 39.765625 C-16.2178125 39.270625 -16.5684375 38.775625 -16.9296875 38.265625 C-16.5996875 37.275625 -16.2696875 36.285625 -15.9296875 35.265625 C-14.9603125 35.28625 -13.9909375 35.306875 -12.9921875 35.328125 C-10.05502855 35.62180999 -10.05502855 35.62180999 -8.9296875 34.265625 C-8.67963364 31.30745393 -8.67963364 31.30745393 -8.9296875 28.265625 C-10.85611358 25.93357789 -10.85611358 25.93357789 -14.2421875 25.828125 C-18.00085705 25.9999857 -18.00085705 25.9999857 -20.9296875 28.203125 C-23.3755137 31.94829637 -23.33610646 33.81566942 -22.578125 38.11328125 C-21.41777192 41.96481467 -19.33914808 44.20852957 -16.1796875 46.578125 C-11.43864855 48.02677579 -7.31959318 47.69328829 -2.6796875 46.265625 C1.1470612 43.48253504 2.78009763 40.80312225 4.0703125 36.265625 C4.84869025 30.2768819 5.19202749 23.86513791 1.5703125 18.734375 C-4.81197873 12.48504817 -12.03060033 11.71902693 -20.6328125 11.796875 C-26.31916891 12.60536169 -30.7973069 15.35073811 -34.9296875 19.265625 C-40.0366639 26.60047701 -40.70286855 33.50658828 -39.9296875 42.265625 C-38.17388924 49.04554478 -34.16533404 54.69070606 -28.9296875 59.265625 C-21.83965387 63.27096006 -14.80471818 63.90366528 -6.8046875 64.015625 C-5.226875 64.06009766 -5.226875 64.06009766 -3.6171875 64.10546875 C-1.05461441 64.17535711 1.50709212 64.22844901 4.0703125 64.265625 C2.76645496 66.87334009 1.81268144 66.93889198 -0.90625 67.86328125 C-5.76217644 69.38495848 -10.2386786 69.76998077 -15.3046875 69.703125 C-16.55076782 69.6885022 -16.55076782 69.6885022 -17.82202148 69.67358398 C-28.84451658 69.35632025 -35.88176562 66.21113704 -43.8359375 58.49609375 C-51.30723365 50.53693311 -53.38278942 42.8304953 -53.28515625 32.2019043 C-53.11096396 26.73341922 -52.29629767 22.18325652 -49.9296875 17.265625 C-49.3728125 16.09 -48.8159375 14.914375 -48.2421875 13.703125 C-38.45933766 -2.29164851 -16.98803064 -8.4052277 0 0 Z " fill="#FDF1EF" transform="translate(106.9296875,61.734375)"/>
<path d="M0 0 C4.67977206 2.76777293 7.72550788 5.7779939 9.4375 11 C10.40616471 17.48394487 10.16357137 23.64556402 6.76171875 29.375 C3.94363411 32.83318056 0.78533513 34.56403835 -3.58203125 35.375 C-8.72286521 35.68954433 -11.69524829 34.23769911 -15.5625 31 C-18.83025845 27.9576042 -19.3900151 24.50135807 -19.7734375 20.19140625 C-19.5625 18 -19.5625 18 -17.1875 15 C-16.32125 14.34 -15.455 13.68 -14.5625 13 C-14.2325 12.67 -13.9025 12.34 -13.5625 12 C-7.3544708 11.54014599 -7.3544708 11.54014599 -4.625 13.125 C-3.08111724 15.84949899 -3.2357893 17.92891945 -3.5625 21 C-5.5625 23 -5.5625 23 -8.6875 23.125 C-10.110625 23.063125 -10.110625 23.063125 -11.5625 23 C-10.9025 24.32 -10.2425 25.64 -9.5625 27 C-5.35284186 27.41271158 -3.20662341 27.42484735 0.375 25.0625 C2.77783401 21.49465557 3.16616345 19.44414862 2.93359375 15.22265625 C2.08238654 11.40897986 0.2810743 9.64518539 -2.5625 7 C-8.19468077 5.12260641 -15.04093272 4.8323052 -20.5 7.4375 C-24.98089909 11.18682373 -26.95677041 15.331206 -27.90625 21.08203125 C-28.17853575 26.83406765 -26.86633227 32.36279665 -23.05078125 36.73046875 C-16.65351115 42.55270333 -10.59946987 44.48988273 -2.125 44.1875 C-1.39345703 44.17396484 -0.66191406 44.16042969 0.09179688 44.14648438 C1.87402422 44.11153874 3.65586573 44.05774805 5.4375 44 C5.4375 44.66 5.4375 45.32 5.4375 46 C2.58307247 46.05437005 -0.27030076 46.09384974 -3.125 46.125 C-3.92486328 46.14175781 -4.72472656 46.15851563 -5.54882812 46.17578125 C-10.62750335 46.21723982 -14.75061906 45.64056075 -19.5625 44 C-19.2325 45.65 -18.9025 47.3 -18.5625 49 C-24.49902767 47.69685978 -27.85907656 44.62029041 -31.5625 40 C-36.40604318 32.03441392 -38.086459 23.85781549 -36.03125 14.609375 C-33.48322206 7.35303455 -29.00045671 2.88368618 -22.5625 -1 C-15.41082917 -3.38389028 -6.87901135 -3.08726714 0 0 Z " fill="#F2767C" transform="translate(102.5625,75)"/>
<path d="M0 0 C0.58007812 0.40992187 1.16015625 0.81984375 1.7578125 1.2421875 C2.92957031 2.05042969 2.92957031 2.05042969 4.125 2.875 C5.27355469 3.67550781 5.27355469 3.67550781 6.4453125 4.4921875 C13.01480011 8.3695915 19.43100289 8.40498038 26.875 8.625 C28.47988281 8.68300781 28.47988281 8.68300781 30.1171875 8.7421875 C32.74462408 8.83602452 35.37206171 8.92171557 38 9 C36.69614246 11.60771509 35.74236894 11.67326698 33.0234375 12.59765625 C28.16680336 14.11955524 23.69147278 14.50232181 18.625 14.4375 C17.79790527 14.43065186 16.97081055 14.42380371 16.11865234 14.41674805 C8.1862555 14.2093905 0.71446848 12.95686209 -5.1875 7.25 C-5.785625 6.5075 -6.38375 5.765 -7 5 C-3.25 3.875 -3.25 3.875 -1 5 C-1 5.66 -1 6.32 -1 7 C-0.34 7.33 0.32 7.66 1 8 C0.67 5.36 0.34 2.72 0 0 Z " fill="#FEECEB" transform="translate(73,117)"/>
<path d="M0 0 C6.77154658 -0.81725562 6.77154658 -0.81725562 9.8671875 1.2421875 C13.03158185 4.52770699 14.37978211 7.15917942 14.5 11.75 C14.35782195 15.13857697 13.97879843 16.03180236 12 19 C10.68 18.67 9.36 18.34 8 18 C8 14.04 8 10.08 8 6 C6.68 5.67 5.36 5.34 4 5 C2.3255761 4.3530635 0.65697379 3.69040574 -1 3 C-0.67 2.01 -0.34 1.02 0 0 Z " fill="#FDEBEA" transform="translate(92,81)"/>
<path d="M0 0 C0.66 0.33 1.32 0.66 2 1 C0.07062951 3.89405573 -0.60116953 4.54552728 -3.5 6.0625 C-5.77286805 7.2615342 -7.15055782 8.15055782 -9 10 C-9.6425235 12.06874034 -9.6425235 12.06874034 -10 14 C-10.66 14 -11.32 14 -12 14 C-12.28875 14.639375 -12.5775 15.27875 -12.875 15.9375 C-14 18 -14 18 -16 19 C-16.309375 19.94875 -16.61875 20.8975 -16.9375 21.875 C-18 25 -18 25 -19.43359375 26.36328125 C-21.4711131 28.49226032 -22.15120368 30.54063094 -23.125 33.3125 C-23.45757813 34.23675781 -23.79015625 35.16101563 -24.1328125 36.11328125 C-26.03959378 42.46062975 -26.27629763 48.79703737 -26.5625 55.375 C-26.60568359 56.30183594 -26.64886719 57.22867188 -26.69335938 58.18359375 C-26.79876186 60.45560294 -26.90088606 62.72770925 -27 65 C-27.33 65 -27.66 65 -28 65 C-28.75212814 43.70320248 -26.23699868 27.331636 -12.234375 10.37109375 C-8.53035665 6.44043092 -4.34650016 3.18862102 0 0 Z " fill="#D9797E" transform="translate(54,41)"/>
<path d="M0 0 C0.33 0 0.66 0 1 0 C1.37952295 6.19887485 0.8352113 10.4477112 -2 16 C-1.01 16 -0.02 16 1 16 C1 15.01 1 14.02 1 13 C1.66 13 2.32 13 3 13 C3 11.68 3 10.36 3 9 C3.66 9 4.32 9 5 9 C4.58443583 13.84824868 2.62551755 15.88036862 -1 19 C-4.09203562 21.23906027 -7.17602545 21.41310784 -10.96484375 21.328125 C-14.29176075 20.79173147 -16.45375599 19.11151942 -19 17 C-19.33 16.34 -19.66 15.68 -20 15 C-19.2575 15.433125 -19.2575 15.433125 -18.5 15.875 C-15.08247965 17.41288416 -11.6493798 18.14847805 -8 19 C-7.34 18.01 -6.68 17.02 -6 16 C-7.98 16 -9.96 16 -12 16 C-12.33 15.34 -12.66 14.68 -13 14 C-12.38511719 13.90203125 -11.77023438 13.8040625 -11.13671875 13.703125 C-6.21685809 12.85224392 -6.21685809 12.85224392 -2 10.375 C-0.55021805 6.93176787 -0.31013351 3.72160215 0 0 Z " fill="#EB7F85" transform="translate(106,89)"/>
<path d="M0 0 C0.99 0.33 1.98 0.66 3 1 C3.66 0.67 4.32 0.34 5 0 C5.06058594 0.78246094 5.12117188 1.56492187 5.18359375 2.37109375 C5.26738281 3.38300781 5.35117188 4.39492187 5.4375 5.4375 C5.51871094 6.44683594 5.59992188 7.45617187 5.68359375 8.49609375 C5.73211468 10.93640779 5.73211468 10.93640779 7 12 C7.04063832 13.66617115 7.042721 15.33388095 7 17 C6.01 17 5.02 17 4 17 C2 15 2 15 1 13 C0.34 13 -0.32 13 -1 13 C-2.16045439 8.74500059 -1.82904781 5.31104861 -1 1 C-0.67 0.67 -0.34 0.34 0 0 Z " fill="#F87179" transform="translate(68,94)"/>
<path d="M0 0 C1 2 1 2 0.0625 5.125 C-0.288125 6.07375 -0.63875 7.0225 -1 8 C-1.99 8 -2.98 8 -4 8 C-3.34 9.98 -2.68 11.96 -2 14 C-0.10786631 11.61426621 1.02391783 9.92824652 2 7 C2.99 7.33 3.98 7.66 5 8 C4.505 8.9075 4.01 9.815 3.5 10.75 C1.21201459 15.95973205 1.75285987 21.425617 2 27 C1.34 26.67 0.68 26.34 0 26 C-0.4140625 23.93359375 -0.4140625 23.93359375 -0.625 21.4375 C-0.69976562 20.61121094 -0.77453125 19.78492187 -0.8515625 18.93359375 C-0.92503906 17.97646484 -0.92503906 17.97646484 -1 17 C-2.32 16.67 -3.64 16.34 -5 16 C-5.33 18.31 -5.66 20.62 -6 23 C-6.33 23 -6.66 23 -7 23 C-7.45354276 14.8026346 -6.71511485 8.72358608 -1.8125 2 C-1.214375 1.34 -0.61625 0.68 0 0 Z " fill="#EB7B82" transform="translate(73,79)"/>
<path d="M0 0 C2.125 0.375 2.125 0.375 4 1 C1.8 7.6 1.8 7.6 -1 9 C-1.12375 9.78375 -1.2475 10.5675 -1.375 11.375 C-2 14 -2 14 -4.0625 15.8125 C-4.701875 16.204375 -5.34125 16.59625 -6 17 C-6.33 14.69 -6.66 12.38 -7 10 C-6.01 10 -5.02 10 -4 10 C-3.71125 8.72125 -3.4225 7.4425 -3.125 6.125 C-2.45897517 3.17546145 -2.19797403 2.19797403 0 0 Z " fill="#F77076" transform="translate(76,77)"/>
<path d="M0 0 C0.33 0 0.66 0 1 0 C1.3690205 12.66970387 1.3690205 12.66970387 -1 18 C-1.66 18 -2.32 18 -3 18 C-5.08379509 21.84700632 -6.49686624 25.90054429 -8 30 C-8.59296875 29.82597656 -9.1859375 29.65195313 -9.796875 29.47265625 C-12.71946818 28.84564601 -15.09825758 29.40646178 -18 30 C-16 28 -16 28 -12.75 26.4375 C-6.65689761 23.0538565 -3.1985141 16.42794258 -1 10 C-0.55450643 7.3383813 -0.55450643 7.3383813 -0.375 4.6875 C-0.30023438 3.80449219 -0.22546875 2.92148438 -0.1484375 2.01171875 C-0.09945312 1.34785156 -0.05046875 0.68398437 0 0 Z " fill="#EB7F85" transform="translate(126,89)"/>
<path d="M0 0 C0.66 0 1.32 0 2 0 C2.268125 0.94875 2.53625 1.8975 2.8125 2.875 C3.74986588 6.25267273 3.74986588 6.25267273 7 8 C8.9896995 8.39013716 10.99019869 8.73202649 13 9 C12.34 10.32 11.68 11.64 11 13 C9.56068883 12.54738642 8.12361001 12.08767021 6.6875 11.625 C5.48673828 11.24214844 5.48673828 11.24214844 4.26171875 10.8515625 C2 10 2 10 -1 8 C-1.25 4.4375 -1.25 4.4375 -1 1 C-0.67 0.67 -0.34 0.34 0 0 Z " fill="#F76F77" transform="translate(87,96)"/>
<path d="M0 0 C3.70911547 0.84779782 5.6320409 2.37219632 7.8125 5.375 C10.92741416 10.65088587 10.44537835 16.06162196 10 22 C9.67 22 9.34 22 9 22 C9 18.7 9 15.4 9 12 C8.34 12 7.68 12 7 12 C6.67 11.34 6.34 10.68 6 10 C5.01 10.66 4.02 11.32 3 12 C2.34 10.68 1.68 9.36 1 8 C2.32 8.33 3.64 8.66 5 9 C4.34 8.01 3.68 7.02 3 6 C2.855625 5.29875 2.71125 4.5975 2.5625 3.875 C2.376875 3.25625 2.19125 2.6375 2 2 C1.01 1.67 0.02 1.34 -1 1 C-0.67 0.67 -0.34 0.34 0 0 Z " fill="#EC7D81" transform="translate(102,76)"/>
<path d="M0 0 C6.93 0 13.86 0 21 0 C20 2 20 2 18.14453125 2.8515625 C13.62151874 4.3516571 9.83255247 5.37173481 5 5 C5.99 4.34 6.98 3.68 8 3 C6.03177114 1.03177114 2.65191291 1.33751619 0 1 C0 0.67 0 0.34 0 0 Z " fill="#FCD1CF" transform="translate(90,126)"/>
<path d="M0 0 C1.0209375 0.6496875 1.0209375 0.6496875 2.0625 1.3125 C10.96469009 6.42652409 18.0644842 6.68086022 28 6 C28 6.66 28 7.32 28 8 C17.25494044 8.53193364 8.49310207 8.85477661 -1 3 C-0.67 2.01 -0.34 1.02 0 0 Z " fill="#E87C82" transform="translate(80,113)"/>
<path d="M0 0 C0.33 0.66 0.66 1.32 1 2 C0.30432235 3.72263037 -0.40047081 5.44273606 -1.171875 7.1328125 C-2.30769192 9.6937582 -3.13200375 12.33814482 -4 15 C-4.65411685 16.67163195 -5.31653318 18.34015202 -6 20 C-7.61277314 15.1397381 -5.89841194 11.56231257 -4 7 C-2.76473455 4.58240905 -1.42757675 2.31365888 0 0 Z " fill="#FEE2E0" transform="translate(61,72)"/>
<path d="M0 0 C0.66 0.66 1.32 1.32 2 2 C0.44333045 2.9884096 -1.12062426 3.96535082 -2.6875 4.9375 C-3.55761719 5.48277344 -4.42773438 6.02804688 -5.32421875 6.58984375 C-7.94624689 7.97167172 -10.08310075 8.58480173 -13 9 C-13.33 8.01 -13.66 7.02 -14 6 C-10.12315913 4.80712589 -7.08378077 4 -3 4 C-2.67 3.01 -2.34 2.02 -2 1 C-1.34 0.67 -0.68 0.34 0 0 Z " fill="#E77C83" transform="translate(125,146)"/>
<path d="M0 0 C3.4375 0.4375 3.4375 0.4375 5.375 1.5625 C6.88234863 4.222527 6.63736253 6.43956205 6.4375 9.4375 C5.4475 9.9325 5.4475 9.9325 4.4375 10.4375 C4.1075 8.1275 3.7775 5.8175 3.4375 3.4375 C-0.1925 3.7675 -3.8225 4.0975 -7.5625 4.4375 C-5.11203627 1.30090643 -4.03256326 0.49522707 0 0 Z " fill="#E47E84" transform="translate(92.5625,86.5625)"/>
<path d="M0 0 C0 0.66 0 1.32 0 2 C0.99 1.67 1.98 1.34 3 1 C3 1.66 3 2.32 3 3 C2.01 3.33 1.02 3.66 0 4 C-1.66710346 5.49985609 -1.66710346 5.49985609 -3 7 C-3.66 6.34 -4.32 5.68 -5 5 C-4.01 5 -3.02 5 -2 5 C-2 4.01 -2 3.02 -2 2 C-2.7425 2.350625 -3.485 2.70125 -4.25 3.0625 C-7.21122875 4.0720098 -8.12062561 3.87980884 -11 3 C-9.73160474 2.49384702 -8.46016898 1.99530901 -7.1875 1.5 C-6.12595703 1.08234375 -6.12595703 1.08234375 -5.04296875 0.65625 C-3 0 -3 0 0 0 Z " fill="#E9777C" transform="translate(74,33)"/>
<path d="M0 0 C1.32 0 2.64 0 4 0 C4 0.99 4 1.98 4 3 C4.99 3.33 5.98 3.66 7 4 C6 6 6 6 3 8 C2.34 6.68 1.68 5.36 1 4 C0.34 4 -0.32 4 -1 4 C-0.67 2.68 -0.34 1.36 0 0 Z " fill="#F77176" transform="translate(76,113)"/>
<path d="M0 0 C0.33 0.66 0.66 1.32 1 2 C0.34 2 -0.32 2 -1 2 C-1.28875 2.639375 -1.5775 3.27875 -1.875 3.9375 C-3 6 -3 6 -5 7 C-5.72693904 8.97888961 -6.39816251 10.97954558 -7 13 C-7.66 12.67 -8.32 12.34 -9 12 C-5.86652079 3.64989059 -5.86652079 3.64989059 -2.25 0.9375 C-1.5075 0.628125 -0.765 0.31875 0 0 Z " fill="#EC777D" transform="translate(43,53)"/>
<path d="M0 0 C2.3125 -0.25 2.3125 -0.25 5 0 C6.8125 2 6.8125 2 8 4 C7.67 4.66 7.34 5.32 7 6 C4.0280615 4.87548273 1.66559313 3.77706209 -1 2 C-0.67 1.34 -0.34 0.68 0 0 Z " fill="#FCF6F5" transform="translate(92,81)"/>
<path d="M0 0 C1 2 1 2 0.0625 5.125 C-0.288125 6.07375 -0.63875 7.0225 -1 8 C-1.99 8 -2.98 8 -4 8 C-4 8.99 -4 9.98 -4 11 C-4.66 11 -5.32 11 -6 11 C-4.74194623 6.49197399 -3.09592835 3.5087188 0 0 Z " fill="#EE828A" transform="translate(73,79)"/>
<path d="M0 0 C0.66 0.33 1.32 0.66 2 1 C1.04663979 2.31611677 0.08714226 3.62778961 -0.875 4.9375 C-1.40867188 5.66839844 -1.94234375 6.39929688 -2.4921875 7.15234375 C-4 9 -4 9 -6 10 C-6 8.68 -6 7.36 -6 6 C-5.01 6 -4.02 6 -3 6 C-3 4.35 -3 2.7 -3 1 C-2.01 1.33 -1.02 1.66 0 2 C0 1.34 0 0.68 0 0 Z " fill="#E77981" transform="translate(143,128)"/>
<path d="M0 0 C2.64 0.33 5.28 0.66 8 1 C8.66 2.65 9.32 4.3 10 6 C5.56909529 4.79157144 3.01887244 3.48331435 0 0 Z " fill="#EA7981" transform="translate(53,147)"/>
<path d="M0 0 C0.33 0 0.66 0 1 0 C1.25 7.625 1.25 7.625 -1 11 C-1 10.34 -1 9.68 -1 9 C-1.66 9 -2.32 9 -3 9 C-2.30058404 5.85262818 -1.23921302 2.97411124 0 0 Z " fill="#FEE5E2" transform="translate(125,91)"/>
<path d="M0 0 C0.66 0.33 1.32 0.66 2 1 C1.67 3.97 1.34 6.94 1 10 C0.01 9.67 -0.98 9.34 -2 9 C-1.125 2.25 -1.125 2.25 0 0 Z " fill="#FCF7F6" transform="translate(102,90)"/>
<path d="M0 0 C3.3 1.65 6.6 3.3 10 5 C10 5.33 10 5.66 10 6 C5.94393835 5.53199289 2.53411321 5.12046792 -1 3 C-0.67 2.01 -0.34 1.02 0 0 Z " fill="#EF838D" transform="translate(80,113)"/>
<path d="M0 0 C2.1723491 3.25852365 4.07119658 6.59244728 6 10 C4.35 10 2.7 10 1 10 C0.67 6.7 0.34 3.4 0 0 Z " fill="#EC7F88" transform="translate(56,109)"/>
<path d="M0 0 C2.125 0.375 2.125 0.375 4 1 C-1.75 6 -1.75 6 -4 6 C-2.84826645 3.53199953 -1.95216435 1.95216435 0 0 Z " fill="#FEDFE0" transform="translate(115,111)"/>
<path d="M0 0 C2.31 0.33 4.62 0.66 7 1 C7 1.66 7 2.32 7 3 C7.66 3.33 8.32 3.66 9 4 C7.68 4.33 6.36 4.66 5 5 C5 4.34 5 3.68 5 3 C2.525 2.01 2.525 2.01 0 1 C0 0.67 0 0.34 0 0 Z " fill="#EE7A83" transform="translate(75,129)"/>
<path d="M0 0 C0.66 0 1.32 0 2 0 C2.33 0.99 2.66 1.98 3 3 C2.34 3.66 1.68 4.32 1 5 C-0.32 5 -1.64 5 -3 5 C-1.125 1.125 -1.125 1.125 0 0 Z " fill="#FEF4F4" transform="translate(78,123)"/>
<path d="M0 0 C2.64 1.65 5.28 3.3 8 5 C5.53721199 6.231394 3.7204945 6.07159196 1 6 C0.67 4.02 0.34 2.04 0 0 Z " fill="#E37A7F" transform="translate(122,39)"/>
<path d="M0 0 C0 0.66 0 1.32 0 2 C-1.258125 1.87625 -2.51625 1.7525 -3.8125 1.625 C-4.87404297 1.52058594 -4.87404297 1.52058594 -5.95703125 1.4140625 C-8 1 -8 1 -11 -1 C-6.74938644 -2.41687119 -4.28148375 -1.19320039 0 0 Z " fill="#FEE1DE" transform="translate(86,129)"/>
<path d="M0 0 C-3.50538557 1.96301592 -7.13351728 2.95902388 -11 4 C-7.65667474 -0.27945633 -5.29105716 -0.4070044 0 0 Z " fill="#E4878C" transform="translate(96,87)"/>
</svg>
