<?xml version="1.0" encoding="UTF-8"?>
<svg version="1.1" xmlns="http://www.w3.org/2000/svg" width="163" height="159">
<path d="M0 0 C11.7820628 9.37269715 19.80385012 23.97796264 22.98828125 38.5703125 C23.42772365 42.47669372 23.51323941 46.32895648 23.48828125 50.2578125 C23.48256104 51.31000977 23.47684082 52.36220703 23.47094727 53.44628906 C23.10565818 69.47965092 16.66652673 85.29476514 4.98828125 96.5703125 C-9.94907243 110.4268558 -26.88309163 115.46457869 -46.87109375 114.91796875 C-63.2420072 114.07897447 -77.91242973 106.03225435 -89.16796875 94.328125 C-101.91471144 79.37521531 -106.25369978 62.31285936 -105.22314453 43.00195312 C-103.7696578 26.28517736 -95.05341027 11.1806479 -82.38671875 0.3828125 C-57.09097348 -18.81242277 -25.5470889 -18.15579521 0 0 Z " fill="#C7B78C" transform="translate(121.01171875,29.4296875)"/>
<path d="M0 0 C0.78868469 0.02580643 1.57736938 0.05161285 2.38995361 0.07820129 C3.20554749 0.08527603 4.02114136 0.09235077 4.8614502 0.09963989 C7.46043542 0.1275771 10.05724733 0.19030973 12.65557861 0.25398254 C14.41987036 0.27906649 16.18419596 0.3018795 17.94854736 0.32234192 C22.26839217 0.377401 26.58661724 0.4636652 30.90557861 0.56648254 C28.89647978 7.40639675 26.76986437 14.19434116 24.46807861 20.94148254 C24.18126221 21.81675598 23.8944458 22.69202942 23.59893799 23.59382629 C20.89242184 31.49034335 17.03801573 34.68607585 10.09307861 39.19148254 C8.75835192 40.06894789 7.42371939 40.94655648 6.08917236 41.82429504 C5.40322998 42.27321106 4.7172876 42.72212708 4.01055908 43.18464661 C0.54588227 45.4590691 -2.89834743 47.76401532 -6.34442139 50.06648254 C-7.57869946 50.88954458 -8.81306777 51.71247132 -10.04754639 52.53523254 C-11.05301514 53.20554504 -12.05848389 53.87585754 -13.09442139 54.56648254 C-16.09442139 56.56648254 -16.09442139 56.56648254 -18.11004639 56.39460754 C-19.21606201 56.10843567 -19.21606201 56.10843567 -20.34442139 55.81648254 C-21.13203857 55.61796692 -21.91965576 55.41945129 -22.73114014 55.21492004 C-23.51102295 55.00093567 -24.29090576 54.78695129 -25.09442139 54.56648254 C-25.8021167 54.37312317 -26.50981201 54.17976379 -27.23895264 53.98054504 C-28.86180227 53.52442845 -30.47884256 53.04771879 -32.09442139 52.56648254 C-32.38047288 49.97158684 -32.6292057 47.37999554 -32.83660889 44.77742004 C-33.0054649 42.67439513 -33.21750355 40.5742896 -33.47723389 38.48054504 C-33.83692445 33.96700857 -34.02256301 30.87123152 -31.33270264 27.08992004 C-29.0084193 24.79325977 -26.57799068 22.68844415 -24.09442139 20.56648254 C-22.85820109 19.21649965 -21.64759623 17.84241026 -20.46942139 16.44148254 C-17.71594275 13.22802604 -14.81961002 10.23772603 -11.77020264 7.30476379 C-9.9547228 5.54745193 -9.9547228 5.54745193 -8.5199585 2.98835754 C-5.66177747 0.13449184 -3.96151484 -0.00202047 0 0 Z " fill="#FEFDFB" transform="translate(73.09442138671875,49.43351745605469)"/>
<path d="M0 0 C1.62677091 2.13770618 3.13979644 4.2675534 4.625 6.5 C5.25535156 7.43005859 5.25535156 7.43005859 5.8984375 8.37890625 C6.93837167 9.91517264 7.96997056 11.45707524 9 13 C7.44182816 16.64984816 5.18875601 19.1685954 2.5 22.0625 C0.09463269 24.65920335 -2.03404204 27.05106306 -4 30 C-13.00726401 28.36231563 -21.42639358 25.13020303 -30 22 C-30 21.01 -30 20.02 -30 19 C-28.39868164 17.5612793 -28.39868164 17.5612793 -26.16015625 16.07421875 C-24.93522461 15.24954102 -24.93522461 15.24954102 -23.68554688 14.40820312 C-22.38713867 13.55645508 -22.38713867 13.55645508 -21.0625 12.6875 C-20.23169922 12.13126953 -19.40089844 11.57503906 -18.54492188 11.00195312 C-16.87253009 9.8839885 -15.19624385 8.7718277 -13.51611328 7.66552734 C-11.81310061 6.53822747 -10.11892732 5.39747836 -8.43310547 4.24462891 C-7.22678467 3.42164307 -7.22678467 3.42164307 -5.99609375 2.58203125 C-5.27478271 2.08550049 -4.55347168 1.58896973 -3.81030273 1.07739258 C-2 0 -2 0 0 0 Z " fill="#FDFCF8" transform="translate(95,87)"/>
<path d="M0 0 C0.66 0 1.32 0 2 0 C3.46249294 4.65916723 4.92047031 9.31969678 6.37158203 13.98242188 C6.90081737 15.6815675 7.4325437 17.37993697 7.96484375 19.078125 C8.22394531 19.91859375 8.48304687 20.7590625 8.75 21.625 C8.97171875 22.33914062 9.1934375 23.05328125 9.421875 23.7890625 C9.61265625 24.51867187 9.8034375 25.24828125 10 26 C10.30164063 26.94101563 10.60328125 27.88203125 10.9140625 28.8515625 C11.04136156 33.51533705 8.71162565 35.47516547 5.625 38.75 C1.9198712 42.59588447 1.9198712 42.59588447 -1 47 C-1.66 47 -2.32 47 -3 47 C-6.78782058 42.52676427 -10.83906411 37.25090489 -11.13671875 31.23828125 C-10.36684584 28.00292578 -9.24416522 25.08907513 -8 22 C-7.32277266 20.12087451 -6.65285775 18.23910554 -5.98828125 16.35546875 C-4.04694411 10.88270924 -2.04113076 5.43624303 0 0 Z " fill="#FCFBF6" transform="translate(110,50)"/>
<path d="M0 0 C0.33 0.66 0.66 1.32 1 2 C4.02934491 2.65772428 4.02934491 2.65772428 7 3 C1.66771274 6.55485817 -4.17917836 6.13532611 -10.375 6.0625 C-11.11105469 6.05798828 -11.84710938 6.05347656 -12.60546875 6.04882812 C-14.40368158 6.03715142 -16.20185197 6.01922011 -18 6 C-18 5.67 -18 5.34 -18 5 C-16.95199219 4.97421875 -15.90398437 4.9484375 -14.82421875 4.921875 C-13.44527098 4.86559142 -12.06636635 4.80824412 -10.6875 4.75 C-9.99720703 4.73582031 -9.30691406 4.72164062 -8.59570312 4.70703125 C-4.31566483 4.50142021 -4.31566483 4.50142021 -1.01953125 1.953125 C-0.51486328 0.98632812 -0.51486328 0.98632812 0 0 Z " fill="#CCBB98" transform="translate(92,138)"/>
<path d="M0 0 C2.76006237 2.76006237 2.94925597 4.81226237 3.11352539 8.65722656 C3.10828857 9.64174805 3.10305176 10.62626953 3.09765625 11.640625 C3.09282227 13.24550781 3.09282227 13.24550781 3.08789062 14.8828125 C3.07951172 15.99398437 3.07113281 17.10515625 3.0625 18.25 C3.05798828 19.37664062 3.05347656 20.50328125 3.04882812 21.6640625 C3.03705397 24.44276217 3.0206084 27.22135409 3 30 C2.67 30 2.34 30 2 30 C2 22.74 2 15.48 2 8 C1.34 7.67 0.68 7.34 0 7 C-1.09036928 4.0262656 -1.03864166 3.11592499 0 0 Z " fill="#CABC9C" transform="translate(141,62)"/>
<path d="M0 0 C0.66 1.32 1.32 2.64 2 4 C0.88200014 5.33920838 -0.24461897 6.67122556 -1.375 8 C-2.31472656 9.11375 -2.31472656 9.11375 -3.2734375 10.25 C-3.84320313 10.8275 -4.41296875 11.405 -5 12 C-5.66 12 -6.32 12 -7 12 C-5.880462 9.48103951 -4.68018448 7.60265345 -2.9375 5.4375 C-0.83615651 3.07973981 -0.83615651 3.07973981 0 0 Z " fill="#C6BD9A" transform="translate(121,79)"/>
<path d="M0 0 C0.99 0 1.98 0 3 0 C5.67927341 4.01891012 5.15601248 6.24161923 5 11 C2.03947516 7.63576723 1.07710178 4.30840713 0 0 Z " fill="#C9BB97" transform="translate(19,100)"/>
<path d="M0 0 C1.65 0 3.3 0 5 0 C2.19195732 2.96404505 -0.18315774 5.44499019 -4 7 C-4 6.01 -4 5.02 -4 4 C-3.34 4 -2.68 4 -2 4 C-1.34 2.68 -0.68 1.36 0 0 Z " fill="#C8BC9C" transform="translate(116,129)"/>
<path d="M0 0 C0.66 0.33 1.32 0.66 2 1 C0.02 1.99 0.02 1.99 -2 3 C-2 3.66 -2 4.32 -2 5 C-0.68 5 0.64 5 2 5 C1.67 5.99 1.34 6.98 1 8 C-0.98 7.01 -2.96 6.02 -5 5 C-3.35 3.35 -1.7 1.7 0 0 Z " fill="#FBF8E9" transform="translate(69,103)"/>
<path d="M0 0 C2.96052484 3.36423277 3.92289822 6.69159287 5 11 C2.15737794 9.57868897 1.40664006 7.81328011 0 5 C-0.1875 2.1875 -0.1875 2.1875 0 0 Z " fill="#C3BA9A" transform="translate(136,49)"/>
</svg>
