<?xml version="1.0" encoding="UTF-8"?>
<svg version="1.1" xmlns="http://www.w3.org/2000/svg" width="156" height="154">
<path d="M0 0 C11.49027943 9.1713795 20.9183656 24.83397639 22.84765625 39.5 C24.37629046 58.30647935 21.994512 76.19884137 9.45556641 91.16113281 C-1.29240089 103.28827927 -14.74380939 112.42939924 -31.15234375 114.5 C-49.87949425 115.58114634 -67.3497209 113.28504841 -82.04833984 100.53735352 C-96.63401507 87.17369637 -105.16762812 71.16500777 -106.21484375 51.24609375 C-105.95480803 35.66020275 -100.66756584 21.78251263 -91.15234375 9.5 C-90.19134766 8.24123047 -90.19134766 8.24123047 -89.2109375 6.95703125 C-66.4005394 -20.26828261 -27.07074168 -18.86599783 0 0 Z " fill="#5B8FA0" transform="translate(118.15234375,24.5)"/>
<path d="M0 0 C1.3767263 0.01487961 1.3767263 0.01487961 2.78126526 0.03005981 C3.73658646 0.01766266 4.69190765 0.0052655 5.67617798 -0.00750732 C7.69252963 -0.02168763 9.70911581 -0.01538196 11.72535706 0.01004028 C14.8063336 0.03778148 17.87514552 -0.03030677 20.95509338 -0.10665894 C35.0390733 -0.22655509 35.0390733 -0.22655509 39.31520081 3.00271606 C40.9114975 5.65378095 41.85397048 8.24503198 42.87892151 11.16287231 C44.13886555 13.33808567 45.44253862 15.4883641 46.78126526 17.61599731 C48.12740666 19.88097525 49.47244474 22.14660927 50.81642151 24.41287231 C51.16583801 24.98650513 51.51525452 25.56013794 51.8752594 26.15115356 C52.90138075 27.83826749 53.90416565 29.53950538 54.90626526 31.24099731 C55.50173157 32.23518677 56.09719788 33.22937622 56.71070862 34.25369263 C58.14082432 37.8150842 57.94954188 39.50521977 56.87892151 43.16287231 C55.57545471 45.88845825 55.57545471 45.88845825 53.92970276 48.64724731 C53.3283551 49.66560669 52.72700745 50.68396606 52.10743713 51.73318481 C51.47515198 52.78248169 50.84286682 53.83177856 50.19142151 54.91287231 C49.27199768 56.4636145 49.27199768 56.4636145 48.33399963 58.04568481 C47.10864783 60.10916166 45.85955201 62.15872647 44.58692932 64.19338989 C42.81441689 67.07244175 42.81441689 67.07244175 41.8349762 70.07571411 C40.54375038 73.32221638 39.60862653 74.94448576 36.87892151 77.16287231 C30.03914027 79.51944532 22.6584191 79.44428305 15.50392151 79.47537231 C13.99993301 79.49868118 13.99993301 79.49868118 12.46556091 79.52246094 C-4.82878715 79.56446331 -4.82878715 79.56446331 -10.66844177 74.61404419 C-16.26024284 68.6959644 -19.26790769 60.99225634 -21.91355896 53.4133606 C-23.29810445 49.68634106 -25.1232478 46.52223598 -27.32054138 43.22317505 C-28.49650005 40.19666843 -27.94816231 38.27361162 -27.12107849 35.16287231 C-25.70994568 32.22195435 -25.70994568 32.22195435 -23.91795349 29.17068481 C-23.26697693 28.05306763 -22.61600037 26.93545044 -21.94529724 25.78396606 C-21.25400542 24.6185336 -20.56259844 23.45316943 -19.87107849 22.28787231 C-19.19447276 21.13080196 -18.51868442 19.97325322 -17.84373474 18.81521606 C-15.95290624 15.58706289 -14.05242711 12.36695522 -12.12107849 9.16287231 C-11.7919194 8.45992035 -11.46276031 7.75696838 -11.12362671 7.03271484 C-8.33314537 1.56153109 -6.12032354 0.22509741 0 0 Z " fill="#FAFCFD" transform="translate(62.12107849121094,35.837127685546875)"/>
<path d="M0 0 C5.10324024 3.61263863 7.92818971 8.35994762 9.19921875 14.453125 C9.69410238 21.4474803 7.20039974 26.74270442 2.6875 32 C-2.32850531 36.25166164 -7.42227838 37.79868951 -13.9609375 37.4140625 C-20.21850683 36.31223136 -24.21623653 32.65040691 -28.08984375 27.78515625 C-30.91210176 23.66447922 -31.89768211 19.20297991 -31.75390625 14.21875 C-30.7028294 8.93546106 -27.65822167 3.9219784 -23.49609375 0.51171875 C-16.06540654 -3.90175637 -7.63418956 -4.20097718 0 0 Z " fill="#5A8EA0" transform="translate(88.3125,58)"/>
<path d="M0 0 C4.3769855 3.09851509 6.99388562 6.9271081 8.6875 12 C9.05052684 15.38510746 9.00560993 18.61389651 8.6875 22 C8.0275 22.33 7.3675 22.66 6.6875 23 C6.65011719 22.35933594 6.61273438 21.71867187 6.57421875 21.05859375 C6.50847656 20.19363281 6.44273438 19.32867187 6.375 18.4375 C6.31699219 17.59058594 6.25898437 16.74367188 6.19921875 15.87109375 C5.23563745 10.46474063 4.02874783 6.97874842 -0.4921875 3.6796875 C-1.71245503 3.05512046 -2.94482793 2.45370799 -4.1875 1.875 C-4.79980469 1.54757813 -5.41210938 1.22015625 -6.04296875 0.8828125 C-8.07903955 -0.1763465 -8.07903955 -0.1763465 -11.3125 -1 C-14.10197034 0.1442333 -14.10197034 0.1442333 -16.3125 2 C-17.3025 2.33 -18.2925 2.66 -19.3125 3 C-19.3125 2.34 -19.3125 1.68 -19.3125 1 C-20.3025 0.67 -21.2925 0.34 -22.3125 0 C-14.59104581 -3.57474731 -7.69007361 -4.17088738 0 0 Z " fill="#6E94A1" transform="translate(88.3125,58)"/>
<path d="M0 0 C0.33 0.99 0.66 1.98 1 3 C0.01 3.99 -0.98 4.98 -2 6 C-1.34 4.02 -0.68 2.04 0 0 Z M-3 6 C-2.67 6.66 -2.34 7.32 -2 8 C-3.04363606 9.72852223 -4.08803103 11.45660559 -5.140625 13.1796875 C-6.23821756 15.11003874 -6.23821756 15.11003874 -5.75 17.9375 C-5.37875 18.9584375 -5.37875 18.9584375 -5 20 C-5.99 20.495 -5.99 20.495 -7 21 C-7.66 20.67 -8.32 20.34 -9 20 C-9.66 21.32 -10.32 22.64 -11 24 C-11.66 23.67 -12.32 23.34 -13 23 C-9.7 17.39 -6.4 11.78 -3 6 Z " fill="#69929F" transform="translate(116,82)"/>
<path d="M0 0 C0.66 0 1.32 0 2 0 C0.94124926 3.40312738 -0.00902154 6.01353231 -2 9 C-2.44703234 11.21584546 -2.81463242 13.44841961 -3.125 15.6875 C-3.29257812 16.86699219 -3.46015625 18.04648438 -3.6328125 19.26171875 C-3.75398438 20.16535156 -3.87515625 21.06898437 -4 22 C-6.19027519 17.99038331 -6.90128208 14.5064104 -6 10 C-4.34023783 6.4259109 -2.44776389 3.09458233 0 0 Z " fill="#7196A3" transform="translate(63,60)"/>
<path d="M0 0 C4.95 0 9.9 0 15 0 C12 3 12 3 9.58984375 3.3984375 C8.71457031 3.39070313 7.83929688 3.38296875 6.9375 3.375 C5.62072266 3.38660156 5.62072266 3.38660156 4.27734375 3.3984375 C3.52582031 3.26695313 2.77429688 3.13546875 2 3 C1.34 2.01 0.68 1.02 0 0 Z " fill="#779AA5" transform="translate(70,92)"/>
<path d="M0 0 C3.08089673 2.77280706 4.68775452 5.06326356 6 9 C5.34 9.66 4.68 10.32 4 11 C3.32880451 9.5437455 2.66318193 8.08492133 2 6.625 C1.62875 5.81289062 1.2575 5.00078125 0.875 4.1640625 C0 2 0 2 0 0 Z " fill="#6F93A0" transform="translate(90,60)"/>
<path d="M0 0 C1.32 0.66 2.64 1.32 4 2 C3.3503125 2.61875 3.3503125 2.61875 2.6875 3.25 C0.94161728 5.06054505 -0.52619271 6.96474232 -2 9 C-2.20140476 5.37471432 -1.85776765 3.13498292 0 0 Z " fill="#6B94A0" transform="translate(53,35)"/>
<path d="M0 0 C2.52588702 2.36292656 3.88820837 3.66462511 5 7 C4.01 7.66 3.02 8.32 2 9 C1.34 6.03 0.68 3.06 0 0 Z " fill="#6D96A0" transform="translate(49,104)"/>
</svg>
