<?xml version="1.0" encoding="UTF-8"?>
<svg version="1.1" xmlns="http://www.w3.org/2000/svg" width="170" height="167">
<path d="M0 0 C0.99741211 -0.01023193 1.99482422 -0.02046387 3.02246094 -0.03100586 C12.94412244 0.0860953 21.54356968 2.42791133 30.3125 7 C32.06046875 7.89912109 32.06046875 7.89912109 33.84375 8.81640625 C36.8125 10.4375 36.8125 10.4375 39.8125 12.4375 C39.8125 13.0975 39.8125 13.7575 39.8125 14.4375 C40.39515625 14.70046875 40.9778125 14.9634375 41.578125 15.234375 C51.62669174 20.6451417 58.3667699 33.10788752 61.6875 43.6875 C62.08454875 45.26544858 62.46036584 46.84892486 62.8125 48.4375 C63.01488281 49.2109375 63.21726563 49.984375 63.42578125 50.78125 C67.47062779 67.73108312 63.79955111 84.6804715 54.8125 99.4375 C43.3064757 116.14920972 28.56797807 124.36534821 9.2890625 129.05078125 C-7.30433314 131.64186354 -23.99191498 127.25036991 -37.734375 117.66015625 C-52.10283913 106.66610415 -62.67032041 91.63461081 -65.1875 73.4375 C-67.02931428 55.13447057 -62.60861586 38.94526687 -51.375 24.25 C-37.66990202 7.87642359 -21.16692752 0.16724406 0 0 Z " fill="#4D90D4" transform="translate(85.1875,21.5625)"/>
<path d="M0 0 C7.22932836 1.74903106 11.37944356 8.91390893 15.19091797 14.85693359 C32.74256122 43.64976169 32.74256122 43.64976169 29.3515625 57.68359375 C26.57998673 66.22336352 22.31768349 72.33385598 14.5625 77 C6.99118897 80.39842052 -2.08537518 80.39322264 -10.00390625 78.1484375 C-18.08927517 74.51927954 -23.19269704 68.6628841 -26.4375 60.5 C-30.27903244 48.29060776 -25.75437255 38.19384499 -20.19238281 27.22436523 C-16.40468096 20.01797719 -12.03485712 13.40992314 -7 7 C-6.32453125 6.11570312 -5.6490625 5.23140625 -4.953125 4.3203125 C-3 2 -3 2 0 0 Z " fill="#F9FCFD" transform="translate(84,47)"/>
<path d="M0 0 C0.02578125 0.73605469 0.0515625 1.47210938 0.078125 2.23046875 C0.47197057 9.94677735 0.47197057 9.94677735 5 16 C9.6715095 19.11433967 14.52891363 18.60633174 20 18 C22.74970798 16.94594528 24.59600505 15.74835996 27 14 C25.35734577 20.61384465 23.70498021 24.15787047 18 28 C17.38125 28.433125 16.7625 28.86625 16.125 29.3125 C12.04839674 30.63140105 8.07027314 30.77373845 4.06640625 29.27734375 C0.10949512 27.17550063 -2.51322792 24.68410678 -5 21 C-5.4125 20.401875 -5.825 19.80375 -6.25 19.1875 C-7.89396983 14.392588 -7.50663497 10.27865017 -5.6875 5.6875 C-2.11627907 0 -2.11627907 0 0 0 Z " fill="#4C90D5" transform="translate(74,88)"/>
<path d="M0 0 C0.33 0.66 0.66 1.32 1 2 C-0.74144878 7.22434635 -3.35386661 10.98001329 -8 14 C-8.598125 14.4125 -9.19625 14.825 -9.8125 15.25 C-13.89306171 16.64904973 -17.90502864 16.78296909 -21.93359375 15.27734375 C-25.86628594 13.18836532 -28.56517428 10.70093509 -31 7 C-31 6.34 -31 5.68 -31 5 C-30.34 5 -29.68 5 -29 5 C-28.67 6.32 -28.34 7.64 -28 9 C-27.34 9 -26.68 9 -26 9 C-26 9.66 -26 10.32 -26 11 C-23.03 11.495 -23.03 11.495 -20 12 C-20 12.66 -20 13.32 -20 14 C-15.545 13.505 -15.545 13.505 -11 13 C-11 11.68 -11 10.36 -11 9 C-11 8.67 -11 8.34 -11 8 C-13.31 7.34 -15.62 6.68 -18 6 C-18 5.67 -18 5.34 -18 5 C-17.20335938 4.97421875 -16.40671875 4.9484375 -15.5859375 4.921875 C-9.18240118 4.57910663 -4.92103622 4.23755897 0 0 Z " fill="#5F95CC" transform="translate(100,102)"/>
<path d="M0 0 C0.02578125 0.73605469 0.0515625 1.47210938 0.078125 2.23046875 C0.4979316 9.9282034 0.4979316 9.9282034 5 16 C5.5775 16.598125 6.155 17.19625 6.75 17.8125 C7.1625 18.204375 7.575 18.59625 8 19 C3.25 18.125 3.25 18.125 1 17 C1 16.01 1 15.02 1 14 C-0.32 13.34 -1.64 12.68 -3 12 C-3.66 14.31 -4.32 16.62 -5 19 C-7 17 -7 17 -7.3125 13.25 C-7.18826625 8.36051472 -5.58567307 4.82962277 -2.375 1.125 C-1 0 -1 0 0 0 Z " fill="#6798CE" transform="translate(74,88)"/>
<path d="M0 0 C4.63437243 8.0329122 4.20770233 20.10682052 2 28.875 C1.67 29.90625 1.34 30.9375 1 32 C0.67 32 0.34 32 0 32 C-0.19876297 28.16716495 -0.38195792 24.33373312 -0.5625 20.5 C-0.61857422 19.42234375 -0.67464844 18.3446875 -0.73242188 17.234375 C-1.00236528 11.33161245 -0.95594719 5.83481843 0 0 Z " fill="#568DC1" transform="translate(147,70)"/>
<path d="M0 0 C0.66 0 1.32 0 2 0 C2 0.66 2 1.32 2 2 C2.66 2.33 3.32 2.66 4 3 C4.81640625 5.25 4.81640625 5.25 5.5625 8 C6.26490893 11.28253366 6.26490893 11.28253366 8 14 C8.52609568 21.54744952 8.81560518 28.32269093 5 35 C4 33 4 33 4.9375 29.875 C7.44299318 21.36676274 5.25611297 15.16979908 2.19140625 7.171875 C1.28817547 4.76720815 0.53889475 2.50245376 0 0 Z " fill="#6092C8" transform="translate(107,76)"/>
<path d="M0 0 C0.66 0.33 1.32 0.66 2 1 C-1.261268 5.46914504 -4.25823221 8.04038127 -9.5 9.875 C-12.71325345 11.32096405 -14.6320954 13.42913215 -17 16 C-17.66 15.67 -18.32 15.34 -19 15 C-13.47173834 8.77097278 -7.00972976 4.43143835 0 0 Z " fill="#588DC1" transform="translate(55,28)"/>
<path d="M0 0 C1.05960938 -0.01224609 2.11921875 -0.02449219 3.2109375 -0.03710938 C9.2559222 -0.04835935 14.4628944 0.41921773 20.25 2.1875 C20.25 2.5175 20.25 2.8475 20.25 3.1875 C16.95 3.5175 13.65 3.8475 10.25 4.1875 C10.25 3.5275 10.25 2.8675 10.25 2.1875 C6.93751922 2.15804969 3.62507289 2.14055199 0.3125 2.125 C-0.61369141 2.11662109 -1.53988281 2.10824219 -2.49414062 2.09960938 C-8.33300303 2.07912214 -13.95913053 2.43320213 -19.75 3.1875 C-13.25531302 -0.2917966 -7.2382168 0.00433946 0 0 Z " fill="#598CC0" transform="translate(84.75,21.8125)"/>
<path d="M0 0 C6.90857989 1.90236258 13.23477106 4.67908729 19 9 C19 9.66 19 10.32 19 11 C19.598125 11.2475 20.19625 11.495 20.8125 11.75 C23.28647521 13.16370012 24.43370255 14.65055383 26 17 C22.30010206 15.32044107 19.73307356 13.08369792 16.78125 10.33984375 C14.83652064 8.87703197 13.34831554 8.51584337 11 8 C10.54625 7.505 10.0925 7.01 9.625 6.5 C7.30745317 4.36072601 5.06440101 4.340489 2 4 C2 3.34 2 2.68 2 2 C1.34 2 0.68 2 0 2 C0 1.34 0 0.68 0 0 Z " fill="#5B8DBE" transform="translate(106,25)"/>
<path d="M0 0 C3.375 0.25 3.375 0.25 7 1 C8.125 3 8.125 3 9 5 C10.65614657 5.38218767 12.32457024 5.71395102 14 6 C15.66015625 7.52734375 15.66015625 7.52734375 17 9 C10.75029999 7.22057153 5.21510863 4.95040926 0 1 C0 0.67 0 0.34 0 0 Z " fill="#5A8CBD" transform="translate(47,138)"/>
<path d="M0 0 C0.33 0.99 0.66 1.98 1 3 C-0.109375 4.82421875 -0.109375 4.82421875 -1.75 6.6875 C-2.28109375 7.31011719 -2.8121875 7.93273437 -3.359375 8.57421875 C-5 10 -5 10 -8 10 C-8 10.66 -8 11.32 -8 12 C-9.65 12.33 -11.3 12.66 -13 13 C-13 12.34 -13 11.68 -13 11 C-11.171875 9.66796875 -11.171875 9.66796875 -8.75 8.1875 C-5.09336846 5.84380073 -2.46530176 3.64435913 0 0 Z " fill="#6295C8" transform="translate(109,113)"/>
<path d="M0 0 C0.66 0.33 1.32 0.66 2 1 C0.35 4.63 -1.3 8.26 -3 12 C-4.04973814 7.80104745 -3.72795155 5.20594226 -3 1 C-2.01 0.67 -1.02 0.34 0 0 Z " fill="#6493CC" transform="translate(63,73)"/>
<path d="M0 0 C1.65 0 3.3 0 5 0 C2.43571997 4.17882671 -0.01930733 7.12505529 -4 10 C-3.67 9.4225 -3.34 8.845 -3 8.25 C-1.72924102 5.80116138 -1.72924102 5.80116138 -2 2 C-1.01 2 -0.02 2 1 2 C0.67 1.34 0.34 0.68 0 0 Z " fill="#578FC1" transform="translate(132,124)"/>
<path d="M0 0 C3 3 6 6 9 9 C4.56 9.36 4.56 9.36 2.25 7.875 C0.56014759 5.34022139 0.33269391 2.99424517 0 0 Z " fill="#6494C8" transform="translate(60,113)"/>
<path d="M0 0 C0.99 0.99 1.98 1.98 3 3 C1.50902342 6.7952131 -0.75700849 8.61042731 -4 11 C-4.66 10.67 -5.32 10.34 -6 10 C-5.38125 9.278125 -4.7625 8.55625 -4.125 7.8125 C-2.16333647 5.21618062 -1.04684 3.05328334 0 0 Z " fill="#E0F0FA" transform="translate(100,104)"/>
<path d="M0 0 C3.63 1.32 7.26 2.64 11 4 C11 4.33 11 4.66 11 5 C3.5340751 5.36717663 3.5340751 5.36717663 1 3.625 C0 2 0 2 0 0 Z " fill="#5F94CA" transform="translate(69,122)"/>
<path d="M0 0 C1.14926266 0.95421808 2.29430541 1.91352045 3.4375 2.875 C4.07558594 3.40867187 4.71367188 3.94234375 5.37109375 4.4921875 C7 6 7 6 8 8 C3.25 7.125 3.25 7.125 1 6 C1 5.01 1 4.02 1 3 C0.34 2.67 -0.32 2.34 -1 2 C-0.67 1.34 -0.34 0.68 0 0 Z " fill="#6093C6" transform="translate(74,99)"/>
<path d="M0 0 C0.99 0.33 1.98 0.66 3 1 C2.21625 1.556875 1.4325 2.11375 0.625 2.6875 C-2.08704858 5.07668565 -2.96133543 6.60073413 -4 10 C-4.6875 8.3125 -4.6875 8.3125 -5 6 C-2.73846154 1.36923077 -2.73846154 1.36923077 0 0 Z " fill="#E3F4FD" transform="translate(72,87)"/>
<path d="M0 0 C3 3.75 3 3.75 3 6 C0 8 0 8 -2 9 C-2 7.35 -2 5.7 -2 4 C-1.34 4 -0.68 4 0 4 C0 2.68 0 1.36 0 0 Z " fill="#528AC3" transform="translate(141,54)"/>
<path d="M0 0 C0.33 0.66 0.66 1.32 1 2 C0.0625 4.625 0.0625 4.625 -1 7 C-1.33 6.34 -1.66 5.68 -2 5 C-4.02463255 4.34786708 -4.02463255 4.34786708 -6 4 C-4.02 2.68 -2.04 1.36 0 0 Z " fill="#6E96C5" transform="translate(100,102)"/>
<path d="M0 0 C0.6875 1.75 0.6875 1.75 1 4 C-0.4375 6.25 -0.4375 6.25 -2 8 C-2.33 6.35 -2.66 4.7 -3 3 C-2.34 3 -1.68 3 -1 3 C-0.67 2.01 -0.34 1.02 0 0 Z " fill="#548CC5" transform="translate(27,104)"/>
<path d="M0 0 C0.33 0.99 0.66 1.98 1 3 C-0.40445835 5.2636564 -2.1967913 7.0208685 -4 9 C-4.66 8.67 -5.32 8.34 -6 8 C-4.02 5.36 -2.04 2.72 0 0 Z " fill="#E0F3FC" transform="translate(77,54)"/>
</svg>
